<?xml version="1.0" encoding="utf-8"?>
<!-- Generator: Adobe Illustrator 18.1.1, SVG Export Plug-In . SVG Version: 6.00 Build 0)  -->
<svg version="1.1" id="Layer_1" xmlns="http://www.w3.org/2000/svg" xmlns:xlink="http://www.w3.org/1999/xlink" x="0px" y="0px"
	 viewBox="0 0 72 72" enable-background="new 0 0 72 72" xml:space="preserve">
<g>
	<g>
		<path fill="#E91866" d="M56.4,15.3h-26c-1.9,0-3.5,1.6-3.5,3.5v48.4c0,1.9,1.6,3.5,3.5,3.5h26c1.9,0,3.5-1.6,3.5-3.5V18.7
			C59.9,16.8,58.3,15.3,56.4,15.3z M43.4,68.7c-1.5,0-2.7-1.2-2.7-2.7s1.2-2.7,2.7-2.7c1.5,0,2.7,1.2,2.7,2.7S44.9,68.7,43.4,68.7z
			 M55.6,61.5H31.2V20.8h24.5V61.5L55.6,61.5L55.6,61.5z"/>
	</g>
	<g>
		<g>
			<g>
				<path fill="#EC1164" d="M28.7,34.6c-9.1,0-16.6-7.4-16.6-16.6S19.6,1.4,28.7,1.4S45.3,8.9,45.3,18S37.8,34.6,28.7,34.6z"/>
			</g>
		</g>
		<g>
			<circle fill="#FFFFFF" cx="28.7" cy="18" r="13.3"/>
		</g>
		<g>
			<g>
				<path fill="#EC1164" d="M28.7,26.4c-1,0-1.8-0.8-1.8-1.8v-4.9h-4.9c-1,0-1.8-0.8-1.8-1.8c0-1,0.8-1.8,1.8-1.8H27v-4.9
					c0-1,0.8-1.8,1.8-1.8s1.8,0.8,1.8,1.8v4.9h4.9c1,0,1.8,0.8,1.8,1.8c0,1-0.8,1.8-1.8,1.8h-4.9v4.9C30.5,25.6,29.7,26.4,28.7,26.4
					z"/>
			</g>
		</g>
	</g>
</g>
</svg>
