<?xml version="1.0" encoding="utf-8"?>
<!-- Generator: Adobe Illustrator 16.0.0, SVG Export Plug-In . SVG Version: 6.00 Build 0)  -->
<!DOCTYPE svg PUBLIC "-//W3C//DTD SVG 1.1//EN" "http://www.w3.org/Graphics/SVG/1.1/DTD/svg11.dtd">
<svg version="1.1" id="Layer_1" xmlns="http://www.w3.org/2000/svg" xmlns:xlink="http://www.w3.org/1999/xlink" x="0px" y="0px"
	 width="72px" height="72px" viewBox="0 0 72 72" enable-background="new 0 0 72 72" xml:space="preserve">
<g>
	<g>
		<path fill="#C0C0C0" d="M10.37,23.874h-0.18c-2.314,0-4.191,1.895-4.191,4.199v18.261c0,2.305,1.877,4.197,4.191,4.197h0.18
			c2.314,0,4.195-1.893,4.195-4.197V28.073C14.565,25.768,12.669,23.874,10.37,23.874z"/>
		<path fill="#C0C0C0" d="M16.569,53.373c0,2.131,1.732,3.846,3.857,3.846h4.123v9.871c0,2.314,1.881,4.191,4.193,4.191h0.178
			c2.316,0,4.195-1.887,4.195-4.191v-9.871h5.764v9.871c0,2.314,1.893,4.191,4.197,4.191h0.174c2.314,0,4.193-1.887,4.193-4.191
			v-9.871h4.123c2.109,0,3.859-1.715,3.859-3.846V24.555H16.569V53.373z"/>
		<path fill="#C0C0C0" d="M61.804,23.874h-0.18c-2.314,0-4.193,1.895-4.193,4.199v18.261c0,2.305,1.895,4.197,4.193,4.197h0.18
			c2.314,0,4.197-1.893,4.197-4.197V28.073C66.001,25.768,64.108,23.874,61.804,23.874z"/>
	</g>
	<g>
		<path fill="#C0C0C0" d="M45.866,7.178l3.26-5.041c0.131-0.201,0.18-0.443,0.131-0.686c-0.053-0.242-0.189-0.449-0.395-0.574
			c-0.412-0.285-1.008-0.158-1.266,0.268L44.2,6.35c-0.01,0.016-0.025,0.043-0.043,0.059c-2.479-0.986-5.246-1.551-8.15-1.551
			c-2.922,0-5.688,0.564-8.174,1.551c-0.012-0.016-0.014-0.037-0.027-0.047l-3.385-5.217c-0.262-0.426-0.879-0.559-1.283-0.279
			c-0.209,0.137-0.346,0.344-0.398,0.586s-0.006,0.484,0.123,0.686l3.252,5.004c0,0.016,0.01,0.021,0.01,0.037
			c-5.779,2.922-9.682,8.311-9.682,14.486c0,0.379,0.025,0.76,0.055,1.139h39.004c0.027-0.379,0.059-0.76,0.059-1.139
			C55.56,15.489,51.651,10.1,45.866,7.178z M30.138,16.881c-1.34,0-2.43-1.086-2.43-2.426s1.09-2.42,2.43-2.42
			s2.422,1.08,2.422,2.42S31.478,16.881,30.138,16.881z M41.858,16.881c-1.34,0-2.426-1.086-2.426-2.426s1.086-2.42,2.426-2.42
			s2.426,1.08,2.426,2.42S43.198,16.881,41.858,16.881z"/>
	</g>
</g>
</svg>
