<?xml version="1.0" encoding="utf-8"?>
<!-- Generator: Adobe Illustrator 18.1.1, SVG Export Plug-In . SVG Version: 6.00 Build 0)  -->
<svg version="1.1" id="Layer_1" xmlns="http://www.w3.org/2000/svg" xmlns:xlink="http://www.w3.org/1999/xlink" x="0px" y="0px"
	 viewBox="0 0 133.7 253.7" enable-background="new 0 0 133.7 253.7" xml:space="preserve">
<g>
	<g>
		<path fill="#CCCCCC" d="M114.4,2H94c-0.9,1-2,0.9-3.1,0.9c-1.2,0-2.2,0.1-3.1-0.9H20.1C12.3,2,5.3,8.3,5.3,16.2v219.6
			c0,7.9,6.9,15.2,14.8,15.2h94.3c7.9,0,13.9-7.3,13.9-15.2V16.2C128.3,8.3,122.3,2,114.4,2z"/>
		<linearGradient id="SVGID_1_" gradientUnits="userSpaceOnUse" x1="127.3333" y1="126.5" x2="6.3333" y2="126.5">
			<stop  offset="0" style="stop-color:#B3B3B3"/>
			<stop  offset="4.438920e-02" style="stop-color:#000000"/>
			<stop  offset="5.313480e-02" style="stop-color:#B3B3B3"/>
			<stop  offset="0.1394" style="stop-color:#F2F2F2"/>
			<stop  offset="0.832" style="stop-color:#FFFFFF"/>
			<stop  offset="0.9184" style="stop-color:#CCCCCC"/>
			<stop  offset="0.9435" style="stop-color:#999999"/>
			<stop  offset="0.9807" style="stop-color:#000000"/>
			<stop  offset="1" style="stop-color:#CCCCCC"/>
		</linearGradient>
		<path fill="url(#SVGID_1_)" d="M127.3,236.7c0,7.4-6,13.3-13.3,13.3H19.7c-7.4,0-13.3-6-13.3-13.3V16.3C6.3,9,12.3,3,19.7,3H114
			c7.4,0,13.3,6,13.3,13.3V236.7z"/>
		<linearGradient id="SVGID_2_" gradientUnits="userSpaceOnUse" x1="8.3333" y1="127" x2="126.3333" y2="127">
			<stop  offset="0" style="stop-color:#F2F2F2"/>
			<stop  offset="1" style="stop-color:#CCCCCC"/>
		</linearGradient>
		<path fill="url(#SVGID_2_)" d="M126.3,236.8c0,6.8-5.2,12.2-11.7,12.2H20.1c-6.5,0-11.7-5.5-11.7-12.2V17.2
			C8.3,10.5,13.6,5,20.1,5h94.6c6.5,0,11.7,5.5,11.7,12.2V236.8z"/>
		<rect x="6.3" y="21" width="121" height="211"/>
		<rect x="6.3" y="21" width="2" height="211"/>
		<rect x="126.3" y="21" fill="#4D4D4D" width="1" height="211"/>
		<rect x="14.3" y="26" fill="#FFFFFF" width="106" height="190"/>
		<radialGradient id="SVGID_3_" cx="111.6663" cy="14.3398" r="3.993" gradientUnits="userSpaceOnUse">
			<stop  offset="0" style="stop-color:#333333"/>
			<stop  offset="1" style="stop-color:#000000"/>
		</radialGradient>
		<circle fill="url(#SVGID_3_)" cx="111.7" cy="14.3" r="4"/>
		<circle cx="27.4" cy="15.3" r="1.4"/>
		<circle cx="22.8" cy="15.3" r="1.4"/>
		<g>
			<g>
				<circle fill="#4D4D4D" cx="33.8" cy="12.2" r="0.4"/>
				<circle fill="#4D4D4D" cx="33.8" cy="13.7" r="0.4"/>
				<circle fill="#4D4D4D" cx="33.8" cy="14.9" r="0.4"/>
				<circle fill="#4D4D4D" cx="33.8" cy="16.4" r="0.4"/>
			</g>
			<g>
				<circle fill="#4D4D4D" cx="35.3" cy="12.2" r="0.4"/>
				<circle fill="#4D4D4D" cx="35.3" cy="13.7" r="0.4"/>
				<circle fill="#4D4D4D" cx="35.3" cy="14.9" r="0.4"/>
				<circle fill="#4D4D4D" cx="35.3" cy="16.4" r="0.4"/>
			</g>
			<g>
				<circle fill="#4D4D4D" cx="36.8" cy="12.2" r="0.4"/>
				<circle fill="#4D4D4D" cx="36.8" cy="13.7" r="0.4"/>
				<circle fill="#4D4D4D" cx="36.8" cy="14.9" r="0.4"/>
				<circle fill="#4D4D4D" cx="36.8" cy="16.4" r="0.4"/>
			</g>
			<g>
				<circle fill="#4D4D4D" cx="38" cy="12.2" r="0.4"/>
				<circle fill="#4D4D4D" cx="38" cy="13.7" r="0.4"/>
				<circle fill="#4D4D4D" cx="38" cy="14.9" r="0.4"/>
				<circle fill="#4D4D4D" cx="38" cy="16.4" r="0.4"/>
			</g>
			<g>
				<circle fill="#4D4D4D" cx="39.5" cy="12.2" r="0.4"/>
				<circle fill="#4D4D4D" cx="39.5" cy="13.7" r="0.4"/>
				<circle fill="#4D4D4D" cx="39.5" cy="14.9" r="0.4"/>
				<circle fill="#4D4D4D" cx="39.5" cy="16.4" r="0.4"/>
			</g>
			<g>
				<circle fill="#4D4D4D" cx="41" cy="12.2" r="0.4"/>
				<circle fill="#4D4D4D" cx="41" cy="13.7" r="0.4"/>
				<circle fill="#4D4D4D" cx="41" cy="14.9" r="0.4"/>
				<circle fill="#4D4D4D" cx="41" cy="16.4" r="0.4"/>
			</g>
			<g>
				<circle fill="#4D4D4D" cx="42.6" cy="12.2" r="0.4"/>
				<circle fill="#4D4D4D" cx="42.6" cy="13.7" r="0.4"/>
				<circle fill="#4D4D4D" cx="42.6" cy="14.9" r="0.4"/>
				<circle fill="#4D4D4D" cx="42.6" cy="16.4" r="0.4"/>
			</g>
			<g>
				<circle fill="#4D4D4D" cx="43.8" cy="12.2" r="0.4"/>
				<circle fill="#4D4D4D" cx="43.8" cy="13.7" r="0.4"/>
				<circle fill="#4D4D4D" cx="43.8" cy="14.9" r="0.4"/>
				<circle fill="#4D4D4D" cx="43.8" cy="16.4" r="0.4"/>
			</g>
			<g>
				<circle fill="#4D4D4D" cx="45.3" cy="12.2" r="0.4"/>
				<circle fill="#4D4D4D" cx="45.3" cy="13.7" r="0.4"/>
				<circle fill="#4D4D4D" cx="45.3" cy="14.9" r="0.4"/>
				<circle fill="#4D4D4D" cx="45.3" cy="16.4" r="0.4"/>
			</g>
			<g>
				<circle fill="#4D4D4D" cx="46.8" cy="12.2" r="0.4"/>
				<circle fill="#4D4D4D" cx="46.8" cy="13.7" r="0.4"/>
				<circle fill="#4D4D4D" cx="46.8" cy="14.9" r="0.4"/>
				<circle fill="#4D4D4D" cx="46.8" cy="16.4" r="0.4"/>
			</g>
			<g>
				<circle fill="#4D4D4D" cx="48.3" cy="12.2" r="0.4"/>
				<circle fill="#4D4D4D" cx="48.3" cy="13.7" r="0.4"/>
				<circle fill="#4D4D4D" cx="48.3" cy="14.9" r="0.4"/>
				<circle fill="#4D4D4D" cx="48.3" cy="16.4" r="0.4"/>
			</g>
			<g>
				<circle fill="#4D4D4D" cx="49.6" cy="12.2" r="0.4"/>
				<circle fill="#4D4D4D" cx="49.6" cy="13.7" r="0.4"/>
				<circle fill="#4D4D4D" cx="49.6" cy="14.9" r="0.4"/>
				<circle fill="#4D4D4D" cx="49.6" cy="16.4" r="0.4"/>
			</g>
			<g>
				<circle fill="#4D4D4D" cx="51" cy="12.2" r="0.4"/>
				<circle fill="#4D4D4D" cx="51" cy="13.7" r="0.4"/>
				<circle fill="#4D4D4D" cx="51" cy="14.9" r="0.4"/>
				<circle fill="#4D4D4D" cx="51" cy="16.4" r="0.4"/>
			</g>
			<g>
				<circle fill="#4D4D4D" cx="52.6" cy="12.2" r="0.4"/>
				<circle fill="#4D4D4D" cx="52.6" cy="13.7" r="0.4"/>
				<circle fill="#4D4D4D" cx="52.6" cy="14.9" r="0.4"/>
				<circle fill="#4D4D4D" cx="52.6" cy="16.4" r="0.4"/>
			</g>
			<g>
				<circle fill="#4D4D4D" cx="54.1" cy="12.2" r="0.4"/>
				<circle fill="#4D4D4D" cx="54.1" cy="13.7" r="0.4"/>
				<circle fill="#4D4D4D" cx="54.1" cy="14.9" r="0.4"/>
				<circle fill="#4D4D4D" cx="54.1" cy="16.4" r="0.4"/>
			</g>
			<g>
				<circle fill="#4D4D4D" cx="55.3" cy="12.2" r="0.4"/>
				<circle fill="#4D4D4D" cx="55.3" cy="13.7" r="0.4"/>
				<circle fill="#4D4D4D" cx="55.3" cy="14.9" r="0.4"/>
				<circle fill="#4D4D4D" cx="55.3" cy="16.4" r="0.4"/>
			</g>
			<g>
				<circle fill="#4D4D4D" cx="56.8" cy="12.2" r="0.4"/>
				<circle fill="#4D4D4D" cx="56.8" cy="13.7" r="0.4"/>
				<circle fill="#4D4D4D" cx="56.8" cy="14.9" r="0.4"/>
				<circle fill="#4D4D4D" cx="56.8" cy="16.4" r="0.4"/>
			</g>
			<g>
				<circle fill="#4D4D4D" cx="58.3" cy="12.2" r="0.4"/>
				<circle fill="#4D4D4D" cx="58.3" cy="13.7" r="0.4"/>
				<circle fill="#4D4D4D" cx="58.3" cy="14.9" r="0.4"/>
				<circle fill="#4D4D4D" cx="58.3" cy="16.4" r="0.4"/>
			</g>
			<g>
				<circle fill="#4D4D4D" cx="59.8" cy="12.2" r="0.4"/>
				<circle fill="#4D4D4D" cx="59.8" cy="13.7" r="0.4"/>
				<circle fill="#4D4D4D" cx="59.8" cy="14.9" r="0.4"/>
				<circle fill="#4D4D4D" cx="59.8" cy="16.4" r="0.4"/>
			</g>
			<g>
				<circle fill="#4D4D4D" cx="61.1" cy="12.2" r="0.4"/>
				<circle fill="#4D4D4D" cx="61.1" cy="13.7" r="0.4"/>
				<circle fill="#4D4D4D" cx="61.1" cy="14.9" r="0.4"/>
				<circle fill="#4D4D4D" cx="61.1" cy="16.4" r="0.4"/>
			</g>
			<g>
				<circle fill="#4D4D4D" cx="62.6" cy="12.2" r="0.4"/>
				<circle fill="#4D4D4D" cx="62.6" cy="13.7" r="0.4"/>
				<circle fill="#4D4D4D" cx="62.6" cy="14.9" r="0.4"/>
				<circle fill="#4D4D4D" cx="62.6" cy="16.4" r="0.4"/>
			</g>
			<g>
				<circle fill="#4D4D4D" cx="64.1" cy="12.2" r="0.4"/>
				<circle fill="#4D4D4D" cx="64.1" cy="13.7" r="0.4"/>
				<circle fill="#4D4D4D" cx="64.1" cy="14.9" r="0.4"/>
				<circle fill="#4D4D4D" cx="64.1" cy="16.4" r="0.4"/>
			</g>
			<g>
				<circle fill="#4D4D4D" cx="65.6" cy="12.2" r="0.4"/>
				<circle fill="#4D4D4D" cx="65.6" cy="13.7" r="0.4"/>
				<circle fill="#4D4D4D" cx="65.6" cy="14.9" r="0.4"/>
				<circle fill="#4D4D4D" cx="65.6" cy="16.4" r="0.4"/>
			</g>
			<g>
				<circle fill="#4D4D4D" cx="66.9" cy="12.2" r="0.4"/>
				<circle fill="#4D4D4D" cx="66.9" cy="13.7" r="0.4"/>
				<circle fill="#4D4D4D" cx="66.9" cy="14.9" r="0.4"/>
				<circle fill="#4D4D4D" cx="66.9" cy="16.4" r="0.4"/>
			</g>
			<g>
				<circle fill="#4D4D4D" cx="68.3" cy="12.2" r="0.4"/>
				<circle fill="#4D4D4D" cx="68.3" cy="13.7" r="0.4"/>
				<circle fill="#4D4D4D" cx="68.3" cy="14.9" r="0.4"/>
				<circle fill="#4D4D4D" cx="68.3" cy="16.4" r="0.4"/>
			</g>
			<g>
				<circle fill="#4D4D4D" cx="69.9" cy="12.2" r="0.4"/>
				<circle fill="#4D4D4D" cx="69.9" cy="13.7" r="0.4"/>
				<circle fill="#4D4D4D" cx="69.9" cy="14.9" r="0.4"/>
				<circle fill="#4D4D4D" cx="69.9" cy="16.4" r="0.4"/>
			</g>
			<g>
				<circle fill="#4D4D4D" cx="71.4" cy="12.2" r="0.4"/>
				<circle fill="#4D4D4D" cx="71.4" cy="13.7" r="0.4"/>
				<circle fill="#4D4D4D" cx="71.4" cy="14.9" r="0.4"/>
				<circle fill="#4D4D4D" cx="71.4" cy="16.4" r="0.4"/>
			</g>
			<g>
				<circle fill="#4D4D4D" cx="72.6" cy="12.2" r="0.4"/>
				<circle fill="#4D4D4D" cx="72.6" cy="13.7" r="0.4"/>
				<circle fill="#4D4D4D" cx="72.6" cy="14.9" r="0.4"/>
				<circle fill="#4D4D4D" cx="72.6" cy="16.4" r="0.4"/>
			</g>
			<g>
				<circle fill="#4D4D4D" cx="74.1" cy="12.2" r="0.4"/>
				<circle fill="#4D4D4D" cx="74.1" cy="13.7" r="0.4"/>
				<circle fill="#4D4D4D" cx="74.1" cy="14.9" r="0.4"/>
				<circle fill="#4D4D4D" cx="74.1" cy="16.4" r="0.4"/>
			</g>
			<g>
				<circle fill="#4D4D4D" cx="75.6" cy="12.2" r="0.4"/>
				<circle fill="#4D4D4D" cx="75.6" cy="13.7" r="0.4"/>
				<circle fill="#4D4D4D" cx="75.6" cy="14.9" r="0.4"/>
				<circle fill="#4D4D4D" cx="75.6" cy="16.4" r="0.4"/>
			</g>
			<g>
				<circle fill="#4D4D4D" cx="77.1" cy="12.2" r="0.4"/>
				<circle fill="#4D4D4D" cx="77.1" cy="13.7" r="0.4"/>
				<circle fill="#4D4D4D" cx="77.1" cy="14.9" r="0.4"/>
				<circle fill="#4D4D4D" cx="77.1" cy="16.4" r="0.4"/>
			</g>
			<g>
				<circle fill="#4D4D4D" cx="78.4" cy="12.2" r="0.4"/>
				<circle fill="#4D4D4D" cx="78.4" cy="13.7" r="0.4"/>
				<circle fill="#4D4D4D" cx="78.4" cy="14.9" r="0.4"/>
				<circle fill="#4D4D4D" cx="78.4" cy="16.4" r="0.4"/>
			</g>
			<g>
				<circle fill="#4D4D4D" cx="79.9" cy="12.2" r="0.4"/>
				<circle fill="#4D4D4D" cx="79.9" cy="13.7" r="0.4"/>
				<circle fill="#4D4D4D" cx="79.9" cy="14.9" r="0.4"/>
				<circle fill="#4D4D4D" cx="79.9" cy="16.4" r="0.4"/>
			</g>
			<g>
				<circle fill="#4D4D4D" cx="81.4" cy="12.2" r="0.4"/>
				<circle fill="#4D4D4D" cx="81.4" cy="13.7" r="0.4"/>
				<circle fill="#4D4D4D" cx="81.4" cy="14.9" r="0.4"/>
				<circle fill="#4D4D4D" cx="81.4" cy="16.4" r="0.4"/>
			</g>
			<g>
				<circle fill="#4D4D4D" cx="82.9" cy="12.2" r="0.4"/>
				<circle fill="#4D4D4D" cx="82.9" cy="13.7" r="0.4"/>
				<circle fill="#4D4D4D" cx="82.9" cy="14.9" r="0.4"/>
				<circle fill="#4D4D4D" cx="82.9" cy="16.4" r="0.4"/>
			</g>
			<g>
				<circle fill="#4D4D4D" cx="84.2" cy="12.2" r="0.4"/>
				<circle fill="#4D4D4D" cx="84.2" cy="13.7" r="0.4"/>
				<circle fill="#4D4D4D" cx="84.2" cy="14.9" r="0.4"/>
				<circle fill="#4D4D4D" cx="84.2" cy="16.4" r="0.4"/>
			</g>
			<g>
				<circle fill="#4D4D4D" cx="85.6" cy="12.2" r="0.4"/>
				<circle fill="#4D4D4D" cx="85.6" cy="13.7" r="0.4"/>
				<circle fill="#4D4D4D" cx="85.6" cy="14.9" r="0.4"/>
				<circle fill="#4D4D4D" cx="85.6" cy="16.4" r="0.4"/>
			</g>
			<g>
				<circle fill="#4D4D4D" cx="87.1" cy="12.2" r="0.4"/>
				<circle fill="#4D4D4D" cx="87.1" cy="13.7" r="0.4"/>
				<circle fill="#4D4D4D" cx="87.1" cy="14.9" r="0.4"/>
				<circle fill="#4D4D4D" cx="87.1" cy="16.4" r="0.4"/>
			</g>
			<g>
				<circle fill="#4D4D4D" cx="88.7" cy="12.2" r="0.4"/>
				<circle fill="#4D4D4D" cx="88.7" cy="13.7" r="0.4"/>
				<circle fill="#4D4D4D" cx="88.7" cy="14.9" r="0.4"/>
				<circle fill="#4D4D4D" cx="88.7" cy="16.4" r="0.4"/>
			</g>
			<g>
				<circle fill="#4D4D4D" cx="89.9" cy="12.2" r="0.4"/>
				<circle fill="#4D4D4D" cx="89.9" cy="13.7" r="0.4"/>
				<circle fill="#4D4D4D" cx="89.9" cy="14.9" r="0.4"/>
				<circle fill="#4D4D4D" cx="89.9" cy="16.4" r="0.4"/>
			</g>
			<g>
				<circle fill="#4D4D4D" cx="91.4" cy="12.2" r="0.4"/>
				<circle fill="#4D4D4D" cx="91.4" cy="13.7" r="0.4"/>
				<circle fill="#4D4D4D" cx="91.4" cy="14.9" r="0.4"/>
				<circle fill="#4D4D4D" cx="91.4" cy="16.4" r="0.4"/>
			</g>
			<g>
				<circle fill="#4D4D4D" cx="92.9" cy="12.2" r="0.4"/>
				<circle fill="#4D4D4D" cx="92.9" cy="13.7" r="0.4"/>
				<circle fill="#4D4D4D" cx="92.9" cy="14.9" r="0.4"/>
				<circle fill="#4D4D4D" cx="92.9" cy="16.4" r="0.4"/>
			</g>
			<g>
				<circle fill="#4D4D4D" cx="94.4" cy="12.2" r="0.4"/>
				<circle fill="#4D4D4D" cx="94.4" cy="13.7" r="0.4"/>
				<circle fill="#4D4D4D" cx="94.4" cy="14.9" r="0.4"/>
				<circle fill="#4D4D4D" cx="94.4" cy="16.4" r="0.4"/>
			</g>
			<g>
				<circle fill="#4D4D4D" cx="95.7" cy="12.2" r="0.4"/>
				<circle fill="#4D4D4D" cx="95.7" cy="13.7" r="0.4"/>
				<circle fill="#4D4D4D" cx="95.7" cy="14.9" r="0.4"/>
				<circle fill="#4D4D4D" cx="95.7" cy="16.4" r="0.4"/>
			</g>
			<g>
				<circle fill="#4D4D4D" cx="97.1" cy="12.2" r="0.4"/>
				<circle fill="#4D4D4D" cx="97.1" cy="13.7" r="0.4"/>
				<circle fill="#4D4D4D" cx="97.1" cy="14.9" r="0.4"/>
				<circle fill="#4D4D4D" cx="97.1" cy="16.4" r="0.4"/>
			</g>
			<g>
				<circle fill="#4D4D4D" cx="98.7" cy="12.2" r="0.4"/>
				<circle fill="#4D4D4D" cx="98.7" cy="13.7" r="0.4"/>
				<circle fill="#4D4D4D" cx="98.7" cy="14.9" r="0.4"/>
				<circle fill="#4D4D4D" cx="98.7" cy="16.4" r="0.4"/>
			</g>
			<g>
				<circle fill="#4D4D4D" cx="100.2" cy="12.2" r="0.4"/>
				<circle fill="#4D4D4D" cx="100.2" cy="13.7" r="0.4"/>
				<circle fill="#4D4D4D" cx="100.2" cy="14.9" r="0.4"/>
				<circle fill="#4D4D4D" cx="100.2" cy="16.4" r="0.4"/>
			</g>
			<g>
				<circle fill="#4D4D4D" cx="101.5" cy="12.2" r="0.4"/>
				<circle fill="#4D4D4D" cx="101.5" cy="13.7" r="0.4"/>
				<circle fill="#4D4D4D" cx="101.5" cy="14.9" r="0.4"/>
				<circle fill="#4D4D4D" cx="101.5" cy="16.4" r="0.4"/>
			</g>
			<g>
				<circle fill="#4D4D4D" cx="102.9" cy="12.2" r="0.4"/>
				<circle fill="#4D4D4D" cx="102.9" cy="13.7" r="0.4"/>
				<circle fill="#4D4D4D" cx="102.9" cy="14.9" r="0.4"/>
				<circle fill="#4D4D4D" cx="102.9" cy="16.4" r="0.4"/>
			</g>
		</g>
		<g>
			<g>
				<circle fill="#4D4D4D" cx="33.8" cy="235.7" r="0.4"/>
				<circle fill="#4D4D4D" cx="33.8" cy="237.2" r="0.4"/>
				<circle fill="#4D4D4D" cx="33.8" cy="238.4" r="0.4"/>
				<circle fill="#4D4D4D" cx="33.8" cy="240" r="0.4"/>
			</g>
			<g>
				<circle fill="#4D4D4D" cx="35.3" cy="235.7" r="0.4"/>
				<circle fill="#4D4D4D" cx="35.3" cy="237.2" r="0.4"/>
				<circle fill="#4D4D4D" cx="35.3" cy="238.4" r="0.4"/>
				<circle fill="#4D4D4D" cx="35.3" cy="240" r="0.4"/>
			</g>
			<g>
				<circle fill="#4D4D4D" cx="36.8" cy="235.7" r="0.4"/>
				<circle fill="#4D4D4D" cx="36.8" cy="237.2" r="0.4"/>
				<circle fill="#4D4D4D" cx="36.8" cy="238.4" r="0.4"/>
				<circle fill="#4D4D4D" cx="36.8" cy="240" r="0.4"/>
			</g>
			<g>
				<circle fill="#4D4D4D" cx="38" cy="235.7" r="0.4"/>
				<circle fill="#4D4D4D" cx="38" cy="237.2" r="0.4"/>
				<circle fill="#4D4D4D" cx="38" cy="238.4" r="0.4"/>
				<circle fill="#4D4D4D" cx="38" cy="240" r="0.4"/>
			</g>
			<g>
				<circle fill="#4D4D4D" cx="39.5" cy="235.7" r="0.4"/>
				<circle fill="#4D4D4D" cx="39.5" cy="237.2" r="0.4"/>
				<circle fill="#4D4D4D" cx="39.5" cy="238.4" r="0.4"/>
				<circle fill="#4D4D4D" cx="39.5" cy="240" r="0.4"/>
			</g>
			<g>
				<circle fill="#4D4D4D" cx="41" cy="235.7" r="0.4"/>
				<circle fill="#4D4D4D" cx="41" cy="237.2" r="0.4"/>
				<circle fill="#4D4D4D" cx="41" cy="238.4" r="0.4"/>
				<circle fill="#4D4D4D" cx="41" cy="240" r="0.4"/>
			</g>
			<g>
				<circle fill="#4D4D4D" cx="42.6" cy="235.7" r="0.4"/>
				<circle fill="#4D4D4D" cx="42.6" cy="237.2" r="0.4"/>
				<circle fill="#4D4D4D" cx="42.6" cy="238.4" r="0.4"/>
				<circle fill="#4D4D4D" cx="42.6" cy="240" r="0.4"/>
			</g>
			<g>
				<circle fill="#4D4D4D" cx="43.8" cy="235.7" r="0.4"/>
				<circle fill="#4D4D4D" cx="43.8" cy="237.2" r="0.4"/>
				<circle fill="#4D4D4D" cx="43.8" cy="238.4" r="0.4"/>
				<circle fill="#4D4D4D" cx="43.8" cy="240" r="0.4"/>
			</g>
			<g>
				<circle fill="#4D4D4D" cx="45.3" cy="235.7" r="0.4"/>
				<circle fill="#4D4D4D" cx="45.3" cy="237.2" r="0.4"/>
				<circle fill="#4D4D4D" cx="45.3" cy="238.4" r="0.4"/>
				<circle fill="#4D4D4D" cx="45.3" cy="240" r="0.4"/>
			</g>
			<g>
				<circle fill="#4D4D4D" cx="46.8" cy="235.7" r="0.4"/>
				<circle fill="#4D4D4D" cx="46.8" cy="237.2" r="0.4"/>
				<circle fill="#4D4D4D" cx="46.8" cy="238.4" r="0.4"/>
				<circle fill="#4D4D4D" cx="46.8" cy="240" r="0.4"/>
			</g>
			<g>
				<circle fill="#4D4D4D" cx="48.3" cy="235.7" r="0.4"/>
				<circle fill="#4D4D4D" cx="48.3" cy="237.2" r="0.4"/>
				<circle fill="#4D4D4D" cx="48.3" cy="238.4" r="0.4"/>
				<circle fill="#4D4D4D" cx="48.3" cy="240" r="0.4"/>
			</g>
			<g>
				<circle fill="#4D4D4D" cx="49.6" cy="235.7" r="0.4"/>
				<circle fill="#4D4D4D" cx="49.6" cy="237.2" r="0.4"/>
				<circle fill="#4D4D4D" cx="49.6" cy="238.4" r="0.4"/>
				<circle fill="#4D4D4D" cx="49.6" cy="240" r="0.4"/>
			</g>
			<g>
				<circle fill="#4D4D4D" cx="51" cy="235.7" r="0.4"/>
				<circle fill="#4D4D4D" cx="51" cy="237.2" r="0.4"/>
				<circle fill="#4D4D4D" cx="51" cy="238.4" r="0.4"/>
				<circle fill="#4D4D4D" cx="51" cy="240" r="0.4"/>
			</g>
			<g>
				<circle fill="#4D4D4D" cx="52.6" cy="235.7" r="0.4"/>
				<circle fill="#4D4D4D" cx="52.6" cy="237.2" r="0.4"/>
				<circle fill="#4D4D4D" cx="52.6" cy="238.4" r="0.4"/>
				<circle fill="#4D4D4D" cx="52.6" cy="240" r="0.4"/>
			</g>
			<g>
				<circle fill="#4D4D4D" cx="54.1" cy="235.7" r="0.4"/>
				<circle fill="#4D4D4D" cx="54.1" cy="237.2" r="0.4"/>
				<circle fill="#4D4D4D" cx="54.1" cy="238.4" r="0.4"/>
				<circle fill="#4D4D4D" cx="54.1" cy="240" r="0.4"/>
			</g>
			<g>
				<circle fill="#4D4D4D" cx="55.3" cy="235.7" r="0.4"/>
				<circle fill="#4D4D4D" cx="55.3" cy="237.2" r="0.4"/>
				<circle fill="#4D4D4D" cx="55.3" cy="238.4" r="0.4"/>
				<circle fill="#4D4D4D" cx="55.3" cy="240" r="0.4"/>
			</g>
			<g>
				<circle fill="#4D4D4D" cx="56.8" cy="235.7" r="0.4"/>
				<circle fill="#4D4D4D" cx="56.8" cy="237.2" r="0.4"/>
				<circle fill="#4D4D4D" cx="56.8" cy="238.4" r="0.4"/>
				<circle fill="#4D4D4D" cx="56.8" cy="240" r="0.4"/>
			</g>
			<g>
				<circle fill="#4D4D4D" cx="58.3" cy="235.7" r="0.4"/>
				<circle fill="#4D4D4D" cx="58.3" cy="237.2" r="0.4"/>
				<circle fill="#4D4D4D" cx="58.3" cy="238.4" r="0.4"/>
				<circle fill="#4D4D4D" cx="58.3" cy="240" r="0.4"/>
			</g>
			<g>
				<circle fill="#4D4D4D" cx="59.8" cy="235.7" r="0.4"/>
				<circle fill="#4D4D4D" cx="59.8" cy="237.2" r="0.4"/>
				<circle fill="#4D4D4D" cx="59.8" cy="238.4" r="0.4"/>
				<circle fill="#4D4D4D" cx="59.8" cy="240" r="0.4"/>
			</g>
			<g>
				<circle fill="#4D4D4D" cx="61.1" cy="235.7" r="0.4"/>
				<circle fill="#4D4D4D" cx="61.1" cy="237.2" r="0.4"/>
				<circle fill="#4D4D4D" cx="61.1" cy="238.4" r="0.4"/>
				<circle fill="#4D4D4D" cx="61.1" cy="240" r="0.4"/>
			</g>
			<g>
				<circle fill="#4D4D4D" cx="62.6" cy="235.7" r="0.4"/>
				<circle fill="#4D4D4D" cx="62.6" cy="237.2" r="0.4"/>
				<circle fill="#4D4D4D" cx="62.6" cy="238.4" r="0.4"/>
				<circle fill="#4D4D4D" cx="62.6" cy="240" r="0.4"/>
			</g>
			<g>
				<circle fill="#4D4D4D" cx="64.1" cy="235.7" r="0.4"/>
				<circle fill="#4D4D4D" cx="64.1" cy="237.2" r="0.4"/>
				<circle fill="#4D4D4D" cx="64.1" cy="238.4" r="0.4"/>
				<circle fill="#4D4D4D" cx="64.1" cy="240" r="0.4"/>
			</g>
			<g>
				<circle fill="#4D4D4D" cx="65.6" cy="235.7" r="0.4"/>
				<circle fill="#4D4D4D" cx="65.6" cy="237.2" r="0.4"/>
				<circle fill="#4D4D4D" cx="65.6" cy="238.4" r="0.4"/>
				<circle fill="#4D4D4D" cx="65.6" cy="240" r="0.4"/>
			</g>
			<g>
				<circle fill="#4D4D4D" cx="66.9" cy="235.7" r="0.4"/>
				<circle fill="#4D4D4D" cx="66.9" cy="237.2" r="0.4"/>
				<circle fill="#4D4D4D" cx="66.9" cy="238.4" r="0.4"/>
				<circle fill="#4D4D4D" cx="66.9" cy="240" r="0.4"/>
			</g>
			<g>
				<circle fill="#4D4D4D" cx="68.3" cy="235.7" r="0.4"/>
				<circle fill="#4D4D4D" cx="68.3" cy="237.2" r="0.4"/>
				<circle fill="#4D4D4D" cx="68.3" cy="238.4" r="0.4"/>
				<circle fill="#4D4D4D" cx="68.3" cy="240" r="0.4"/>
			</g>
			<g>
				<circle fill="#4D4D4D" cx="69.9" cy="235.7" r="0.4"/>
				<circle fill="#4D4D4D" cx="69.9" cy="237.2" r="0.4"/>
				<circle fill="#4D4D4D" cx="69.9" cy="238.4" r="0.4"/>
				<circle fill="#4D4D4D" cx="69.9" cy="240" r="0.4"/>
			</g>
			<g>
				<circle fill="#4D4D4D" cx="71.4" cy="235.7" r="0.4"/>
				<circle fill="#4D4D4D" cx="71.4" cy="237.2" r="0.4"/>
				<circle fill="#4D4D4D" cx="71.4" cy="238.4" r="0.4"/>
				<circle fill="#4D4D4D" cx="71.4" cy="240" r="0.4"/>
			</g>
			<g>
				<circle fill="#4D4D4D" cx="72.6" cy="235.7" r="0.4"/>
				<circle fill="#4D4D4D" cx="72.6" cy="237.2" r="0.4"/>
				<circle fill="#4D4D4D" cx="72.6" cy="238.4" r="0.4"/>
				<circle fill="#4D4D4D" cx="72.6" cy="240" r="0.4"/>
			</g>
			<g>
				<circle fill="#4D4D4D" cx="74.1" cy="235.7" r="0.4"/>
				<circle fill="#4D4D4D" cx="74.1" cy="237.2" r="0.4"/>
				<circle fill="#4D4D4D" cx="74.1" cy="238.4" r="0.4"/>
				<circle fill="#4D4D4D" cx="74.1" cy="240" r="0.4"/>
			</g>
			<g>
				<circle fill="#4D4D4D" cx="75.6" cy="235.7" r="0.4"/>
				<circle fill="#4D4D4D" cx="75.6" cy="237.2" r="0.4"/>
				<circle fill="#4D4D4D" cx="75.6" cy="238.4" r="0.4"/>
				<circle fill="#4D4D4D" cx="75.6" cy="240" r="0.4"/>
			</g>
			<g>
				<circle fill="#4D4D4D" cx="77.1" cy="235.7" r="0.4"/>
				<circle fill="#4D4D4D" cx="77.1" cy="237.2" r="0.4"/>
				<circle fill="#4D4D4D" cx="77.1" cy="238.4" r="0.4"/>
				<circle fill="#4D4D4D" cx="77.1" cy="240" r="0.4"/>
			</g>
			<g>
				<circle fill="#4D4D4D" cx="78.4" cy="235.7" r="0.4"/>
				<circle fill="#4D4D4D" cx="78.4" cy="237.2" r="0.4"/>
				<circle fill="#4D4D4D" cx="78.4" cy="238.4" r="0.4"/>
				<circle fill="#4D4D4D" cx="78.4" cy="240" r="0.4"/>
			</g>
			<g>
				<circle fill="#4D4D4D" cx="79.9" cy="235.7" r="0.4"/>
				<circle fill="#4D4D4D" cx="79.9" cy="237.2" r="0.4"/>
				<circle fill="#4D4D4D" cx="79.9" cy="238.4" r="0.4"/>
				<circle fill="#4D4D4D" cx="79.9" cy="240" r="0.4"/>
			</g>
			<g>
				<circle fill="#4D4D4D" cx="81.4" cy="235.7" r="0.4"/>
				<circle fill="#4D4D4D" cx="81.4" cy="237.2" r="0.4"/>
				<circle fill="#4D4D4D" cx="81.4" cy="238.4" r="0.4"/>
				<circle fill="#4D4D4D" cx="81.4" cy="240" r="0.4"/>
			</g>
			<g>
				<circle fill="#4D4D4D" cx="82.9" cy="235.7" r="0.4"/>
				<circle fill="#4D4D4D" cx="82.9" cy="237.2" r="0.4"/>
				<circle fill="#4D4D4D" cx="82.9" cy="238.4" r="0.4"/>
				<circle fill="#4D4D4D" cx="82.9" cy="240" r="0.4"/>
			</g>
			<g>
				<circle fill="#4D4D4D" cx="84.2" cy="235.7" r="0.4"/>
				<circle fill="#4D4D4D" cx="84.2" cy="237.2" r="0.4"/>
				<circle fill="#4D4D4D" cx="84.2" cy="238.4" r="0.4"/>
				<circle fill="#4D4D4D" cx="84.2" cy="240" r="0.4"/>
			</g>
			<g>
				<circle fill="#4D4D4D" cx="85.6" cy="235.7" r="0.4"/>
				<circle fill="#4D4D4D" cx="85.6" cy="237.2" r="0.4"/>
				<circle fill="#4D4D4D" cx="85.6" cy="238.4" r="0.4"/>
				<circle fill="#4D4D4D" cx="85.6" cy="240" r="0.4"/>
			</g>
			<g>
				<circle fill="#4D4D4D" cx="87.1" cy="235.7" r="0.4"/>
				<circle fill="#4D4D4D" cx="87.1" cy="237.2" r="0.4"/>
				<circle fill="#4D4D4D" cx="87.1" cy="238.4" r="0.4"/>
				<circle fill="#4D4D4D" cx="87.1" cy="240" r="0.4"/>
			</g>
			<g>
				<circle fill="#4D4D4D" cx="88.7" cy="235.7" r="0.4"/>
				<circle fill="#4D4D4D" cx="88.7" cy="237.2" r="0.4"/>
				<circle fill="#4D4D4D" cx="88.7" cy="238.4" r="0.4"/>
				<circle fill="#4D4D4D" cx="88.7" cy="240" r="0.4"/>
			</g>
			<g>
				<circle fill="#4D4D4D" cx="89.9" cy="235.7" r="0.4"/>
				<circle fill="#4D4D4D" cx="89.9" cy="237.2" r="0.4"/>
				<circle fill="#4D4D4D" cx="89.9" cy="238.4" r="0.4"/>
				<circle fill="#4D4D4D" cx="89.9" cy="240" r="0.4"/>
			</g>
			<g>
				<circle fill="#4D4D4D" cx="91.4" cy="235.7" r="0.4"/>
				<circle fill="#4D4D4D" cx="91.4" cy="237.2" r="0.4"/>
				<circle fill="#4D4D4D" cx="91.4" cy="238.4" r="0.4"/>
				<circle fill="#4D4D4D" cx="91.4" cy="240" r="0.4"/>
			</g>
			<g>
				<circle fill="#4D4D4D" cx="92.9" cy="235.7" r="0.4"/>
				<circle fill="#4D4D4D" cx="92.9" cy="237.2" r="0.4"/>
				<circle fill="#4D4D4D" cx="92.9" cy="238.4" r="0.4"/>
				<circle fill="#4D4D4D" cx="92.9" cy="240" r="0.4"/>
			</g>
			<g>
				<circle fill="#4D4D4D" cx="94.4" cy="235.7" r="0.4"/>
				<circle fill="#4D4D4D" cx="94.4" cy="237.2" r="0.4"/>
				<circle fill="#4D4D4D" cx="94.4" cy="238.4" r="0.4"/>
				<circle fill="#4D4D4D" cx="94.4" cy="240" r="0.4"/>
			</g>
			<g>
				<circle fill="#4D4D4D" cx="95.7" cy="235.7" r="0.4"/>
				<circle fill="#4D4D4D" cx="95.7" cy="237.2" r="0.4"/>
				<circle fill="#4D4D4D" cx="95.7" cy="238.4" r="0.4"/>
				<circle fill="#4D4D4D" cx="95.7" cy="240" r="0.4"/>
			</g>
			<g>
				<circle fill="#4D4D4D" cx="97.1" cy="235.7" r="0.4"/>
				<circle fill="#4D4D4D" cx="97.1" cy="237.2" r="0.4"/>
				<circle fill="#4D4D4D" cx="97.1" cy="238.4" r="0.4"/>
				<circle fill="#4D4D4D" cx="97.1" cy="240" r="0.4"/>
			</g>
			<g>
				<circle fill="#4D4D4D" cx="98.7" cy="235.7" r="0.4"/>
				<circle fill="#4D4D4D" cx="98.7" cy="237.2" r="0.4"/>
				<circle fill="#4D4D4D" cx="98.7" cy="238.4" r="0.4"/>
				<circle fill="#4D4D4D" cx="98.7" cy="240" r="0.4"/>
			</g>
			<g>
				<circle fill="#4D4D4D" cx="100.2" cy="235.7" r="0.4"/>
				<circle fill="#4D4D4D" cx="100.2" cy="237.2" r="0.4"/>
				<circle fill="#4D4D4D" cx="100.2" cy="238.4" r="0.4"/>
				<circle fill="#4D4D4D" cx="100.2" cy="240" r="0.4"/>
			</g>
			<g>
				<circle fill="#4D4D4D" cx="101.5" cy="235.7" r="0.4"/>
				<circle fill="#4D4D4D" cx="101.5" cy="237.2" r="0.4"/>
				<circle fill="#4D4D4D" cx="101.5" cy="238.4" r="0.4"/>
				<circle fill="#4D4D4D" cx="101.5" cy="240" r="0.4"/>
			</g>
			<g>
				<circle fill="#4D4D4D" cx="102.9" cy="235.7" r="0.4"/>
				<circle fill="#4D4D4D" cx="102.9" cy="237.2" r="0.4"/>
				<circle fill="#4D4D4D" cx="102.9" cy="238.4" r="0.4"/>
				<circle fill="#4D4D4D" cx="102.9" cy="240" r="0.4"/>
			</g>
		</g>
		<rect x="23.3" y="2" width="19" height="1"/>
		<linearGradient id="SVGID_4_" gradientUnits="userSpaceOnUse" x1="111.0256" y1="10.6394" x2="108.6814" y2="15.7817">
			<stop  offset="0" style="stop-color:#FFFFFF"/>
			<stop  offset="1" style="stop-color:#FFFFFF;stop-opacity:0"/>
		</linearGradient>
		<path opacity="0.3" fill="url(#SVGID_4_)" d="M113.1,10.6c-0.4-0.2-0.9-0.3-1.4-0.3c-2.2,0-4,1.8-4,4c0,1.5,0.9,2.8,2.1,3.5
			L113.1,10.6z"/>
		<g>
			<polyline fill="none" stroke="#808080" stroke-width="0.6066" stroke-miterlimit="10" points="36.6,219.7 33.7,221.8 36.6,223.9 
							"/>
			<polygon fill="none" stroke="#808080" stroke-miterlimit="10" points="97.8,224.5 100.8,224.5 100.8,221.2 99.3,219.9 
				97.8,221.3 			"/>
		</g>
	</g>
	<g>
		
			<linearGradient id="SVGID_5_" gradientUnits="userSpaceOnUse" x1="2731.0557" y1="72.8308" x2="2684.8059" y2="295.3131" gradientTransform="matrix(-1 0 0 1 2830.2644 0)">
			<stop  offset="0" style="stop-color:#FFFFFF"/>
			<stop  offset="1" style="stop-color:#FFFFFF;stop-opacity:0"/>
		</linearGradient>
		<polygon opacity="0.2" fill="url(#SVGID_5_)" points="49.5,21 127.3,21 127.3,231 110.2,228.1 		"/>
	</g>
</g>
</svg>
