<?xml version="1.0" encoding="utf-8"?>
<!-- Generator: Adobe Illustrator 16.0.0, SVG Export Plug-In . SVG Version: 6.00 Build 0)  -->
<!DOCTYPE svg PUBLIC "-//W3C//DTD SVG 1.1//EN" "http://www.w3.org/Graphics/SVG/1.1/DTD/svg11.dtd">
<svg version="1.1" id="Layer_1" xmlns="http://www.w3.org/2000/svg" xmlns:xlink="http://www.w3.org/1999/xlink" x="0px" y="0px"
	 width="72px" height="72px" viewBox="0 0 72 72" enable-background="new 0 0 72 72" xml:space="preserve">
<g>
	<g>
		<g>
			<path fill="#EC1164" d="M36.012,52.859c-1.039,0-2.012-0.414-2.746-1.156l-21.75-21.734c-1.496-1.508-1.492-3.953-0.008-5.445
				c1.523-1.496,4.031-1.453,5.477,0l15.164,15.145L32.125,5.469c0-2.129,1.734-3.859,3.863-3.859c2.137,0,3.871,1.73,3.871,3.859
				l0.008,34.199L55.031,24.5c1.441-1.453,4.016-1.469,5.469,0.008c1.492,1.492,1.5,3.938,0.004,5.438L38.75,51.711
				C38.027,52.445,37.051,52.859,36.012,52.859z"/>
		</g>
	</g>
	<g>
		<g>
			<g>
				<path fill="#EC1164" d="M14.25,70.391L14.25,70.391c-2.137,0-3.875-1.73-3.875-3.859c0-2.137,1.738-3.867,3.875-3.867
					l43.523-0.023c2.121,0,3.852,1.73,3.852,3.859c0,2.133-1.73,3.867-3.852,3.867L14.25,70.391z"/>
			</g>
		</g>
	</g>
</g>
</svg>
