<?xml version="1.0" encoding="utf-8"?>
<!-- Generator: Adobe Illustrator 16.0.0, SVG Export Plug-In . SVG Version: 6.00 Build 0)  -->
<!DOCTYPE svg PUBLIC "-//W3C//DTD SVG 1.1//EN" "http://www.w3.org/Graphics/SVG/1.1/DTD/svg11.dtd">
<svg version="1.1" id="Layer_1" xmlns="http://www.w3.org/2000/svg" xmlns:xlink="http://www.w3.org/1999/xlink" x="0px" y="0px"
	 width="72px" height="72px" viewBox="0 0 72 72" enable-background="new 0 0 72 72" xml:space="preserve">
<g>
	<path fill="#FFFFFF" d="M37.117,27.576c-4.75,0-8.617,3.781-8.617,8.422c0,4.652,3.867,8.438,8.617,8.438
		c4.75,0,8.609-3.785,8.609-8.438C45.727,31.357,41.867,27.576,37.117,27.576z"/>
	<path fill="#EC1164" d="M23.387,41.932c-0.348-0.102-0.719-0.012-0.98,0.25l-5.625,5.629c-2.27-2.301-4.047-4.277-5.426-6.027
		C4.723,33.357,7.231,26.842,7.34,26.564c0.148-0.367,0.055-0.785-0.223-1.059c-0.047-0.055-0.094-0.098-0.145-0.133
		c-0.391-0.266-0.914-0.203-1.242,0.125C-5.667,36.889,5.434,52.85,8.165,56.404l-5.23,5.23c-0.254,0.25-0.348,0.633-0.246,0.984
		c0.117,0.352,0.395,0.621,0.758,0.688l24.184,4.719c0.336,0.066,0.66-0.035,0.891-0.266c0.234-0.234,0.344-0.559,0.27-0.891
		l-4.719-24.18C24.004,42.338,23.743,42.041,23.387,41.932z M4.059,62.209l4.957-4.961c0.426-0.426,0.469-1.098,0.102-1.578
		c-2.281-2.961-13-18.105-3.133-28.801c-0.57,2.129-1.422,8.215,4.43,15.645c1.379,1.762,3.18,3.77,5.512,6.133
		c0.223,0.23,0.527,0.363,0.848,0.363c0,0,0,0,0.008,0c0.312,0,0.621-0.133,0.844-0.352l5.348-5.344l4.672,23.496L4.059,62.209z"/>
	<g>
		<path fill="#EC1164" d="M62.258,27.775l-0.324-0.113l-1.27-3.031l0.141-0.312c3.848-8.73,3.578-8.992,2.938-9.625l-5.129-5.008
			c-0.215-0.207-0.578-0.355-0.898-0.355c-0.289,0-1.16,0-8.746,3.434l-0.305,0.141l-3.125-1.262l-0.129-0.309
			c-3.566-8.836-3.934-8.836-4.816-8.836h-7.257c-0.883,0-1.285,0-4.59,8.852l-0.129,0.32l-3.113,1.266l-0.297-0.121
			c-5.129-2.164-8.129-3.262-8.91-3.262c-0.316,0-0.688,0.141-0.898,0.352l-5.137,5.023c-0.652,0.637-0.922,0.906,3.121,9.457
			l0.156,0.316l-1.273,3.031l-0.309,0.117c-1.57,0.609-2.785,1.09-3.859,1.531c-0.012,2.527,0.727,6.379,4.289,10.898
			c1.156,1.473,2.629,3.145,4.492,5.074l4.766-4.777c0.414-0.41,0.965-0.641,1.551-0.641c0.105,0,0.496,0.055,0.598,0.082
			c0.809,0.25,1.387,0.891,1.539,1.691l3.902,19.992c3.148,7.719,3.555,7.801,4.406,7.801h7.257c0.91,0,1.285,0,4.594-8.852
			l0.125-0.312l3.117-1.262l0.297,0.121c5.129,2.168,8.125,3.266,8.906,3.266c0.309,0,0.68-0.141,0.898-0.355l5.145-5.035
			c0.648-0.641,0.914-0.91-3.141-9.445l-0.152-0.324l1.273-3.016l0.297-0.121c9.055-3.508,9.055-3.852,9.055-4.758v-7.105
			C71.312,31.393,71.312,31.014,62.258,27.775z M37.117,44.436c-4.75,0-8.617-3.785-8.617-8.438c0-4.641,3.867-8.422,8.617-8.422
			c4.75,0,8.609,3.781,8.609,8.422C45.727,40.65,41.867,44.436,37.117,44.436z"/>
		<path fill="#EC1164" d="M37.117,29.951c-3.441,0-6.242,2.715-6.242,6.047c0,3.344,2.801,6.062,6.242,6.062
			c3.438,0,6.234-2.719,6.234-6.062C43.352,32.666,40.555,29.951,37.117,29.951z"/>
	</g>
</g>
</svg>
