<?xml version="1.0" encoding="utf-8"?>
<!-- Generator: Adobe Illustrator 16.0.0, SVG Export Plug-In . SVG Version: 6.00 Build 0)  -->
<!DOCTYPE svg PUBLIC "-//W3C//DTD SVG 1.1//EN" "http://www.w3.org/Graphics/SVG/1.1/DTD/svg11.dtd">
<svg version="1.1" id="Layer_1" xmlns="http://www.w3.org/2000/svg" xmlns:xlink="http://www.w3.org/1999/xlink" x="0px" y="0px"
	 width="72px" height="72px" viewBox="0 0 72 72" enable-background="new 0 0 72 72" xml:space="preserve">
<g>
	<g>
		<path fill="#C0C0C0" d="M36.002,71.293c-0.001,0-0.069,0-0.071,0c-9.426-0.018-18.281-3.707-24.935-10.385
			C4.343,54.229,0.689,45.357,0.708,35.93C0.746,16.508,16.578,0.707,35.999,0.707c19.529,0.038,35.33,15.901,35.293,35.363
			C71.254,55.492,55.423,71.293,36.002,71.293z M36.066,1.971c-18.793,0-34.058,15.235-34.095,33.962
			c-0.018,9.091,3.506,17.644,9.92,24.081c6.415,6.441,14.953,9.998,24.042,10.014l0.067,0.633v-0.633
			c18.727,0.002,33.99-15.232,34.026-33.96C70.064,17.304,54.829,2.008,36.066,1.971z"/>
	</g>
	<path fill="#C0C0C0" d="M50.089,35.366H23.437l13.143-13.14c0.247-0.247,0.247-0.646,0-0.894c-0.246-0.246-0.646-0.246-0.893,0
		L21.465,35.552c-0.059,0.058-0.104,0.128-0.137,0.205c-0.064,0.154-0.064,0.329,0,0.483c0.032,0.077,0.078,0.147,0.137,0.205
		l14.22,14.223c0.123,0.123,0.284,0.184,0.446,0.184s0.323-0.061,0.447-0.184c0.247-0.248,0.247-0.648,0-0.896L23.437,36.631h26.652
		c0.349,0,0.633-0.283,0.633-0.633C50.722,35.649,50.438,35.366,50.089,35.366z"/>
</g>
</svg>
