<?xml version="1.0" encoding="utf-8"?>
<!-- Generator: Adobe Illustrator 16.0.4, SVG Export Plug-In . SVG Version: 6.00 Build 0)  -->
<!DOCTYPE svg PUBLIC "-//W3C//DTD SVG 1.1//EN" "http://www.w3.org/Graphics/SVG/1.1/DTD/svg11.dtd">
<svg version="1.1" id="Layer_1" xmlns="http://www.w3.org/2000/svg" xmlns:xlink="http://www.w3.org/1999/xlink" x="0px" y="0px"
	 width="72px" height="72px" viewBox="0 0 72 72" enable-background="new 0 0 72 72" xml:space="preserve">
<g>
	<g>
		<rect x="2.454" y="7.252" fill="#D9DAD9" width="44.294" height="33.221"/>
		<path fill="#D9DAD9" d="M46.748,42.427H2.454c-1.079,0-1.954-0.875-1.954-1.954V7.252c0-1.079,0.875-1.954,1.954-1.954h44.294
			c1.079,0,1.954,0.875,1.954,1.954v33.221C48.702,41.552,47.827,42.427,46.748,42.427z M4.408,38.518h40.386V9.206H4.408V38.518z"
			/>
	</g>
	<g>
		<polygon fill="#D9DAD9" points="8.967,53.825 8.967,38.518 21.669,38.518 		"/>
		<path fill="#D9DAD9" d="M8.967,55.779c-0.222,0-0.446-0.038-0.663-0.116c-0.775-0.28-1.291-1.015-1.291-1.838V38.518
			c0-1.079,0.875-1.954,1.954-1.954h12.702c0.757,0,1.447,0.438,1.769,1.123c0.322,0.687,0.219,1.497-0.265,2.08L10.471,55.073
			C10.093,55.529,9.538,55.779,8.967,55.779z M10.921,40.473v7.938l6.587-7.938H10.921z"/>
	</g>
	<g>
		<path fill="#D9DAD9" d="M60.408,66.702c-0.57,0-1.125-0.25-1.504-0.706l-9.02-10.868H30.463c-1.079,0-1.954-0.875-1.954-1.954
			v-6.839c0-1.079,0.875-1.954,1.954-1.954s1.954,0.875,1.954,1.954v4.885h18.386c0.581,0,1.133,0.259,1.504,0.706l6.146,7.407
			v-6.159c0-1.079,0.875-1.954,1.955-1.954h7.184V25.816H52.285c-1.079,0-1.954-0.875-1.954-1.954s0.875-1.954,1.954-1.954h17.261
			c1.079,0,1.954,0.875,1.954,1.954v29.312c0,1.079-0.875,1.954-1.954,1.954h-7.184v9.62c0,0.823-0.517,1.559-1.291,1.838
			C60.854,66.664,60.63,66.702,60.408,66.702z"/>
	</g>
	<g>
		<rect x="8.855" y="15.714" fill="#FFFFFF" width="29.603" height="2.349"/>
		<path fill="#FFFFFF" d="M38.458,18.552H8.855c-0.27,0-0.488-0.219-0.488-0.489v-2.349c0-0.271,0.218-0.489,0.488-0.489h29.603
			c0.27,0,0.488,0.219,0.488,0.489v2.349C38.946,18.333,38.728,18.552,38.458,18.552z M9.344,17.574H37.97v-1.372H9.344V17.574z"/>
	</g>
	<g>
		<rect x="8.855" y="23.177" fill="#FFFFFF" width="29.603" height="2.348"/>
		<path fill="#FFFFFF" d="M38.458,26.013H8.855c-0.27,0-0.488-0.219-0.488-0.488v-2.348c0-0.27,0.218-0.488,0.488-0.488h29.603
			c0.27,0,0.488,0.219,0.488,0.488v2.348C38.946,25.794,38.728,26.013,38.458,26.013z M9.344,25.036H37.97v-1.37H9.344V25.036z"/>
	</g>
	<g>
		<rect x="8.855" y="30.639" fill="#FFFFFF" width="29.603" height="2.348"/>
		<path fill="#FFFFFF" d="M38.458,33.475H8.855c-0.27,0-0.488-0.219-0.488-0.488v-2.348c0-0.27,0.218-0.488,0.488-0.488h29.603
			c0.27,0,0.488,0.219,0.488,0.488v2.348C38.946,33.256,38.728,33.475,38.458,33.475z M9.344,32.497H37.97v-1.37H9.344V32.497z"/>
	</g>
</g>
</svg>
