<?xml version="1.0" encoding="utf-8"?>
<!-- Generator: Adobe Illustrator 16.0.0, SVG Export Plug-In . SVG Version: 6.00 Build 0)  -->
<!DOCTYPE svg PUBLIC "-//W3C//DTD SVG 1.1//EN" "http://www.w3.org/Graphics/SVG/1.1/DTD/svg11.dtd">
<svg version="1.1" id="Layer_1" xmlns="http://www.w3.org/2000/svg" xmlns:xlink="http://www.w3.org/1999/xlink" x="0px" y="0px"
	 width="72px" height="72px" viewBox="0 0 72 72" enable-background="new 0 0 72 72" xml:space="preserve">
<g>
	<g>
		<path fill="#AEAEAE" d="M24.067,10.154L2.996,15.4c-1.751,0.436-2.829,2.234-2.393,3.989L10.78,60.262
			c0.438,1.756,2.232,2.835,3.983,2.398l21.071-5.246c1.754-0.437,2.835-2.231,2.399-3.988L28.055,12.554
			C27.619,10.8,25.82,9.718,24.067,10.154z M29.749,56.054c0.079,0.313-0.112,0.63-0.425,0.707l-9.112,2.269
			c-0.312,0.078-0.629-0.112-0.707-0.425l-0.122-0.491c-0.078-0.313,0.112-0.63,0.425-0.707l9.112-2.27
			c0.312-0.077,0.629,0.112,0.707,0.426L29.749,56.054z M33.159,51.051l-19.012,4.733L5.499,21.051l19.012-4.733L33.159,51.051z"/>
	</g>
	<g>
		<path fill="#AEAEAE" d="M68.939,14.167L47.771,9.325c-1.758-0.402-3.534,0.716-3.937,2.479l-9.393,41.058
			c-0.403,1.765,0.71,3.539,2.47,3.941l21.168,4.842c1.762,0.402,3.538-0.71,3.941-2.477l9.392-41.056
			C71.814,16.348,70.7,14.569,68.939,14.167z M47.11,57.336c-1.1,0-1.992-0.892-1.992-1.992c0-1.099,0.893-1.991,1.992-1.991
			c1.099,0,1.991,0.893,1.991,1.991C49.102,56.444,48.209,57.336,47.11,57.336z M58.52,54.841l-19.1-4.369l7.98-34.893l19.1,4.37
			L58.52,54.841z"/>
	</g>
</g>
</svg>
