<?xml version="1.0" encoding="utf-8"?>
<!-- Generator: Adobe Illustrator 16.0.0, SVG Export Plug-In . SVG Version: 6.00 Build 0)  -->
<!DOCTYPE svg PUBLIC "-//W3C//DTD SVG 1.1//EN" "http://www.w3.org/Graphics/SVG/1.1/DTD/svg11.dtd">
<svg version="1.1" id="Layer_1" xmlns="http://www.w3.org/2000/svg" xmlns:xlink="http://www.w3.org/1999/xlink" x="0px" y="0px"
	 width="72px" height="72px" viewBox="0 0 72 72" enable-background="new 0 0 72 72" xml:space="preserve">
<g>
	<g>
		<g>
			<path fill-rule="evenodd" clip-rule="evenodd" fill="#AEAEAE" d="M64.412,24.341c-3.658-4.559-8.789-7.199-13.631-7.199
				c-6.404,0-9.115,3.045-13.549,3.045c-4.582,0-8.061-3.035-13.61-3.035c-5.443,0-11.222,3.311-14.889,8.955
				C3.562,34.052,4.436,49,12.812,61.736c2.987,4.559,6.995,9.678,12.217,9.721c4.645,0.045,5.971-2.967,12.26-2.996
				c6.308-0.039,7.503,3.035,12.145,2.986c5.23-0.049,9.441-5.719,12.438-10.278c2.146-3.255,2.942-4.905,4.607-8.601
				C54.375,47.996,52.434,30.899,64.412,24.341 M45.924,12.056c2.332-2.984,4.1-7.207,3.451-11.514
				c-3.798,0.268-8.246,2.684-10.842,5.834c-2.352,2.857-4.301,7.107-3.55,11.24C39.139,17.74,43.433,15.26,45.924,12.056"/>
		</g>
	</g>
</g>
</svg>
