<?xml version="1.0" encoding="utf-8"?>
<!-- Generator: Adobe Illustrator 16.0.0, SVG Export Plug-In . SVG Version: 6.00 Build 0)  -->
<!DOCTYPE svg PUBLIC "-//W3C//DTD SVG 1.1//EN" "http://www.w3.org/Graphics/SVG/1.1/DTD/svg11.dtd">
<svg version="1.1" id="Layer_1" xmlns="http://www.w3.org/2000/svg" xmlns:xlink="http://www.w3.org/1999/xlink" x="0px" y="0px"
	 width="72px" height="72px" viewBox="0 0 72 72" enable-background="new 0 0 72 72" xml:space="preserve">
<g>
	<g>
		<path fill="#ADAFAF" d="M35.996,28.282c-4.35,0-7.892,3.458-7.892,7.719c0,4.259,3.542,7.726,7.892,7.726
			c4.359,0,7.896-3.467,7.896-7.726C43.893,31.74,40.355,28.282,35.996,28.282z"/>
		<path fill="#ADAFAF" d="M61.828,27.548l-0.33-0.114l-1.305-3.121l0.145-0.317c3.953-8.968,3.682-9.234,3.021-9.89l-5.273-5.146
			c-0.219-0.211-0.592-0.363-0.922-0.363c-0.297,0-1.193,0-8.988,3.527l-0.305,0.147l-3.217-1.3l-0.135-0.317
			c-3.664-9.077-4.037-9.077-4.951-9.077h-7.452c-0.908,0-1.32,0-4.717,9.095l-0.133,0.33l-3.199,1.297l-0.305-0.125
			c-5.269-2.222-8.351-3.352-9.155-3.352c-0.322,0-0.703,0.15-0.919,0.363l-5.279,5.159c-0.675,0.658-0.949,0.937,3.21,9.72
			l0.154,0.325l-1.305,3.116l-0.322,0.122c-9.288,3.59-9.288,3.936-9.288,4.873v7.304c0,0.936,0,1.32,9.306,4.66l0.335,0.113
			l1.303,3.111L11.659,48c-3.95,8.98-3.699,9.217-3.026,9.887l5.269,5.154c0.221,0.211,0.604,0.371,0.93,0.371
			c0.292,0,1.19,0,8.988-3.529l0.312-0.148l3.212,1.301l0.127,0.324c3.669,9.064,4.043,9.064,4.964,9.064h7.447
			c0.932,0,1.325,0,4.723-9.094L44.735,61l3.199-1.295l0.305,0.127c5.269,2.234,8.354,3.355,9.146,3.355
			c0.33,0,0.706-0.146,0.93-0.359l5.286-5.176c0.665-0.664,0.939-0.939-3.229-9.711l-0.152-0.33l1.305-3.098l0.312-0.119
			c9.306-3.613,9.306-3.961,9.306-4.896v-7.301C71.142,31.263,71.142,30.874,61.828,27.548z M35.996,48.855
			c-7.211,0-13.084-5.771-13.084-12.855c0-7.084,5.873-12.848,13.084-12.848c7.221,0,13.094,5.764,13.094,12.848
			C49.09,43.084,43.217,48.855,35.996,48.855z"/>
	</g>
</g>
</svg>
