<?xml version="1.0" encoding="utf-8"?>
<!-- Generator: Adobe Illustrator 16.0.0, SVG Export Plug-In . SVG Version: 6.00 Build 0)  -->
<!DOCTYPE svg PUBLIC "-//W3C//DTD SVG 1.1//EN" "http://www.w3.org/Graphics/SVG/1.1/DTD/svg11.dtd">
<svg version="1.1" id="Layer_1" xmlns="http://www.w3.org/2000/svg" xmlns:xlink="http://www.w3.org/1999/xlink" x="0px" y="0px"
	 width="72px" height="72px" viewBox="0 0 72 72" enable-background="new 0 0 72 72" xml:space="preserve">
<g>
	<path fill="#C0C0C0" d="M52.013,0.095h-32.02c-2.664,0-4.852,2.182-4.852,4.851v62.105c0,2.668,2.188,4.854,4.852,4.854h32.02
		c2.657,0,4.846-2.187,4.846-4.854V4.945C56.858,2.276,54.67,0.095,52.013,0.095L52.013,0.095z M30.879,3.589H41.12
		c0.333,0,0.587,0.265,0.587,0.593c0,0.32-0.254,0.581-0.587,0.581H30.879c-0.326,0-0.591-0.261-0.591-0.581
		C30.288,3.854,30.553,3.589,30.879,3.589L30.879,3.589z M36,69.48c-1.346,0-2.422-1.08-2.422-2.43c0-1.335,1.076-2.416,2.422-2.416
		c1.341,0,2.424,1.081,2.424,2.416C38.424,68.4,37.341,69.48,36,69.48L36,69.48z M53.48,62.931H18.517V7.791H53.48V62.931z
		 M53.48,62.931"/>
</g>
</svg>
