<?xml version="1.0" encoding="utf-8"?>
<!-- Generator: Adobe Illustrator 18.1.1, SVG Export Plug-In . SVG Version: 6.00 Build 0)  -->
<svg version="1.1" id="Layer_1" xmlns="http://www.w3.org/2000/svg" xmlns:xlink="http://www.w3.org/1999/xlink" x="0px" y="0px"
	 viewBox="0 0 72 72" enable-background="new 0 0 72 72" xml:space="preserve">
<path fill="none" d="M2.5,36.4C2.5,36.4,2.5,36.4,2.5,36.4c0.1-0.2,0-0.2,0-0.2V36.4z"/>
<g>
	
		<path fill-rule="evenodd" clip-rule="evenodd" fill="#C1C3C4" stroke="#FFFFFF" stroke-width="1.0536" stroke-linecap="round" stroke-linejoin="round" stroke-miterlimit="10" d="
		M72.1-31.8"/>
</g>
<g>
	<g>
		<path fill="#ADAFAF" d="M60.8,47.7H23.1c-0.6,0-1.2-0.4-1.4-1l-10.4-36H3c-0.8,0-1.4-0.6-1.4-1.4c0-0.8,0.6-1.4,1.4-1.4h9.4
			c0.6,0,1.2,0.4,1.4,1l2.5,8.5H69c0.4,0,0.9,0.2,1.1,0.6c0.3,0.4,0.3,0.8,0.2,1.2l-8.2,27.5C62,47.3,61.4,47.7,60.8,47.7z"/>
	</g>
	<g>
		<path fill="#ADAFAF" d="M32.8,58.9c0-2.9-2.3-5.2-5.2-5.2c-2.9,0-5.2,2.3-5.2,5.2c0,2.9,2.3,5.2,5.2,5.2
			C30.5,64.2,32.8,61.8,32.8,58.9z"/>
	</g>
	<g>
		<path fill="#ADAFAF" d="M59,58.9c0-2.9-2.3-5.2-5.2-5.2c-2.9,0-5.2,2.3-5.2,5.2c0,2.9,2.3,5.2,5.2,5.2C56.7,64.2,59,61.8,59,58.9z
			"/>
	</g>
</g>
</svg>
