<?xml version="1.0" encoding="utf-8"?>
<!-- Generator: Adobe Illustrator 18.1.1, SVG Export Plug-In . SVG Version: 6.00 Build 0)  -->
<svg version="1.1" id="Layer_1" xmlns="http://www.w3.org/2000/svg" xmlns:xlink="http://www.w3.org/1999/xlink" x="0px" y="0px"
	 viewBox="0 0 64 64" enable-background="new 0 0 64 64" xml:space="preserve">
<g>
	<g>
		<path fill="#ADAFAF" d="M50.6,63.5H5.3c-1.1,0-2-0.8-2-1.9V16.2c0-1.1,0.9-1.9,2-1.9h45.3c1.1,0,1.8,0.8,1.8,1.9v45.3
			C52.5,62.7,51.7,63.5,50.6,63.5z M5.3,15.3c-0.5,0-1.1,0.5-1.1,1.1v45.3c0,0.5,0.5,1.1,1.1,1.1h45.3c0.5,0,1-0.5,1-1.1V16.2
			c0-0.5-0.5-1.1-1-1.1H5.3V15.3z"/>
	</g>
</g>
</svg>
