<?xml version="1.0" encoding="utf-8"?>
<!-- Generator: Adobe Illustrator 18.1.1, SVG Export Plug-In . SVG Version: 6.00 Build 0)  -->
<svg version="1.1" id="Layer_1" xmlns="http://www.w3.org/2000/svg" xmlns:xlink="http://www.w3.org/1999/xlink" x="0px" y="0px"
	 viewBox="0 0 64 64" enable-background="new 0 0 64 64" xml:space="preserve">
<path fill="#ADAFAF" d="M59.8,0.8c-1-0.6-2.2-0.3-2.9,0.6l-8.3,12.9H5.2c-1.1,0-1.9,0.9-1.9,1.9v45.4c0,1.1,0.9,1.9,1.9,1.9h45.4
	c1.1,0,1.8-0.9,1.8-1.9V16.2c0-0.1,0-0.2,0-0.2l8-12.3C61,2.7,60.7,1.4,59.8,0.8z M51.6,61.5c0,0.5-0.4,1.1-1,1.1H5.2
	c-0.5,0-1.1-0.4-1.1-1.1V16.2c0-0.5,0.4-1.1,1.1-1.1H48L30.1,42.8l-11.4-8.5c-1-0.6-2.2-0.4-2.9,0.4c-0.6,1-0.4,2.2,0.4,2.9
	l13.3,9.7c0.3,0.2,0.7,0.4,1.2,0.4c0.1,0,0.2,0,0.3,0c0.5-0.1,1.1-0.4,1.4-0.9l19.3-29.7V61.5z"/>
</svg>
