<?xml version="1.0" encoding="utf-8"?>
<!-- Generator: Adobe Illustrator 16.0.4, SVG Export Plug-In . SVG Version: 6.00 Build 0)  -->
<!DOCTYPE svg PUBLIC "-//W3C//DTD SVG 1.1//EN" "http://www.w3.org/Graphics/SVG/1.1/DTD/svg11.dtd">
<svg version="1.1" id="Layer_1" xmlns="http://www.w3.org/2000/svg" xmlns:xlink="http://www.w3.org/1999/xlink" x="0px" y="0px"
	 width="72px" height="72px" viewBox="0 0 72 72" enable-background="new 0 0 72 72" xml:space="preserve">
<g>
	<g>
		<path fill="#D9DAD9" d="M69.412,51.958H2.588c-1.153,0-2.088-0.935-2.088-2.088V9.168c0-1.153,0.935-2.088,2.088-2.088h66.824
			c1.153,0,2.088,0.935,2.088,2.088V49.87C71.5,51.023,70.565,51.958,69.412,51.958z M4.677,47.782h62.647V11.256H4.677V47.782z"/>
	</g>
	<g>
		<rect x="28.192" y="51.632" fill="#D9DAD9" width="15.616" height="4.96"/>
		<path fill="#D9DAD9" d="M43.808,57.114H28.192c-0.289,0-0.522-0.233-0.522-0.522v-4.96c0-0.288,0.234-0.521,0.522-0.521h15.616
			c0.289,0,0.522,0.233,0.522,0.521v4.96C44.33,56.881,44.097,57.114,43.808,57.114z M28.714,56.07h14.572v-3.916H28.714V56.07z"/>
	</g>
	<g>
		<rect x="21.84" y="59.082" fill="#D9DAD9" width="28.318" height="5.315"/>
		<path fill="#D9DAD9" d="M50.158,64.92H21.84c-0.289,0-0.522-0.233-0.522-0.522v-5.315c0-0.289,0.233-0.522,0.522-0.522h28.318
			c0.289,0,0.522,0.233,0.522,0.522v5.315C50.681,64.687,50.447,64.92,50.158,64.92z M22.362,63.876h27.274v-4.272H22.362V63.876z"
			/>
	</g>
</g>
</svg>
