<?xml version="1.0" encoding="utf-8"?>
<!-- Generator: Adobe Illustrator 18.1.1, SVG Export Plug-In . SVG Version: 6.00 Build 0)  -->
<svg version="1.1" id="Layer_1" xmlns="http://www.w3.org/2000/svg" xmlns:xlink="http://www.w3.org/1999/xlink" x="0px" y="0px"
	 viewBox="0 0 42.5 42.5" enable-background="new 0 0 42.5 42.5" xml:space="preserve">
<g>
	<g>
		<g>
			<path fill="#ADAFAF" d="M34.9,28.5L34.9,28.5c0,0,0.6-5-4.5-10.9c0.4,1.6,0.4,2.1,0.4,2.1s-1.7-3.6-4.9-6.2
				C22.8,10.9,16,9,9.7,11.4c1.3,0.1,2.1,0.7,2.1,0.7s-2.1-0.8-4.3,1.5c-0.6,0.7-0.6,1.7-0.6,1.7s0.7,0.2,0.3,1c0.3,1.3,4,1.9,4,1.9
				s5.6,0.4,7.9,1.6c2.4,1.3,2.9,1.7,2.9,1.7s2.2-0.6,3.4,0.2c-1.3,0-1.8,0.5-1.8,0.5s4.2,2.3,5.5,4.3c1.2,1.8,4.8,2.8,5.7,3.1
				c0.8,1.6,2.2,5.1,1.7,8.3c-0.1,0.4,0.3,1.3,0.3,1.3S38.4,34.2,34.9,28.5z M10.1,15.1c0,0,15.3-3.8,22.8,11.2
				C22,11.6,10.1,15.1,10.1,15.1z"/>
		</g>
	</g>
</g>
</svg>
