<?xml version="1.0" encoding="utf-8"?>
<!-- Generator: Adobe Illustrator 16.0.0, SVG Export Plug-In . SVG Version: 6.00 Build 0)  -->
<!DOCTYPE svg PUBLIC "-//W3C//DTD SVG 1.1//EN" "http://www.w3.org/Graphics/SVG/1.1/DTD/svg11.dtd">
<svg version="1.1" id="Layer_1" xmlns="http://www.w3.org/2000/svg" xmlns:xlink="http://www.w3.org/1999/xlink" x="0px" y="0px"
	 width="72px" height="72px" viewBox="0 0 72 72" enable-background="new 0 0 72 72" xml:space="preserve">
<g>
	<path fill="#ADAFAF" d="M15.837,67.94c0.076,1.923,1.649,3.418,3.549,3.418h33.221c1.915,0,3.48-1.495,3.564-3.418l2.376-50.069
		H13.471L15.837,67.94z M43.512,30.308c0-0.793,0.654-1.447,1.447-1.447h2.321c0.782,0,1.447,0.654,1.447,1.447v28.613
		c0,0.801-0.665,1.438-1.447,1.438h-2.321c-0.793,0-1.447-0.637-1.447-1.438V30.308z M33.396,30.308
		c0-0.793,0.654-1.447,1.447-1.447h2.313c0.802,0,1.445,0.654,1.445,1.447v28.613c0,0.801-0.644,1.438-1.445,1.438h-2.313
		c-0.793,0-1.447-0.637-1.447-1.438V30.308z M23.291,30.308c0-0.793,0.636-1.447,1.437-1.447h2.321c0.783,0,1.438,0.654,1.438,1.447
		v28.613c0,0.801-0.654,1.438-1.438,1.438h-2.321c-0.801,0-1.437-0.637-1.437-1.438V30.308z M23.291,30.308"/>
	<path fill="#ADAFAF" d="M60.122,4.29H44.783V1.388c0-0.414-0.322-0.746-0.746-0.746H27.952c-0.405,0-0.746,0.332-0.746,0.746V4.29
		H11.885c-1.232,0-2.237,0.994-2.237,2.229v7.012h52.705V6.52C62.353,5.295,61.357,4.29,60.122,4.29L60.122,4.29z M60.122,4.29"/>
</g>
</svg>
