<?xml version="1.0" encoding="utf-8"?>
<!-- Generator: Adobe Illustrator 16.0.0, SVG Export Plug-In . SVG Version: 6.00 Build 0)  -->
<!DOCTYPE svg PUBLIC "-//W3C//DTD SVG 1.1//EN" "http://www.w3.org/Graphics/SVG/1.1/DTD/svg11.dtd">
<svg version="1.1" id="Layer_1" xmlns="http://www.w3.org/2000/svg" xmlns:xlink="http://www.w3.org/1999/xlink" x="0px" y="0px"
	 width="72px" height="72px" viewBox="0 0 72 72" enable-background="new 0 0 72 72" xml:space="preserve">
<g>
	<path fill="#C0C0C0" d="M11.072,26.54c0.012,0,0.02,0,0.029,0c1.021,0,1.861-0.82,1.875-1.846
		C13.244,7.715,24.98,6.36,25.506,6.309c1.025-0.094,1.783-1,1.695-2.027C27.113,3.249,26.18,2.5,25.172,2.575
		C25.014,2.588,9.549,4.167,9.227,24.635C9.213,25.67,10.037,26.52,11.072,26.54z"/>
	<path fill="#C0C0C0" d="M68.691,3.676C68.319,3.305,67.825,3.1,67.299,3.1s-1.021,0.205-1.393,0.577l-7.249,7.25
		c-4.655-7.657-12.382-8.458-12.495-8.468c-0.99-0.033-1.941,0.674-2.029,1.707c-0.088,1.027,0.674,1.939,1.705,2.027
		c0.36,0.033,6.562,0.683,10.1,7.454l-3.768,3.767c-2.182-3.845-5.701-6.894-10.074-8.409l-0.527-0.184L41.48,8.268
		c-0.439-2.695-2.746-4.654-5.484-4.654c-2.717,0-5.02,1.959-5.479,4.662l-0.09,0.549l-0.525,0.18
		c-7.488,2.59-12.516,9.654-12.516,17.57c0,6.742-1.084,13.204-3.051,18.192c-0.227,0.578-0.158,1.23,0.193,1.742
		c0.348,0.514,0.93,0.82,1.549,0.82h6.177l-3.724,3.725H11.27c-0.6,0-1.164,0.289-1.516,0.773c-1.215,1.674-1.855,3.613-1.855,5.617
		c0,1.196,0.39,2.298,1.035,3.207l-5.625,5.625c-0.768,0.768-0.768,2.018,0,2.785c0.372,0.371,0.866,0.576,1.393,0.576
		c0.525,0,1.019-0.205,1.391-0.576l6.185-6.186c0.388,0.087,0.788,0.143,1.202,0.143h17.238v0.938c0,3.08,2.5,5.588,5.572,5.588
		c3.082,0,5.588-2.508,5.588-5.588v-0.938h16.654c3.068,0,5.574-2.502,5.574-5.574c0-2.01-0.637-3.951-1.846-5.615
		c-0.352-0.486-0.916-0.775-1.516-0.775H24.099l3.725-3.725h28.101c0.623,0,1.201-0.307,1.547-0.82
		c0.352-0.512,0.424-1.168,0.197-1.742c-1.971-4.992-3.062-11.454-3.062-18.192c0-1.812-0.276-3.576-0.773-5.256l3.642-3.641
		c0.514,1.953,0.84,4.229,0.882,6.899c0.016,1.025,0.857,1.846,1.875,1.846c0.016,0,0.021,0,0.029,0
		c1.041-0.02,1.861-0.869,1.846-1.904c-0.062-3.933-0.688-7.159-1.652-9.82l8.238-8.239C69.459,5.692,69.459,4.444,68.691,3.676z
		 M5.959,68.929c-0.336,0.336-0.783,0.521-1.258,0.521c-0.476,0-0.924-0.186-1.26-0.521c-0.695-0.694-0.695-1.825,0-2.52
		l62.598-62.6c0.336-0.336,0.784-0.522,1.26-0.522s0.924,0.186,1.26,0.522c0.694,0.694,0.694,1.824,0,2.518L5.959,68.929z"/>
</g>
</svg>
