<?xml version="1.0" encoding="utf-8"?>
<!-- Generator: Adobe Illustrator 18.1.1, SVG Export Plug-In . SVG Version: 6.00 Build 0)  -->
<svg version="1.1" id="Layer_1" xmlns="http://www.w3.org/2000/svg" xmlns:xlink="http://www.w3.org/1999/xlink" x="0px" y="0px"
	 viewBox="0 0 72 72" enable-background="new 0 0 72 72" xml:space="preserve">
<g>
	<g>
		<path fill="#ADAFAF" d="M54.6,66.6H6.1c-0.4,0-0.7-0.3-0.7-0.7V17.4c0-0.4,0.3-0.7,0.7-0.7h34.6c0.3,0,0.6,0.2,0.7,0.4
			c0.1,0.3,0.1,0.6-0.2,0.8l-2.5,2.6c-0.1,0.1-0.3,0.2-0.5,0.2H9.4v41.9h41.9V33.7c0-0.2,0.1-0.4,0.2-0.5l2.6-2.5
			c0.2-0.2,0.5-0.3,0.8-0.2c0.3,0.1,0.4,0.4,0.4,0.7v34.8C55.3,66.3,55,66.6,54.6,66.6z"/>
	</g>
	<g>
		<path fill="#ADAFAF" d="M31.8,47.1C31.8,47.1,31.8,47.1,31.8,47.1L25.6,47c-0.4,0-0.7-0.3-0.7-0.7l-0.1-6.2c0-0.2,0.1-0.4,0.2-0.5
			l28.8-28.9c0.3-0.3,0.8-0.3,1,0l1.8,1.6c0.3,0.3,0.3,0.7,0,1L28.4,41.6l0,1.9l2,0l28.3-28.3c0.1-0.1,0.7-0.5,1,0l1.5,1.8
			c0.3,0.3,0.3,0.8,0,1L32.3,46.9C32.2,47,32,47.1,31.8,47.1z"/>
	</g>
	<g>
		<path fill="#ADAFAF" d="M63.3,15.7c-0.2,0-0.4-0.1-0.5-0.2l-6.3-6.3c-0.3-0.3-0.3-0.7,0-1c0,0,1.5-1.5,1.8-1.8
			c1.2-1.2,3.4-1.2,4.6,0L65.7,9c1.3,1.3,1.3,3.4,0,4.6l-1.8,1.8C63.7,15.6,63.5,15.7,63.3,15.7L63.3,15.7z"/>
	</g>
</g>
</svg>
