<?xml version="1.0" encoding="utf-8"?>
<!-- Generator: Adobe Illustrator 16.0.0, SVG Export Plug-In . SVG Version: 6.00 Build 0)  -->
<!DOCTYPE svg PUBLIC "-//W3C//DTD SVG 1.1//EN" "http://www.w3.org/Graphics/SVG/1.1/DTD/svg11.dtd">
<svg version="1.1" id="Layer_1" xmlns="http://www.w3.org/2000/svg" xmlns:xlink="http://www.w3.org/1999/xlink" x="0px" y="0px"
	 width="72px" height="72px" viewBox="0 0 72 72" enable-background="new 0 0 72 72" xml:space="preserve">
<g>
	<path fill="#C0C0C0" d="M45.836,6.192c0.5,0.045,12.246,1.26,12.518,18.385c0.016,1.025,0.857,1.846,1.875,1.846
		c0.016,0,0.021,0,0.029,0c1.041-0.02,1.861-0.869,1.846-1.904C61.781,4.049,46.32,2.471,46.16,2.458
		c-0.99-0.033-1.941,0.674-2.029,1.707C44.043,5.192,44.805,6.104,45.836,6.192z"/>
	<path fill="#C0C0C0" d="M11.07,26.54c0.012,0,0.02,0,0.029,0c1.021,0,1.861-0.82,1.875-1.846
		C13.242,7.715,24.979,6.36,25.504,6.309c1.025-0.094,1.783-1,1.695-2.027C27.111,3.249,26.178,2.5,25.17,2.575
		C25.012,2.588,9.547,4.167,9.225,24.635C9.211,25.67,10.035,26.52,11.07,26.54z"/>
	<path fill="#C0C0C0" d="M62.258,51.829c-0.352-0.486-0.916-0.775-1.516-0.775H11.268c-0.6,0-1.164,0.289-1.516,0.773
		c-1.215,1.674-1.855,3.613-1.855,5.617c0,3.072,2.504,5.574,5.58,5.574h17.238v0.938c0,3.08,2.5,5.588,5.572,5.588
		c3.082,0,5.588-2.508,5.588-5.588v-0.938h16.654c3.068,0,5.574-2.502,5.574-5.574C64.104,55.435,63.467,53.493,62.258,51.829z"/>
	<path fill="#C0C0C0" d="M17.385,26.575c0,6.742-1.084,13.204-3.051,18.192c-0.227,0.578-0.158,1.23,0.193,1.742
		c0.348,0.514,0.93,0.82,1.549,0.82h39.846c0.623,0,1.201-0.307,1.547-0.82c0.352-0.512,0.424-1.168,0.197-1.742
		c-1.971-4.992-3.062-11.454-3.062-18.192c0-7.916-5.023-14.977-12.51-17.57l-0.527-0.184l-0.088-0.553
		c-0.439-2.695-2.746-4.654-5.484-4.654c-2.717,0-5.02,1.959-5.479,4.662l-0.09,0.549L29.9,9.004
		C22.412,11.594,17.385,18.659,17.385,26.575z"/>
</g>
</svg>
