<?xml version="1.0" encoding="utf-8"?>
<!-- Generator: Adobe Illustrator 18.1.1, SVG Export Plug-In . SVG Version: 6.00 Build 0)  -->
<svg version="1.1" id="Layer_1" xmlns="http://www.w3.org/2000/svg" xmlns:xlink="http://www.w3.org/1999/xlink" x="0px" y="0px"
	 viewBox="0 0 72 72" enable-background="new 0 0 72 72" xml:space="preserve">
<g>
	
		<path fill-rule="evenodd" clip-rule="evenodd" fill="#C1C3C4" stroke="#FFFFFF" stroke-width="2.8927" stroke-linecap="round" stroke-linejoin="round" stroke-miterlimit="10" d="
		M22,35.4"/>
</g>
<g>
	<g>
		<path fill="#C2C2C2" d="M45,36c0,5.1-4.2,9.3-9.3,9.3c-5.1,0-9.3-4.2-9.3-9.3c0-5.2,4.2-9.3,9.3-9.3C40.8,26.7,45,30.9,45,36z"/>
	</g>
</g>
<g>
	
		<path fill-rule="evenodd" clip-rule="evenodd" fill="#C1C3C4" stroke="#FFFFFF" stroke-width="2.8927" stroke-linecap="round" stroke-linejoin="round" stroke-miterlimit="10" d="
		M22,35.4"/>
</g>
<g>
	<path fill="none" d="M2.5,36.4c0,0,0,0,0.1-0.1c0-0.1-0.1-0.1-0.1-0.1V36.4z"/>
	<path fill="#ADAFAF" d="M69.4,35c-1.6-3.4-10.4-19.3-33.8-19.3C12.3,15.7,3.6,32,2,35.5c-0.2,0.2-0.3,0.4-0.3,0.7v0.3
		c0,0.3,0.1,0.5,0.3,0.7c1.6,3.4,10.5,19.3,33.7,19.3c23.4,0,32.1-16.3,33.7-19.8c0.2-0.2,0.3-0.4,0.3-0.7v-0.3
		C69.7,35.4,69.6,35.1,69.4,35z M2.5,36.4v-0.3c0,0,0,0,0.1,0.1C2.5,36.4,2.5,36.4,2.5,36.4z M35.7,50.1c-7.8,0-14.1-6.3-14.1-14.1
		c0-7.8,6.3-14.1,14.1-14.1c7.8,0,14.1,6.3,14.1,14.1C49.8,43.8,43.5,50.1,35.7,50.1z"/>
</g>
<path fill="#ADAFAF" d="M45,36c0,5.1-4.2,9.3-9.3,9.3c-5.1,0-9.3-4.2-9.3-9.3c0-5.2,4.2-9.3,9.3-9.3C40.8,26.7,45,30.9,45,36z"/>
</svg>
