<?xml version="1.0" encoding="utf-8"?>
<!-- Generator: Adobe Illustrator 18.1.1, SVG Export Plug-In . SVG Version: 6.00 Build 0)  -->
<svg version="1.1" id="Layer_1" xmlns="http://www.w3.org/2000/svg" xmlns:xlink="http://www.w3.org/1999/xlink" x="0px" y="0px"
	 viewBox="0 0 72 72" enable-background="new 0 0 72 72" xml:space="preserve">
<g>
	<g>
		<path fill="#C0C0C0" d="M36,58.3C36,58.3,36,58.3,36,58.3c-6,0-11.6-2.3-15.8-6.6c-4.2-4.2-6.5-9.8-6.5-15.8
			c0-12.3,10-22.3,22.3-22.3c6,0,11.6,2.3,15.8,6.6c4.2,4.2,6.5,9.8,6.5,15.8C58.3,48.3,48.3,58.3,36,58.3z M36,14.5
			c-11.9,0-21.6,9.6-21.6,21.5c0,5.8,2.2,11.2,6.3,15.2c4.1,4.1,9.5,6.3,15.2,6.3l0,0.4v-0.4c11.9,0,21.5-9.6,21.5-21.5
			c0-5.8-2.2-11.2-6.3-15.2C47.2,16.7,41.8,14.5,36,14.5z"/>
	</g>
	<path fill="#C0C0C0" d="M44.9,35.6H28l8.3-8.3c0.2-0.2,0.2-0.4,0-0.6s-0.4-0.2-0.6,0l-9,9c0,0-0.1,0.1-0.1,0.1c0,0.1,0,0.2,0,0.3
		c0,0,0,0.1,0.1,0.1l9,9c0.1,0.1,0.2,0.1,0.3,0.1s0.2,0,0.3-0.1c0.2-0.2,0.2-0.4,0-0.6L28,36.4h16.9c0.2,0,0.4-0.2,0.4-0.4
		S45.1,35.6,44.9,35.6z"/>
</g>
</svg>
