<?xml version="1.0" encoding="utf-8"?>
<!-- Generator: Adobe Illustrator 18.1.1, SVG Export Plug-In . SVG Version: 6.00 Build 0)  -->
<svg version="1.1" id="Layer_1" xmlns="http://www.w3.org/2000/svg" xmlns:xlink="http://www.w3.org/1999/xlink" x="0px" y="0px"
	 viewBox="0 0 64 64" enable-background="new 0 0 64 64" xml:space="preserve">
<g>
	<g>
		<g>
			<path fill="#ADAFAF" d="M32,19.7c1.8,0,3.5,0.4,5.1,1.1l5.7-5.7c-3.1-0.9-6.7-1.4-10.8-1.4c-21.2,0-29,15-30.4,17.9
				c-0.2,0.1-0.3,0.3-0.3,0.5v0.2c0,0.2,0.1,0.5,0.3,0.6c0.9,1.9,4.1,7.7,11.1,12.1l8-8c-0.7-1.5-1.1-3.3-1.1-5.1
				C19.7,25.2,25.2,19.7,32,19.7z"/>
			<path fill="#ADAFAF" d="M62.4,31c-0.9-1.9-4.1-7.7-11.1-12.1l-8,8c0.7,1.5,1.1,3.2,1.1,5.1c0,6.8-5.5,12.3-12.3,12.3
				c-1.8,0-3.5-0.4-5.1-1.1l-5.7,5.7c3.1,0.9,6.7,1.4,10.8,1.4c21.2,0,29-15,30.4-17.9c0.2-0.1,0.3-0.3,0.3-0.5v-0.2
				C62.7,31.4,62.5,31.2,62.4,31z"/>
		</g>
		<path fill="#ADAFAF" d="M23.6,32c0,0.7,0.1,1.3,0.3,2L34,23.9c-0.6-0.2-1.3-0.3-2-0.3C27.4,23.6,23.6,27.4,23.6,32z"/>
		<path fill="#ADAFAF" d="M32,40.4c4.6,0,8.4-3.8,8.4-8.4c0-0.7-0.1-1.3-0.3-2L30,40.1C30.7,40.3,31.3,40.4,32,40.4z"/>
	</g>
	<g>
		<path fill="#ADAFAF" d="M51.7,10.4c-0.5,0-1,0.2-1.3,0.6L11,50.4c-0.4,0.4-0.6,0.8-0.6,1.3c0,0.5,0.2,1,0.6,1.3
			c0.7,0.7,2,0.7,2.7,0L53,13.7c0.7-0.7,0.7-1.9,0-2.7C52.7,10.6,52.2,10.4,51.7,10.4z"/>
		<path fill="#ADAFAF" d="M53,13.7L13.7,53c-0.7,0.7-2,0.7-2.7,0c-0.4-0.4-0.6-0.8-0.6-1.3c0-0.5,0.2-1,0.6-1.3L50.3,11
			c0.4-0.4,0.8-0.6,1.3-0.6c0.5,0,1,0.2,1.3,0.5C53.8,11.7,53.8,12.9,53,13.7z"/>
	</g>
</g>
</svg>
