<?xml version="1.0" encoding="utf-8"?>
<!-- Generator: Adobe Illustrator 18.1.1, SVG Export Plug-In . SVG Version: 6.00 Build 0)  -->
<svg version="1.1" id="Layer_1" xmlns="http://www.w3.org/2000/svg" xmlns:xlink="http://www.w3.org/1999/xlink" x="0px" y="0px"
	 viewBox="0 0 64 64" enable-background="new 0 0 64 64" xml:space="preserve">
<g>
	<g>
		<g>
			<path fill="#C0C0C0" d="M56.7,21.9c-3.2-4-7.6-6.3-11.8-6.3c-5.6,0-7.9,2.6-11.8,2.6c-4,0-7-2.6-11.8-2.6
				c-4.7,0-9.7,2.9-12.9,7.8c-4.5,6.9-3.7,19.9,3.5,30.9c2.6,4,6.1,8.4,10.6,8.4c4,0,5.2-2.6,10.6-2.6c5.5,0,6.5,2.6,10.5,2.6
				c4.5,0,8.2-5,10.8-8.9c1.9-2.8,2.6-4.3,4-7.5C47.9,42.4,46.3,27.6,56.7,21.9 M40.6,11.2c2-2.6,3.6-6.3,3-10
				c-3.3,0.2-7.2,2.3-9.4,5.1c-2,2.5-3.7,6.2-3.1,9.8C34.7,16.1,38.5,14,40.6,11.2"/>
		</g>
	</g>
</g>
</svg>
