<?xml version="1.0" encoding="utf-8"?>
<!-- Generator: Adobe Illustrator 18.1.1, SVG Export Plug-In . SVG Version: 6.00 Build 0)  -->
<svg version="1.1" id="Layer_1" xmlns="http://www.w3.org/2000/svg" xmlns:xlink="http://www.w3.org/1999/xlink" x="0px" y="0px"
	 viewBox="0 0 64 64" enable-background="new 0 0 64 64" xml:space="preserve">
<g>
	<g>
		<g>
			<path fill="#ADAFAF" d="M62.4,31C60.9,27.9,53,13.7,32,13.7c-21.2,0-29,15-30.4,17.9c-0.2,0.1-0.3,0.3-0.3,0.5v0.2
				c0,0.2,0.1,0.5,0.3,0.6c1.5,3.1,9.4,17.4,30.4,17.4c21.2,0,29-15,30.4-17.9c0.2-0.1,0.2-0.3,0.2-0.5v-0.2
				C62.7,31.4,62.5,31.2,62.4,31z M32,44.3c-6.8,0-12.3-5.5-12.3-12.3c0-6.8,5.5-12.3,12.3-12.3c6.8,0,12.3,5.5,12.3,12.3
				C44.3,38.8,38.8,44.3,32,44.3z"/>
		</g>
		<path fill="#ADAFAF" d="M40.4,32c0,4.6-3.8,8.4-8.4,8.4s-8.4-3.8-8.4-8.4s3.8-8.4,8.4-8.4S40.4,27.4,40.4,32z"/>
	</g>
</g>
</svg>
