<?xml version="1.0" encoding="utf-8"?>
<!-- Generator: Adobe Illustrator 18.1.1, SVG Export Plug-In . SVG Version: 6.00 Build 0)  -->
<svg version="1.1" id="Layer_1" xmlns="http://www.w3.org/2000/svg" xmlns:xlink="http://www.w3.org/1999/xlink" x="0px" y="0px"
	 viewBox="0 0 64 64" enable-background="new 0 0 64 64" xml:space="preserve">
<g>
	<g>
		<g>
			<g>
				<path fill="#C0C0C0" d="M9.2,21.2L9.2,21.2c-2.2,0-3.8,1.7-3.8,3.7v16.2c0,2,1.7,3.7,3.7,3.7h0.2c2.1,0,3.7-1.7,3.7-3.7V25
					C12.9,22.9,11.3,21.2,9.2,21.2z"/>
				<path fill="#C0C0C0" d="M14.7,47.4c0,1.9,1.5,3.4,3.4,3.4h3.7v8.8c0,2.1,1.7,3.7,3.7,3.7h0.2c2.1,0,3.7-1.7,3.7-3.7v-8.8h5.1
					v8.8c0,2.1,1.7,3.7,3.7,3.7h0.2c2.1,0,3.7-1.7,3.7-3.7v-8.8h3.7c1.9,0,3.4-1.5,3.4-3.4V21.8H14.7V47.4z"/>
				<path fill="#C0C0C0" d="M54.9,21.2h-0.2c-2.1,0-3.7,1.7-3.7,3.7v16.2c0,2,1.7,3.7,3.7,3.7h0.2c2.1,0,3.7-1.7,3.7-3.7V25
					C58.7,22.9,57,21.2,54.9,21.2z"/>
			</g>
			<g>
				<path fill="#C0C0C0" d="M40.8,6.4l2.9-4.5c0.1-0.2,0.2-0.4,0.1-0.6c0-0.2-0.2-0.4-0.3-0.5c-0.4-0.3-0.9-0.1-1.1,0.2l-3,4.6
					c0,0,0,0,0,0.1C37,4.8,34.6,4.3,32,4.3s-5.1,0.5-7.3,1.4l0,0l-3-4.6c-0.2-0.4-0.8-0.5-1.1-0.2c-0.2,0.1-0.3,0.3-0.4,0.5
					c0,0.2,0,0.4,0.1,0.6l2.9,4.4l0,0c-5.1,2.6-8.6,7.4-8.6,12.9c0,0.3,0,0.7,0,1h34.7c0-0.3,0.1-0.7,0.1-1
					C49.4,13.8,45.9,9,40.8,6.4z M26.8,15.2c-1.3,0-2.4-1.1-2.4-2.4s1.1-2.4,2.4-2.4s2.4,1.1,2.4,2.4S28.1,15.2,26.8,15.2z
					 M37.2,15.2c-1.3,0-2.4-1.1-2.4-2.4s1.1-2.4,2.4-2.4c1.3,0,2.4,1.1,2.4,2.4S38.5,15.2,37.2,15.2z"/>
			</g>
		</g>
	</g>
</g>
</svg>
