<?xml version="1.0" encoding="utf-8"?>
<!-- Generator: Adobe Illustrator 16.0.4, SVG Export Plug-In . SVG Version: 6.00 Build 0)  -->
<!DOCTYPE svg PUBLIC "-//W3C//DTD SVG 1.1//EN" "http://www.w3.org/Graphics/SVG/1.1/DTD/svg11.dtd">
<svg version="1.1" id="Layer_1" xmlns="http://www.w3.org/2000/svg" xmlns:xlink="http://www.w3.org/1999/xlink" x="0px" y="0px"
	 width="72px" height="72px" viewBox="0 0 72 72" enable-background="new 0 0 72 72" xml:space="preserve">
<g>
	<g>
		<path fill="#D9DAD9" d="M61.782,56.336h-3.929V35.545c0-11.971-9.738-21.709-21.708-21.709c-11.971,0-21.709,9.739-21.709,21.709
			v20.791h-3.928V35.545c0-14.137,11.5-25.638,25.637-25.638c14.136,0,25.637,11.501,25.637,25.638V56.336z"/>
	</g>
	<g>
		<rect x="7.538" y="36.911" fill="#D9DAD9" width="10" height="24.69"/>
		<path fill="#D9DAD9" d="M17.538,62.093h-10c-0.271,0-0.491-0.22-0.491-0.491v-24.69c0-0.271,0.22-0.491,0.491-0.491h10
			c0.271,0,0.491,0.22,0.491,0.491v24.69C18.028,61.873,17.809,62.093,17.538,62.093z M8.028,61.11h9.018V37.402H8.028V61.11z"/>
	</g>
	<g>
		<rect x="0.991" y="40.355" fill="#D9DAD9" width="3.768" height="17.803"/>
		<path fill="#D9DAD9" d="M4.759,58.648H0.991c-0.271,0-0.491-0.22-0.491-0.49V40.355c0-0.271,0.22-0.491,0.491-0.491h3.768
			c0.271,0,0.491,0.22,0.491,0.491v17.803C5.25,58.429,5.031,58.648,4.759,58.648z M1.482,57.667h2.786V40.846H1.482V57.667z"/>
	</g>
	<g>
		<rect x="67.241" y="40.355" fill="#D9DAD9" width="3.768" height="17.803"/>
		<path fill="#D9DAD9" d="M71.009,58.648h-3.768c-0.271,0-0.491-0.22-0.491-0.49V40.355c0-0.271,0.22-0.491,0.491-0.491h3.768
			c0.271,0,0.491,0.22,0.491,0.491v17.803C71.5,58.429,71.28,58.648,71.009,58.648z M67.731,57.667h2.786V40.846h-2.786V57.667z"/>
	</g>
	<g>
		<rect x="54.714" y="36.911" fill="#D9DAD9" width="10" height="24.69"/>
		<path fill="#D9DAD9" d="M64.714,62.093h-10c-0.271,0-0.491-0.22-0.491-0.491v-24.69c0-0.271,0.22-0.491,0.491-0.491h10
			c0.271,0,0.491,0.22,0.491,0.491v24.69C65.205,61.873,64.985,62.093,64.714,62.093z M55.205,61.11h9.018V37.402h-9.018V61.11z"/>
	</g>
</g>
</svg>
