<?xml version="1.0" encoding="utf-8"?>
<!-- Generator: Adobe Illustrator 18.1.1, SVG Export Plug-In . SVG Version: 6.00 Build 0)  -->
<svg version="1.1" id="Layer_1" xmlns="http://www.w3.org/2000/svg" xmlns:xlink="http://www.w3.org/1999/xlink" x="0px" y="0px"
	 viewBox="0 0 72 72" enable-background="new 0 0 72 72" xml:space="preserve">
<path fill="none" d="M2.5,36.4C2.5,36.4,2.5,36.4,2.5,36.4c0.1-0.2,0-0.2,0-0.2V36.4z"/>
<g>
	
		<path fill-rule="evenodd" clip-rule="evenodd" fill="#C1C3C4" stroke="#FFFFFF" stroke-width="1.0536" stroke-linecap="round" stroke-linejoin="round" stroke-miterlimit="10" d="
		M72.1-31.8"/>
</g>
<g>
	<g>
		<g>
			<path fill="#ADAFAF" d="M43,52.2c0.9-8.5,1.5-14.7,1.5-18.8c0-0.1,0-0.3,0-0.4L16.3,61.2l1.3,6.6c0.1,0.5,0.4,0.8,0.8,1
				c0.4,0.2,0.9,0.2,1.3-0.1l5.9-3.4l0.7,1.9c0.4,1.3,2.4,2,6.5,2.1h0c4,0,6.2-0.7,6.8-2l0.7-2l5.9,3.4c0.4,0.2,0.9,0.3,1.3,0.1
				c0.4-0.2,0.7-0.6,0.8-1L50,60c0.1-0.5-0.1-1-0.4-1.3L43,52.2z"/>
			<path fill="#ADAFAF" d="M28.6,37c-0.1-0.1-0.1-0.1-0.2-0.2c-2.5-2.5-2.5-6.6,0-9.1c2.4-2.4,6.7-2.4,9.1,0
				c0.1,0.1,0.1,0.1,0.2,0.2l5-5c-2.7-6.9-7.3-11.2-8.7-12.5c-0.5-0.5-1.4-0.6-2.1,0.1c-1.4,1.3-6.3,5.9-8.9,13.5
				c-1.1,2.8-1.6,6.1-1.6,9.2c0,2.8,0.2,6.4,0.5,10.4L28.6,37z"/>
		</g>
		<path fill="#ADAFAF" d="M68.4,5.8L6.2,67.9c-0.7,0.7-1.9,0.7-2.6,0C3.2,67.6,3,67.1,3,66.6c0-0.5,0.2-1,0.6-1.3L65.8,3.1
			c0.4-0.3,0.8-0.5,1.3-0.5c0.5,0,1,0.2,1.3,0.5C69.1,3.8,69.1,5,68.4,5.8z"/>
	</g>
	<path fill="#ADAFAF" d="M30.8,34.9l4.7-4.7c-0.1-0.1-0.1-0.2-0.1-0.2c-0.6-0.6-1.5-1-2.4-1c-0.9,0-1.8,0.4-2.4,1
		c-1.3,1.3-1.3,3.5,0,4.8C30.7,34.8,30.7,34.8,30.8,34.9z"/>
</g>
</svg>
