<?xml version="1.0" encoding="utf-8"?>
<!-- Generator: Adobe Illustrator 16.0.4, SVG Export Plug-In . SVG Version: 6.00 Build 0)  -->
<!DOCTYPE svg PUBLIC "-//W3C//DTD SVG 1.1//EN" "http://www.w3.org/Graphics/SVG/1.1/DTD/svg11.dtd">
<svg version="1.1" id="Layer_1" xmlns="http://www.w3.org/2000/svg" xmlns:xlink="http://www.w3.org/1999/xlink" x="0px" y="0px"
	 width="72px" height="72px" viewBox="0 0 72 72" enable-background="new 0 0 72 72" xml:space="preserve">
<g>
	<path fill="#D9DAD9" d="M71.092,8.314H49.159V1.071c0-0.343-0.294-0.621-0.658-0.621H20.648c-0.363,0-0.658,0.278-0.658,0.621
		v7.244H0.908c-0.364,0-0.658,0.278-0.658,0.621v31.049c0,0.343,0.294,0.621,0.658,0.621h70.184c0.363,0,0.658-0.278,0.658-0.621
		V8.936C71.75,8.593,71.455,8.314,71.092,8.314z M27.003,5.418h15.143v2.896H27.003V5.418z"/>
	<path fill="#D9DAD9" d="M70.872,43.382h-27.57c-0.363,0-0.657,0.277-0.657,0.62l-0.022,6.857l-13.266-0.021v-6.836
		c0-0.343-0.294-0.62-0.658-0.62H1.128c-0.364,0-0.658,0.277-0.658,0.62v26.927c0,0.344,0.294,0.621,0.658,0.621h69.744
		c0.364,0,0.657-0.277,0.657-0.621V44.002C71.529,43.659,71.236,43.382,70.872,43.382z"/>
</g>
</svg>
