<?xml version="1.0" encoding="utf-8"?>
<!-- Generator: Adobe Illustrator 16.0.4, SVG Export Plug-In . SVG Version: 6.00 Build 0)  -->
<!DOCTYPE svg PUBLIC "-//W3C//DTD SVG 1.1//EN" "http://www.w3.org/Graphics/SVG/1.1/DTD/svg11.dtd">
<svg version="1.1" id="Layer_1" xmlns="http://www.w3.org/2000/svg" xmlns:xlink="http://www.w3.org/1999/xlink" x="0px" y="0px"
	 width="72px" height="72px" viewBox="0 0 72 72" enable-background="new 0 0 72 72" xml:space="preserve">
<g>
	<g>
		<rect x="1.042" y="18.152" fill="#D9DAD9" width="69.917" height="43.793"/>
		<path fill="#D9DAD9" d="M70.958,62.487H1.042c-0.299,0-0.542-0.242-0.542-0.542V18.152c0-0.3,0.242-0.542,0.542-0.542h69.917
			c0.3,0,0.542,0.242,0.542,0.542v43.793C71.5,62.245,71.258,62.487,70.958,62.487z M1.583,61.403h68.833V18.694H1.583V61.403z"/>
	</g>
	<g>
		<circle fill="#FFFFFF" cx="37.218" cy="40.049" r="12.089"/>
		<path fill="#FFFFFF" d="M37.218,52.68c-6.964,0-12.63-5.666-12.63-12.631s5.666-12.631,12.63-12.631
			c6.965,0,12.63,5.666,12.63,12.631S44.183,52.68,37.218,52.68z M37.218,28.502c-6.367,0-11.547,5.18-11.547,11.547
			s5.18,11.547,11.547,11.547s11.547-5.18,11.547-11.547S43.585,28.502,37.218,28.502z"/>
	</g>
	<g>
		<polygon fill="#D9DAD9" points="24.025,18 24.025,13.305 10.475,13.305 10.475,18 5.785,18 5.785,10.055 28.716,10.055 28.716,18 
					"/>
		<path fill="#D9DAD9" d="M28.716,18.542h-4.69c-0.299,0-0.542-0.242-0.542-0.542v-4.153H11.017V18c0,0.3-0.242,0.542-0.542,0.542
			h-4.69c-0.299,0-0.542-0.242-0.542-0.542v-7.945c0-0.3,0.242-0.542,0.542-0.542h22.931c0.299,0,0.542,0.242,0.542,0.542V18
			C29.257,18.3,29.015,18.542,28.716,18.542z M24.567,17.458h3.606v-6.861H6.326v6.861h3.607v-4.153c0-0.3,0.242-0.542,0.542-0.542
			h13.551c0.3,0,0.542,0.242,0.542,0.542V17.458z"/>
	</g>
</g>
</svg>
