<?xml version="1.0" encoding="utf-8"?>
<!-- Generator: Adobe Illustrator 18.1.1, SVG Export Plug-In . SVG Version: 6.00 Build 0)  -->
<svg version="1.1" id="Layer_1" xmlns="http://www.w3.org/2000/svg" xmlns:xlink="http://www.w3.org/1999/xlink" x="0px" y="0px"
	 viewBox="0 0 72 72" enable-background="new 0 0 72 72" xml:space="preserve">
<path fill="none" d="M2.5,36.4c0,0,0,0,0.1-0.1c0-0.1-0.1-0.1-0.1-0.1V36.4z"/>
<g>
	<g>
		<g>
			<path fill="#ADAFAF" d="M11.4,44h-5c-0.8,0-1.4-0.6-1.4-1.3V26.1c0-0.4,0.1-0.7,0.4-0.9c0,0,0,0,0.1,0c0.2-0.2,0.5-0.3,0.9-0.3h5
				c0.8,0,1.4,0.6,1.4,1.3v16.7c0,0.3-0.1,0.7-0.4,0.9c0,0,0,0-0.1,0C12,43.9,11.7,44,11.4,44z"/>
		</g>
	</g>
	<g>
		<g>
			<path fill="#ADAFAF" d="M32.9,64.9h-7c-0.8,0-1.4-0.6-1.4-1.3V45.7c-4.5-1-7.6-1.4-8.5-1.5c-0.7-0.1-1.3-0.7-1.3-1.4V26
				c0-0.7,0.5-1.3,1.3-1.4c2-0.3,12.4-1.7,24.1-6.2c7.3-2.8,17.7-8.1,20-9.3c0.7-1.2,1.9-2,3.3-2c2.1,0,3.8,1.8,3.8,3.9v46.7
				c0,2.2-1.7,3.9-3.8,3.9c-1.3,0-2.6-0.7-3.3-2c-3.8-2-13.2-6.7-20-9.3c-1.9-0.7-3.7-1.3-5.5-1.9l-0.3-0.1v15.3
				c0,0.4-0.1,0.7-0.4,0.9C33.6,64.8,33.3,64.9,32.9,64.9z"/>
		</g>
	</g>
</g>
</svg>
