<?xml version="1.0" encoding="utf-8"?>
<!-- Generator: Adobe Illustrator 18.1.1, SVG Export Plug-In . SVG Version: 6.00 Build 0)  -->
<svg version="1.1" id="Layer_1" xmlns="http://www.w3.org/2000/svg" xmlns:xlink="http://www.w3.org/1999/xlink" x="0px" y="0px"
	 viewBox="0 0 42.5 42.5" enable-background="new 0 0 42.5 42.5" xml:space="preserve">
<g>
	<g>
		<path fill="#ADAFAF" d="M29.3,30.9l-3.4-3.4c0.5-4.6,0.7-7.5,0.8-9.5c0-1.4-0.2-2.9-0.7-4.5c-1.5-4.1-4.3-6.4-4.4-6.6
			c-0.1-0.1-0.4-0.1-0.5,0c-0.1,0.1-2.9,2.4-4.3,6.6c-0.5,1.4-0.8,3-0.8,4.5c0,2.5,0.4,6.4,0.7,9.6l-3.3,3.3
			c-0.1,0.1-0.1,0.2-0.1,0.3l0.8,3.9c0,0.1,0.1,0.2,0.2,0.3c0.1,0.1,0.2,0,0.3,0l3.1-1.8c0.1,0,0.1,0.1,0.2,0.1l0.4,1.1
			c0.2,0.5,1.1,0.7,2.9,0.8h0c2.4,0,2.9-0.5,3.1-0.8l0.5-1.3c0,0,0.1,0,0.1-0.1l3.2,1.8c0.1,0.1,0.2,0.1,0.3,0
			c0.1-0.1,0.2-0.2,0.2-0.3l0.8-3.9C29.4,31.1,29.4,31,29.3,30.9z M23.1,19.4c-0.5,0.5-1.1,0.8-1.8,0.8c-0.7,0-1.4-0.3-1.8-0.8
			c-1-1-1-2.7,0-3.7c0.5-0.5,1.1-0.8,1.8-0.8c0.7,0,1.4,0.3,1.8,0.8c0.5,0.5,0.8,1.1,0.8,1.8C23.9,18.2,23.6,18.9,23.1,19.4z"/>
		<path fill="#ADAFAF" d="M21.3,16c-0.4,0-0.8,0.2-1.1,0.5c-0.6,0.6-0.6,1.6,0,2.3c0.3,0.3,0.7,0.5,1.1,0.5c0.4,0,0.8-0.2,1.1-0.5
			c0.3-0.3,0.5-0.7,0.5-1.1c0-0.4-0.2-0.8-0.5-1.1C22.1,16.1,21.7,16,21.3,16z"/>
	</g>
</g>
</svg>
