<?xml version="1.0" encoding="utf-8"?>
<!-- Generator: Adobe Illustrator 18.1.1, SVG Export Plug-In . SVG Version: 6.00 Build 0)  -->
<svg version="1.1" id="Layer_1" xmlns="http://www.w3.org/2000/svg" xmlns:xlink="http://www.w3.org/1999/xlink" x="0px" y="0px"
	 viewBox="0 0 72 72" enable-background="new 0 0 72 72" xml:space="preserve">
<g>
	
		<path fill-rule="evenodd" clip-rule="evenodd" fill="#C1C3C4" stroke="#FFFFFF" stroke-width="2.8927" stroke-linecap="round" stroke-linejoin="round" stroke-miterlimit="10" d="
		M22,35.4"/>
</g>
<g>
	
		<path fill-rule="evenodd" clip-rule="evenodd" fill="#C1C3C4" stroke="#FFFFFF" stroke-width="2.8927" stroke-linecap="round" stroke-linejoin="round" stroke-miterlimit="10" d="
		M22,35.4"/>
</g>
<path fill="none" d="M2.5,36.4c0,0,0,0,0.1-0.1c0-0.1-0.1-0.1-0.1-0.1V36.4z"/>
<g>
	<g>
		<path fill="#AAAAAA" d="M63.3,5.4h-3h-4.3H14.6H9.3H8.7C7.2,5.4,6.1,6.6,6.1,8v45.4c0,1.5,0.8,3.5,1.7,4.6l5.7,6.6
			c1,1.1,2.9,2,4.4,2h45.4c1.5,0,2.6-1.2,2.6-2.6V8C65.9,6.6,64.8,5.4,63.3,5.4z M50.8,27.1H19.9c-1.5,0-2.6-1.2-2.6-2.6V8.6h36.2
			v15.8C53.4,25.9,52.2,27.1,50.8,27.1z"/>
		<path fill="#AAAAAA" d="M40.8,11.6c0-0.4,0.3-0.7,0.7-0.7h6.7c0.4,0,0.7,0.3,0.7,0.7v11c0,0.4-0.3,0.7-0.7,0.7h-6.7
			c-0.4,0-0.7-0.3-0.7-0.7V11.6z"/>
	</g>
</g>
</svg>
