<?xml version="1.0" encoding="utf-8"?>
<!-- Generator: Adobe Illustrator 18.1.1, SVG Export Plug-In . SVG Version: 6.00 Build 0)  -->
<svg version="1.1" id="Layer_1" xmlns="http://www.w3.org/2000/svg" xmlns:xlink="http://www.w3.org/1999/xlink" x="0px" y="0px"
	 viewBox="0 0 72 72" enable-background="new 0 0 72 72" xml:space="preserve">
<g>
	<g>
		
			<rect x="4.4" y="25.6" fill="none" stroke="#ED276D" stroke-width="3" stroke-linecap="round" stroke-linejoin="round" stroke-miterlimit="10" width="41.2" height="41.2"/>
		
			<rect x="26.4" y="5.2" fill="none" stroke="#ED276D" stroke-width="3" stroke-linecap="round" stroke-linejoin="round" stroke-miterlimit="10" width="41.2" height="41.2"/>
	</g>
	<g>
		<g>
			<g>
				<path fill="none" stroke="#ED276D" stroke-width="3" stroke-linecap="round" stroke-linejoin="round" d="M4,27.8
					c0,0,1.8-1.1,1.8-1c0.3,0.5-0.1,8.1,0,8.4C6.2,35.7,20,26.9,20,26.9L5.8,42.7C6,43,26.1,31,26.1,31c0.3,0.4-20.8,20-20.8,20
					c1.2,2.1,19.7-13.6,20.6-11.9c1.5,2.6-22,19.3-21.4,20.2c0,0,20.3-12.1,20.4-11.8c0,0-17.9,17-17.1,18.4
					c0.1,0.3,31.1-21.3,32.6-18.8L22.1,66.2c0.5,0.9,23-14.3,23.4-13.5c0.8,1.3-8.7,11.9-8,13.1c0.4,0.6,7.5-4.5,7.6-4.4"/>
				<path fill="none" stroke="#ED276D" stroke-width="3" stroke-linecap="round" stroke-linejoin="round" d="M26,7.3
					c0,0,1.8-1.1,1.8-1c0.3,0.5-0.1,8.1,0,8.4C28.2,15.2,42,6.5,42,6.5L27.8,22.2c0.3,0.5,28.8-16.6,28.8-16.6
					C56.8,6,37.2,24.8,37.2,24.8c1.8,3.1,28.5-19.7,29.9-17.3c1.5,2.6-22,19.3-21.5,20.2c0,0,20.3-12.1,20.4-11.8
					c0,0-20.2,18.1-19.3,19.7C46.9,35.8,66,22.4,66.9,24L46.3,44.5c0.5,0.8,20.9-12.9,21.2-12.3c0.8,1.4-8.7,11.9-8,13.1
					c0.4,0.6,7.5-4.6,7.6-4.4"/>
			</g>
		</g>
	</g>
</g>
</svg>
