<?xml version="1.0" encoding="utf-8"?>
<!-- Generator: Adobe Illustrator 18.1.1, SVG Export Plug-In . SVG Version: 6.00 Build 0)  -->
<svg version="1.1" id="Layer_1" xmlns="http://www.w3.org/2000/svg" xmlns:xlink="http://www.w3.org/1999/xlink" x="0px" y="0px"
	 viewBox="0 0 64 64" enable-background="new 0 0 64 64" xml:space="preserve">
<path fill="#ADAFAF" d="M63.5,61.5L44.7,42.7c9-10.1,8.7-25.5-0.9-35.2C39,2.8,32.5,0.1,25.7,0.1c-6.8,0-13.3,2.7-18.1,7.5
	c-10,10-10,26.2,0,36.1c4.8,4.8,11.3,7.5,18.1,7.5c6.4,0,12.3-2.3,17-6.5l18.7,18.8c0.3,0.3,0.6,0.4,1,0.4c0.4,0,0.7-0.1,1-0.4
	C64,62.9,64,62.1,63.5,61.5z M9.6,41.8c-8.9-8.9-8.9-23.3,0-32.2c4.3-4.3,10-6.7,16.1-6.7c6.1,0,11.8,2.4,16.1,6.7
	c8.8,8.9,8.8,23.3,0,32.2c-4.3,4.3-10,6.7-16.1,6.7C19.6,48.5,13.9,46.1,9.6,41.8z"/>
</svg>
