<?xml version="1.0" encoding="utf-8"?>
<!-- Generator: Adobe Illustrator 16.0.0, SVG Export Plug-In . SVG Version: 6.00 Build 0)  -->
<!DOCTYPE svg PUBLIC "-//W3C//DTD SVG 1.1//EN" "http://www.w3.org/Graphics/SVG/1.1/DTD/svg11.dtd">
<svg version="1.1" id="Layer_1" xmlns="http://www.w3.org/2000/svg" xmlns:xlink="http://www.w3.org/1999/xlink" x="0px" y="0px"
	 width="72px" height="72px" viewBox="0 0 72 72" enable-background="new 0 0 72 72" xml:space="preserve">
<g>
	<g>
		<path fill="#ADAFAF" d="M29.316,57.557c-7.559,0-14.668-2.953-20.016-8.309C-1.695,38.244-1.695,20.33,9.297,9.318
			c5.344-5.352,12.453-8.301,20.012-8.301c7.551,0,14.648,2.941,19.992,8.285c10.969,10.992,10.969,28.926,0.012,39.98
			C43.941,54.615,36.848,57.557,29.316,57.557z M29.309,6.119c-6.195,0-12.02,2.414-16.398,6.805
			c-9.012,9.023-9.012,23.699-0.004,32.719c4.387,4.391,10.215,6.812,16.41,6.812c6.176,0,11.992-2.41,16.383-6.777
			c8.98-9.055,8.98-23.762-0.004-32.773C41.316,8.529,35.496,6.119,29.309,6.119z"/>
	</g>
	<g>
		<path fill="#ADAFAF" d="M68.398,70.982c-0.652,0-1.309-0.25-1.805-0.746L45.695,49.287c-0.996-1-0.996-2.613,0-3.605
			c0.996-0.996,2.609-0.996,3.605,0l20.898,20.949c0.996,1,0.996,2.613,0,3.605C69.703,70.732,69.051,70.982,68.398,70.982z"/>
	</g>
</g>
</svg>
