<?xml version="1.0" encoding="utf-8"?>
<!-- Generator: Adobe Illustrator 18.1.1, SVG Export Plug-In . SVG Version: 6.00 Build 0)  -->
<svg version="1.1" id="Layer_1" xmlns="http://www.w3.org/2000/svg" xmlns:xlink="http://www.w3.org/1999/xlink" x="0px" y="0px"
	 viewBox="0 0 42.5 42.5" enable-background="new 0 0 42.5 42.5" xml:space="preserve">
<g>
	<g>
		<g>
			<path fill="#ADAFAF" d="M30.9,18.1l-0.1,0l-0.5-1.2l0.1-0.1c1.5-3.3,1.4-3.4,1.1-3.7l-2-1.9c-0.1-0.1-0.2-0.1-0.3-0.1
				c-0.1,0-0.4,0-3.3,1.3l-0.1,0.1L24.5,12l0-0.1c-1.4-3.4-1.5-3.4-1.8-3.4h-2.8c-0.3,0-0.5,0-1.8,3.4l0,0.1l-1.2,0.5l-0.1,0
				c-2-0.8-3.1-1.2-3.4-1.2c-0.1,0-0.3,0.1-0.3,0.1l-2,1.9c-0.3,0.2-0.4,0.3,1.2,3.6l0.1,0.1l-0.5,1.2l-0.1,0
				c-3.5,1.3-3.5,1.5-3.5,1.8v2.7c0,0.3,0,0.5,3.5,1.7l0.1,0l0.5,1.2l-0.1,0.1c-1.5,3.3-1.4,3.4-1.1,3.7l2,1.9
				c0.1,0.1,0.2,0.1,0.3,0.1c0.1,0,0.4,0,3.3-1.3l0.1-0.1l1.2,0.5l0,0.1c1.4,3.4,1.5,3.4,1.8,3.4h2.8c0.3,0,0.5,0,1.8-3.4l0-0.1
				l1.2-0.5l0.1,0c2,0.8,3.1,1.2,3.4,1.2c0.1,0,0.3-0.1,0.3-0.1l2-1.9c0.2-0.2,0.3-0.3-1.2-3.6l-0.1-0.1l0.5-1.2l0.1,0
				c3.5-1.3,3.5-1.5,3.5-1.8v-2.7C34.3,19.5,34.3,19.4,30.9,18.1z M21.3,26c-2.7,0-4.9-2.1-4.9-4.8c0-2.6,2.2-4.8,4.9-4.8
				c2.7,0,4.9,2.1,4.9,4.8C26.1,23.9,23.9,26,21.3,26z"/>
			<path fill="#ADAFAF" d="M21.3,18.4c-1.6,0-2.9,1.3-2.9,2.9c0,1.6,1.3,2.9,2.9,2.9c1.6,0,2.9-1.3,2.9-2.9
				C24.2,19.7,22.9,18.4,21.3,18.4z"/>
		</g>
	</g>
</g>
</svg>
