<?xml version="1.0" encoding="utf-8"?>
<!-- Generator: Adobe Illustrator 16.0.0, SVG Export Plug-In . SVG Version: 6.00 Build 0)  -->
<!DOCTYPE svg PUBLIC "-//W3C//DTD SVG 1.1//EN" "http://www.w3.org/Graphics/SVG/1.1/DTD/svg11.dtd">
<svg version="1.1" id="Layer_1" xmlns="http://www.w3.org/2000/svg" xmlns:xlink="http://www.w3.org/1999/xlink" x="0px" y="0px"
	 width="72px" height="72px" viewBox="0 0 72 72" enable-background="new 0 0 72 72" xml:space="preserve">
<g>
	<g>
		<path fill="#6D6F70" d="M6.937,23.249H5.093H1.089c-0.288,0-0.563,0.116-0.764,0.319l-0.004,0.001C0.113,23.775,0,24.056,0,24.345
			v19.554c0.004,0.6,0.617,1.086,1.218,1.086h1.84h4c0.292,0,0.567-0.115,0.772-0.32c0.004,0,0.004,0,0.004,0
			c0.205-0.205,0.317-0.484,0.313-0.773V24.337C8.146,23.738,7.538,23.249,6.937,23.249z"/>
	</g>
	<g>
		<path fill="#6D6F70" d="M68.024,2.49c-1.477,0-2.803,0.842-3.491,2.183c-3.875,2.01-15.316,7.843-23.604,11.008
			c-15.013,5.735-28.307,7.313-28.44,7.329c-0.613,0.071-1.076,0.589-1.076,1.207v19.677c0,0.619,0.463,1.141,1.076,1.209
			c0.042,0.006,4.192,0.498,10.407,1.904v21.42c0.005,0.598,0.618,1.084,1.219,1.084h1.844h6.432c0.292,0,0.567-0.111,0.771-0.32
			l0,0c0.209-0.205,0.321-0.482,0.321-0.771V49.896l0.914,0.256c2.294,0.732,4.43,1.48,6.532,2.283
			c7.95,3.037,18.892,8.561,23.609,11.004c0.688,1.34,2.01,2.184,3.482,2.184c2.194,0,3.979-1.869,3.979-4.162V6.652
			C71.996,4.355,70.215,2.49,68.024,2.49z"/>
	</g>
</g>
</svg>
