<?xml version="1.0" encoding="utf-8"?>
<!-- Generator: Adobe Illustrator 16.0.0, SVG Export Plug-In . SVG Version: 6.00 Build 0)  -->
<!DOCTYPE svg PUBLIC "-//W3C//DTD SVG 1.1//EN" "http://www.w3.org/Graphics/SVG/1.1/DTD/svg11.dtd">
<svg version="1.1" id="Layer_1" xmlns="http://www.w3.org/2000/svg" xmlns:xlink="http://www.w3.org/1999/xlink" x="0px" y="0px"
	 width="72px" height="72px" viewBox="0 0 72 72" enable-background="new 0 0 72 72" xml:space="preserve">
<g>
	<path fill="#C0C0C0" d="M58.501,1.459c-0.825-0.818-1.822-1.258-2.979-1.258H16.48c-1.193,0-2.208,0.418-3.017,1.225
		c-0.805,0.809-1.225,1.823-1.225,2.979v63.189c0,2.385,1.856,4.202,4.241,4.202h39.042c1.156,0,2.167-0.426,2.979-1.221
		c0.832-0.816,1.26-1.79,1.26-2.981V4.405C59.761,3.249,59.321,2.283,58.501,1.459L58.501,1.459z M38.314,68.468
		c-1.298,1.302-3.331,1.302-4.627,0c-1.298-1.295-1.315-3.31,0-4.655c1.28-1.312,3.349-1.312,4.627,0
		C39.627,65.158,39.611,67.173,38.314,68.468L38.314,68.468z M55.87,60.061c0,0.244-0.105,0.352-0.348,0.352H16.48
		c-0.247,0-0.351-0.107-0.351-0.352V4.405c0-0.241,0.104-0.35,0.351-0.35h39.042c0.242,0,0.348,0.108,0.348,0.35V60.061z
		 M55.87,60.061"/>
</g>
</svg>
