<?xml version="1.0" encoding="utf-8"?>
<!-- Generator: Adobe Illustrator 18.1.1, SVG Export Plug-In . SVG Version: 6.00 Build 0)  -->
<svg version="1.1" id="Layer_1" xmlns="http://www.w3.org/2000/svg" xmlns:xlink="http://www.w3.org/1999/xlink" x="0px" y="0px"
	 viewBox="0 0 42.5 42.5" enable-background="new 0 0 42.5 42.5" xml:space="preserve">
<g>
	<g>
		<g>
			<path fill="#ADAFAF" d="M12.2,29.7c0,0.4,0.1,0.7,0.3,1c0.3,0.3,0.5,0.5,0.9,0.5l9.2,1.1c0.4,0,0.7,0,0.9-0.3
				c-0.1-0.1-0.2-0.3-0.3-0.4l-6.8-11.6c-0.3-0.4-0.4-1-0.5-1.6s-0.1-1.2,0.1-1.7l1.2-4.5l-2,1.6c-0.3,0.3-0.6,0.6-0.9,1.1
				c-0.3,0.5-0.5,1-0.5,1.4L12.2,29.7z"/>
		</g>
		<path fill="#ADAFAF" d="M24.8,31.7c0.4,0.1,0.7,0,1.1-0.1l8-4.7c0.1-0.1,0.2-0.1,0.3-0.2c0.2-0.2,0.3-0.4,0.3-0.6
			c0.1-0.4,0-0.7-0.1-1.1l-6.8-11.6c-0.2-0.4-0.5-0.7-1-1.1c-0.4-0.3-0.9-0.6-1.3-0.7l-5.4-1.4c-0.4-0.1-0.7,0-1.1,0.1
			c-0.1,0.1-0.2,0.1-0.3,0.2c-0.2,0.2-0.3,0.4-0.3,0.6l-1.4,5.4c-0.1,0.4-0.1,0.9,0,1.5c0.1,0.6,0.2,1.1,0.4,1.4l6.8,11.6
			C24.2,31.4,24.5,31.6,24.8,31.7z M19.9,15.5c-0.2-0.4-0.3-0.8-0.2-1.3c0.1-0.3,0.2-0.5,0.4-0.8c0.1-0.1,0.2-0.2,0.3-0.3
			c0.4-0.2,0.8-0.3,1.3-0.2c0.4,0.1,0.8,0.4,1,0.8c0.2,0.4,0.3,0.8,0.2,1.3c-0.1,0.4-0.4,0.8-0.8,1c-0.4,0.2-0.8,0.3-1.3,0.2
			C20.5,16.2,20.1,15.9,19.9,15.5z"/>
		<g>
			<path fill="#ADAFAF" d="M8.1,26.7c0.1,0.4,0.3,0.6,0.7,0.8l2.7,1.5l1.3-11.4l-4.5,8.1C8,26,8,26.4,8.1,26.7z"/>
		</g>
	</g>
</g>
</svg>
