<?xml version="1.0" encoding="utf-8"?>
<!-- Generator: Adobe Illustrator 18.1.1, SVG Export Plug-In . SVG Version: 6.00 Build 0)  -->
<svg version="1.1" id="Layer_1" xmlns="http://www.w3.org/2000/svg" xmlns:xlink="http://www.w3.org/1999/xlink" x="0px" y="0px"
	 viewBox="0 0 72 72" enable-background="new 0 0 72 72" xml:space="preserve">
<path fill="none" d="M2.5,36.4c0,0,0,0,0.1-0.1c0-0.1-0.1-0.1-0.1-0.1V36.4z"/>
<g>
	<g>
		<g>
			<path fill="#AEAEAE" d="M9.8,45.6H5.2c-0.7,0-1.3-0.6-1.3-1.2V28.7c0-0.3,0.1-0.7,0.4-0.9c0,0,0,0,0,0c0.2-0.2,0.5-0.3,0.8-0.3
				h4.7c0.7,0,1.3,0.6,1.3,1.2v15.7c0,0.3-0.1,0.6-0.4,0.9c0,0,0,0-0.1,0C10.4,45.5,10.1,45.6,9.8,45.6z"/>
		</g>
	</g>
	<g>
		<path fill="#AEAEAE" d="M66.9,3.2c-0.5,0-1,0.2-1.3,0.5L3.7,65.7C3.4,66,3.2,66.5,3.2,67c0,0.5,0.2,1,0.5,1.3
			c0.7,0.7,1.9,0.7,2.6,0L68.3,6.4c0.7-0.7,0.7-1.9,0-2.6C67.9,3.4,67.5,3.2,66.9,3.2z"/>
		<g>
			<path fill="#AEAEAE" d="M36.8,21.5c-11,4.2-20.8,5.6-22.7,5.8c-0.7,0.1-1.2,0.6-1.2,1.3v15.8c0,0.7,0.5,1.3,1.2,1.3
				c0.6,0.1,2.5,0.3,5.2,0.9l31.5-31.5C46.9,17.1,41.3,19.7,36.8,21.5z"/>
			<path fill="#AEAEAE" d="M22.1,64c0,0.7,0.6,1.2,1.3,1.2h6.6c0.3,0,0.6-0.1,0.9-0.4c0.2-0.2,0.4-0.5,0.4-0.9V49.7l0.3,0.1
				c1.7,0.6,3.4,1.2,5.2,1.8c6.4,2.4,15.2,6.9,18.8,8.7c0.6,1.1,1.8,1.8,3.1,1.8c2,0,3.6-1.7,3.6-3.7V15.8L22.1,55.9V64z"/>
		</g>
		<path fill="#ADAFAF" d="M68.3,6.4L6.4,68.3c-0.7,0.7-1.9,0.7-2.6,0c-0.3-0.4-0.5-0.8-0.5-1.3c0-0.5,0.2-1,0.5-1.3L65.6,3.7
			c0.4-0.3,0.8-0.5,1.3-0.5c0.5,0,1,0.2,1.3,0.5C69,4.5,69,5.6,68.3,6.4z"/>
	</g>
</g>
</svg>
