<?xml version="1.0" encoding="utf-8"?>
<!-- Generator: Adobe Illustrator 16.0.0, SVG Export Plug-In . SVG Version: 6.00 Build 0)  -->
<!DOCTYPE svg PUBLIC "-//W3C//DTD SVG 1.1//EN" "http://www.w3.org/Graphics/SVG/1.1/DTD/svg11.dtd">
<svg version="1.1" id="Layer_1" xmlns="http://www.w3.org/2000/svg" xmlns:xlink="http://www.w3.org/1999/xlink" x="0px" y="0px"
	 width="72px" height="72px" viewBox="0 0 72 72" enable-background="new 0 0 72 72" xml:space="preserve">
<g>
	<g>
		<path fill="#ADAFAF" d="M49.212,57.248c-3.707-1.656-5.297-6.943-3.305-10.354c4.338-7.541,4.945-15.721,4.15-24.117
			c-0.115-1.393-0.65-3.152-1.66-3.98c-2.514-2.102-5.209-4.158-8.186-5.539c-5.307-2.459-12.322,0.01-15.461,4.996
			c-0.186,0.291-0.348,0.639-0.385,0.973c-1.498,9.41-1.67,18.674,2.867,27.449c0.256,0.512,0.426,1.115,0.494,1.688
			c0.496,5.191-2.168,8.852-7.082,10.512c-2.566,0.877-5.068,1.965-7.58,3.016c6.115,5.416,14.133,8.738,22.93,8.738
			c8.994,0,17.166-3.469,23.33-9.109C55.938,60.141,52.544,58.75,49.212,57.248z"/>
	</g>
	<g>
		<path fill="#ADAFAF" d="M36.001,71.594C16.376,71.594,0.407,55.625,0.407,36S16.376,0.406,36.001,0.406
			c19.623,0,35.592,15.969,35.592,35.594S55.624,71.594,36.001,71.594z M36.001,2.293C17.417,2.293,2.294,17.416,2.294,36
			c0,18.582,15.123,33.705,33.707,33.705c18.58,0,33.703-15.123,33.703-33.705C69.704,17.416,54.581,2.293,36.001,2.293z"/>
	</g>
</g>
</svg>
