<?xml version="1.0" encoding="utf-8"?>
<!-- Generator: Adobe Illustrator 16.0.0, SVG Export Plug-In . SVG Version: 6.00 Build 0)  -->
<!DOCTYPE svg PUBLIC "-//W3C//DTD SVG 1.1//EN" "http://www.w3.org/Graphics/SVG/1.1/DTD/svg11.dtd">
<svg version="1.1" id="Layer_1" xmlns="http://www.w3.org/2000/svg" xmlns:xlink="http://www.w3.org/1999/xlink" x="0px" y="0px"
	 width="72px" height="72px" viewBox="0 0 72 72" enable-background="new 0 0 72 72" xml:space="preserve">
<g>
	<g>
		<g>
			<path fill="#AEAEAE" d="M36,21.842c2.072,0,4.031,0.473,5.807,1.273l6.523-6.529c-3.602-1.02-7.699-1.646-12.379-1.646
				c-24.363,0-33.354,17.205-34.898,20.625c-0.18,0.143-0.293,0.344-0.293,0.592v0.268c0,0.283,0.137,0.541,0.352,0.701
				c1.02,2.143,4.748,8.883,12.744,13.943l9.244-9.244c-0.805-1.777-1.275-3.736-1.275-5.812C21.824,28.182,28.17,21.842,36,21.842z
				"/>
			<path fill="#AEAEAE" d="M70.895,34.904c-1.018-2.135-4.738-8.881-12.744-13.949l-9.25,9.252c0.797,1.773,1.27,3.729,1.27,5.805
				c0,7.824-6.346,14.176-14.17,14.176c-2.076,0-4.033-0.471-5.812-1.275L23.67,55.43c3.602,1.021,7.697,1.646,12.371,1.646
				c24.393,0,33.375-17.221,34.908-20.625c0.178-0.141,0.289-0.344,0.289-0.59V35.6C71.238,35.318,71.107,35.062,70.895,34.904z"/>
		</g>
		<path fill="#AEAEAE" d="M26.348,36.012c0,0.783,0.119,1.537,0.295,2.266l11.615-11.619c-0.729-0.176-1.479-0.291-2.258-0.291
			C30.672,26.367,26.348,30.684,26.348,36.012z"/>
		<path fill="#AEAEAE" d="M36,45.658c5.328,0,9.645-4.318,9.645-9.646c0-0.783-0.119-1.533-0.291-2.258L33.74,45.361
			C34.467,45.541,35.217,45.658,36,45.658z"/>
	</g>
	<g>
		<path fill="#AEAEAE" d="M58.625,11.215c-0.576,0-1.127,0.227-1.539,0.639L11.834,57.111c-0.412,0.406-0.639,0.949-0.639,1.525
			c0,0.586,0.227,1.129,0.639,1.541c0.805,0.811,2.242,0.818,3.08-0.008l45.258-45.25c0.846-0.846,0.846-2.221,0-3.074
			C59.76,11.441,59.217,11.215,58.625,11.215z"/>
		<path fill="#AEAEAE" d="M60.172,14.92L14.914,60.17c-0.838,0.826-2.275,0.818-3.08,0.008c-0.412-0.412-0.639-0.955-0.639-1.541
			c0-0.576,0.227-1.119,0.639-1.525l45.252-45.258c0.412-0.412,0.963-0.639,1.539-0.639c0.592,0,1.135,0.227,1.547,0.631
			C61.018,12.699,61.018,14.074,60.172,14.92z"/>
	</g>
</g>
</svg>
