<?xml version="1.0" encoding="utf-8"?>
<!-- Generator: Adobe Illustrator 16.0.0, SVG Export Plug-In . SVG Version: 6.00 Build 0)  -->
<!DOCTYPE svg PUBLIC "-//W3C//DTD SVG 1.1//EN" "http://www.w3.org/Graphics/SVG/1.1/DTD/svg11.dtd">
<svg version="1.1" id="Layer_1" xmlns="http://www.w3.org/2000/svg" xmlns:xlink="http://www.w3.org/1999/xlink" x="0px" y="0px"
	 width="72px" height="72px" viewBox="0 0 72 72" enable-background="new 0 0 72 72" xml:space="preserve">
<g>
	<g>
		<path fill="#C0C0C0" d="M36.001,22.864c-1.063,0-2.059,0.411-2.804,1.155c-1.547,1.546-1.545,4.062,0,5.606
			c0.745,0.746,1.74,1.154,2.804,1.154c1.062,0,2.058-0.409,2.8-1.154c0.746-0.744,1.156-1.739,1.156-2.802
			c0-1.063-0.41-2.059-1.156-2.803C38.059,23.274,37.062,22.864,36.001,22.864z"/>
		<path fill="#C0C0C0" d="M55.793,59.893l-8.342-8.344c1.197-11.369,1.846-18.621,1.925-23.489c0-3.438-0.594-7.197-1.777-11.219
			C43.931,6.61,36.943,0.896,36.646,0.618c-0.363-0.342-0.932-0.342-1.295,0c-0.296,0.278-7.295,6-10.755,16.405
			c-1.272,3.392-1.97,7.313-1.97,11.042c0,6.195,0.897,15.796,1.668,23.742l-8.09,8.088c-0.223,0.225-0.319,0.543-0.257,0.853
			l1.912,9.563c0.06,0.298,0.261,0.547,0.536,0.674c0.279,0.127,0.6,0.109,0.859-0.041l7.715-4.43
			c0.176,0.109,0.365,0.217,0.572,0.314l1.062,2.825c0.391,1.176,2.808,1.845,7.207,1.985h0.012c5.86,0,7.247-1.196,7.565-1.953
			l1.176-3.132c0.094-0.054,0.18-0.11,0.264-0.164l7.92,4.55c0.265,0.15,0.584,0.168,0.858,0.043
			c0.276-0.129,0.476-0.378,0.536-0.676l1.912-9.563C56.114,60.436,56.02,60.117,55.793,59.893z M40.57,31.395
			c-1.215,1.216-2.837,1.885-4.567,1.885c-1.732,0-3.356-0.669-4.573-1.885c-2.521-2.521-2.521-6.623-0.002-9.142
			c1.218-1.218,2.84-1.889,4.573-1.889c1.73,0,3.354,0.671,4.569,1.889c1.219,1.216,1.887,2.84,1.887,4.571
			C42.457,28.556,41.789,30.179,40.57,31.395z"/>
	</g>
</g>
</svg>
