<?xml version="1.0" encoding="utf-8"?>
<!-- Generator: Adobe Illustrator 16.0.0, SVG Export Plug-In . SVG Version: 6.00 Build 0)  -->
<!DOCTYPE svg PUBLIC "-//W3C//DTD SVG 1.1//EN" "http://www.w3.org/Graphics/SVG/1.1/DTD/svg11.dtd">
<svg version="1.1" id="Layer_1" xmlns="http://www.w3.org/2000/svg" xmlns:xlink="http://www.w3.org/1999/xlink" x="0px" y="0px"
	 width="72px" height="72px" viewBox="0 0 72 72" enable-background="new 0 0 72 72" xml:space="preserve">
<path fill="#C0C0C0" d="M62.286,29.484c0.1-0.77,0.232-1.528,0.232-2.323c0-9.764-7.911-17.681-17.679-17.681
	c-5.775,0-10.857,2.812-14.08,7.097c-1.162-0.281-2.357-0.467-3.601-0.467c-8.546,0-15.47,6.925-15.47,15.472
	c0,0.241,0.061,0.456,0.068,0.699C5.348,34.166,0.64,40.029,0.64,47.051c0,8.547,6.923,15.469,15.469,15.469H53.68
	c9.768,0,17.681-7.91,17.681-17.678C71.36,38.219,67.677,32.514,62.286,29.484z M40.419,40.422v13.26H31.58v-13.26h-8.841
	l13.26-13.261l13.26,13.261H40.419z"/>
</svg>
