<?xml version="1.0" encoding="utf-8"?>
<!-- Generator: Adobe Illustrator 16.0.0, SVG Export Plug-In . SVG Version: 6.00 Build 0)  -->
<!DOCTYPE svg PUBLIC "-//W3C//DTD SVG 1.1//EN" "http://www.w3.org/Graphics/SVG/1.1/DTD/svg11.dtd">
<svg version="1.1" id="Layer_1" xmlns="http://www.w3.org/2000/svg" xmlns:xlink="http://www.w3.org/1999/xlink" x="0px" y="0px"
	 width="72px" height="72px" viewBox="0 0 72 72" enable-background="new 0 0 72 72" xml:space="preserve">
<g>
	<g>
		<g id="Desktop">
			<g>
				<path fill="#C0C0C0" d="M67.251,2.3H4.748c-2.117,0-3.837,1.842-3.837,4.111v42.217c0,2.271,1.72,4.112,3.837,4.112h62.503
					c2.117,0,3.838-1.842,3.838-4.112V6.411C71.089,4.142,69.368,2.3,67.251,2.3z M66.702,48.354H5.297V6.687h61.405V48.354z"/>
			</g>
		</g>
	</g>
	<path fill="#C0C0C0" d="M52.443,64.581H42.418v-7.455c0-0.708-0.572-1.28-1.279-1.28H30.861c-0.708,0-1.28,0.572-1.28,1.28v7.455
		H19.556c-1.413,0-2.56,1.147-2.56,2.56c0,1.415,1.146,2.56,2.56,2.56h32.888c1.414,0,2.56-1.145,2.56-2.56
		C55.003,65.729,53.857,64.581,52.443,64.581z"/>
</g>
</svg>
