<?xml version="1.0" encoding="utf-8"?>
<!-- Generator: Adobe Illustrator 16.0.0, SVG Export Plug-In . SVG Version: 6.00 Build 0)  -->
<!DOCTYPE svg PUBLIC "-//W3C//DTD SVG 1.1//EN" "http://www.w3.org/Graphics/SVG/1.1/DTD/svg11.dtd">
<svg version="1.1" id="Layer_1" xmlns="http://www.w3.org/2000/svg" xmlns:xlink="http://www.w3.org/1999/xlink" x="0px" y="0px"
	 width="72px" height="72px" viewBox="0 0 72 72" enable-background="new 0 0 72 72" xml:space="preserve">
<g>
	<path fill="#C0C0C0" d="M66.688,5.327c-3.005-3.009-7.01-4.667-11.279-4.667c-4.268,0-8.27,1.658-11.27,4.667L33.117,16.338
		c-0.431,0.421-0.669,0.979-0.67,1.574c0,0.586,0.233,1.15,0.624,1.529c0.774,0.822,2.358,0.836,3.144,0.039L47.253,8.442
		c2.174-2.177,5.07-3.376,8.157-3.376c3.086,0,5.98,1.198,8.151,3.373c4.491,4.496,4.489,11.814-0.004,16.315
		c-1.244,1.251-7.155,7.163-11.156,11.164l-3.536,3.537c-2.173,2.174-5.071,3.371-8.16,3.371c-3.09,0-5.987-1.192-8.15-3.35
		c-0.543-0.563-1.014-1.138-1.397-1.707c-0.637-0.925-2.182-1.191-3.054-0.574c-0.587,0.394-0.933,1.032-0.97,1.827
		c0,0.475,0.146,0.917,0.4,1.25c0.545,0.811,1.186,1.585,1.906,2.305c3.008,2.998,7.013,4.649,11.275,4.649
		c4.265-0.001,8.265-1.653,11.265-4.655c1.809-1.818,12.954-12.969,14.711-14.705C72.888,21.649,72.887,11.537,66.688,5.327z"/>
	<path fill="#C0C0C0" d="M35.727,52.605l-10.968,10.96c-2.175,2.174-5.071,3.37-8.155,3.37c-3.086,0-5.986-1.197-8.164-3.37
		c-4.493-4.494-4.493-11.812,0-16.311l14.702-14.71c2.168-2.171,5.073-3.366,8.181-3.366c3.067,0,5.957,1.195,8.135,3.363
		c0.338,0.339,0.7,0.752,1.087,1.232c0.658,0.939,2.11,1.196,3.095,0.484c0.484-0.364,0.804-0.915,0.876-1.51
		c0.071-0.579-0.09-1.16-0.428-1.578c-0.43-0.574-0.935-1.157-1.507-1.744c-3.021-3.008-7.033-4.664-11.295-4.664
		c-4.225,0-8.219,1.657-11.25,4.668L5.327,44.139c-3.008,3.013-4.665,7.014-4.665,11.267c0,4.257,1.657,8.261,4.665,11.275
		c3.002,3.004,7.004,4.659,11.268,4.659c4.268,0,8.271-1.657,11.271-4.667l10.948-10.936c0.426-0.412,0.671-0.987,0.671-1.58
		c-0.001-0.591-0.242-1.159-0.648-1.548C38.036,51.803,36.439,51.836,35.727,52.605z"/>
</g>
</svg>
