<?xml version="1.0" encoding="utf-8"?>
<!-- Generator: Adobe Illustrator 16.0.0, SVG Export Plug-In . SVG Version: 6.00 Build 0)  -->
<!DOCTYPE svg PUBLIC "-//W3C//DTD SVG 1.1//EN" "http://www.w3.org/Graphics/SVG/1.1/DTD/svg11.dtd">
<svg version="1.1" id="Layer_1" xmlns="http://www.w3.org/2000/svg" xmlns:xlink="http://www.w3.org/1999/xlink" x="0px" y="0px"
	 width="72px" height="72px" viewBox="0 0 72 72" enable-background="new 0 0 72 72" xml:space="preserve">
<g>
	<g>
		<path fill="#C0C0C0" d="M71.625,42.514c0-1.629-0.58-3.057-1.74-4.28L36.259,4.654c-1.191-1.193-2.789-2.203-4.796-3.033
			c-2.007-0.831-3.842-1.246-5.503-1.246H6.395c-1.63,0-3.04,0.596-4.232,1.786C0.971,3.354,0.375,4.766,0.375,6.395v19.564
			c0,1.661,0.416,3.495,1.247,5.502c0.83,2.008,1.843,3.591,3.032,4.75l33.627,33.674c1.16,1.16,2.57,1.74,4.232,1.74
			c1.631,0,3.059-0.58,4.279-1.74l23.092-23.139C71.045,45.586,71.625,44.175,71.625,42.514z M19.681,19.68
			c-1.176,1.178-2.595,1.764-4.256,1.764s-3.079-0.586-4.255-1.764c-1.177-1.175-1.765-2.593-1.765-4.256
			c0-1.661,0.588-3.079,1.765-4.255c1.176-1.177,2.594-1.766,4.255-1.766s3.08,0.589,4.256,1.766
			c1.176,1.176,1.764,2.594,1.764,4.255C21.444,17.087,20.856,18.505,19.681,19.68z"/>
	</g>
</g>
</svg>
