<?xml version="1.0" encoding="utf-8"?>
<!-- Generator: Adobe Illustrator 18.1.1, SVG Export Plug-In . SVG Version: 6.00 Build 0)  -->
<svg version="1.1" id="Layer_1" xmlns="http://www.w3.org/2000/svg" xmlns:xlink="http://www.w3.org/1999/xlink" x="0px" y="0px"
	 viewBox="0 0 72 72" enable-background="new 0 0 72 72" xml:space="preserve">
<path d="M65,4.8v44H33.7h-0.5L16.9,67.3V48.9H7v-44L65,4.8 M65,1.1H7c-2,0-3.7,1.7-3.7,3.7v44c0,2,1.7,3.7,3.7,3.7h6.2v14.6
	c0,1.5,1,3,2.4,3.5c0.5,0.1,0.8,0.2,1.3,0.2c1.1,0,2-0.5,2.7-1.2l15.2-17.1H65c2,0,3.7-1.7,3.7-3.7v-44C68.7,2.8,67,1.1,65,1.1
	L65,1.1z"/>
</svg>
