<?xml version="1.0" encoding="utf-8"?>
<!-- Generator: Adobe Illustrator 18.1.1, SVG Export Plug-In . SVG Version: 6.00 Build 0)  -->
<svg version="1.1" id="Layer_1" xmlns="http://www.w3.org/2000/svg" xmlns:xlink="http://www.w3.org/1999/xlink" x="0px" y="0px"
	 viewBox="0 0 72 72" enable-background="new 0 0 72 72" xml:space="preserve">
<path d="M54.2,17.5c-0.9-0.7-1.8-1.1-2.7-1.1c-1.7,0-3,1.3-3,3.1c-0.2,1.2-1.2,7.3-4.9,8.4c-2.6-5.2-3.5-11.5-2.7-18.6
	c0.2-1.8,0.5-3.6,1-5.2c0.3-1.1,0-1.9-0.3-2.4c-0.3-0.5-0.8-1.1-1.9-1.3c-1.1-0.2-2.2,0.2-3.4,1.2C29,7.8,24.5,16.3,23.4,25.6
	c-0.6,4.9-0.4,9.3,0.4,13.2c-0.9-0.9-1.7-2-2.3-3.3c-2-4.1-2-9.3,0-14.1c0.4-0.8,0.4-1.8,0-2.6c-0.5-0.9-1.6-1.5-2.7-1.5
	c-0.8,0-1.6,0.3-2.3,0.8c0,0-0.1,0.1-0.1,0.1C9.4,23.6,5.5,32,5.5,41.6c0,16.3,14,30,30.6,30l0.2,0c16.6,0,30.2-13.5,30.2-30.1
	C66.5,32,62,23.2,54.2,17.5z M36.3,67.4l-0.1,0c-14.3,0-26.4-11.8-26.4-25.7c0-6.9,2.3-13.1,6.5-17.7c-1,4.7-0.6,9.4,1.4,13.4
	c2,4.1,5.3,7,9.2,8.1c0.8,0.2,1.6,0,2.2-0.7c0.5-0.6,0.7-1.5,0.4-2.2c-1.9-4.5-2.5-9.9-1.7-16.5c0.8-7.2,4-13.9,9.1-19.1
	c-0.1,0.6-0.2,1.3-0.2,1.9c-1,8.6,0.4,16.1,4,22.4c0.4,0.7,1.1,1.1,1.9,1.1c5.8,0,8.9-5.4,10-10.8c6.2,5,9.8,12.2,9.8,20.1
	C62.2,55.8,50.6,67.4,36.3,67.4z"/>
</svg>
