<?xml version="1.0" encoding="utf-8"?>
<!-- Generator: Adobe Illustrator 18.1.1, SVG Export Plug-In . SVG Version: 6.00 Build 0)  -->
<svg version="1.1" id="Layer_1" xmlns="http://www.w3.org/2000/svg" xmlns:xlink="http://www.w3.org/1999/xlink" x="0px" y="0px"
	 viewBox="0 0 72 72" enable-background="new 0 0 72 72" xml:space="preserve">
<path d="M69.5,39.2c3.7-3.5,2.5-10.8-3.8-10.8H49.4c0.6-3.5,1.5-9.2,1.5-9.8C50.5,13.3,47.2,7,47.1,6.8c-0.6-1.1-3.7-2.6-6.7-2
	c-3.9,0.9-4.3,3.4-4.3,4c0,0,0.1,6.8,0.1,8.7c-1.9,4.2-8.3,15-10.3,15.8c-0.5-0.3-1-0.4-1.5-0.4H3.6c-1.8,0-3.1,1.4-3.1,3.2v28.6
	c0.1,1.5,1.4,2.8,3,2.8h18.6c1.6,0,3-1.4,3-3v-1c0,0,0.6,0,1,0.1c1.1,0.8,2.6,1.8,4.7,1.8h27.7c10.3,0,9.3-9.2,8.3-10.5
	c1.8-1.9,2.8-5.3,1.4-7.9C69.3,45.8,71.3,42.6,69.5,39.2z M21.4,64.5H3.5V36h18v28.5H21.4z M64.6,38.9l-0.1,0.8
	c4.8,1.4,2.3,6.9-1.1,7.2l-0.3,0.6c4.5,1.1,2.4,6.8-1.1,7.2l-0.1,0.8c3.8,0.6,2.9,7.1-2.9,7.1H30.7c-2,0-3.8-2.3-5.3-2.3h-1.3v-22
	c1.6-1,3.5-2.3,4.7-3.2c2-1.8,10.5-15.4,10.5-17.1s-0.1-9.1-0.1-9.1s1.6-2.1,5.3-0.6c0,0,3.2,5.8,3.4,10.5c0,0-1.4,9.6-2.1,12.6
	h19.5C70,31.3,69.1,38.2,64.6,38.9z"/>
</svg>
