<?xml version="1.0" encoding="utf-8"?>
<!-- Generator: Adobe Illustrator 18.1.1, SVG Export Plug-In . SVG Version: 6.00 Build 0)  -->
<svg version="1.1" id="Layer_1" xmlns="http://www.w3.org/2000/svg" xmlns:xlink="http://www.w3.org/1999/xlink" x="0px" y="0px"
	 viewBox="0 0 72 72" enable-background="new 0 0 72 72" xml:space="preserve">
<g>
	<g>
		<g>
			<g>
				<path d="M2.7,68.3c-0.3,0-0.5-0.1-0.8-0.2c-0.6-0.3-1-0.9-1-1.6V18c0-0.5,0.3-1.1,0.7-1.4L18.3,4.1c0.5-0.4,1.2-0.5,1.8-0.2
					c0.6,0.3,1,0.9,1,1.6V54c0,0.5-0.3,1.1-0.7,1.4L3.7,67.9C3.4,68.1,3.1,68.3,2.7,68.3z M4.4,18.8V63l13.2-9.9V9L4.4,18.8z"/>
			</g>
			<g>
				<path d="M36,68.3c-0.4,0-0.7-0.1-1-0.3L18.3,55.4c-0.4-0.3-0.7-0.8-0.7-1.4V5.5c0-0.7,0.4-1.3,1-1.6c0.6-0.3,1.3-0.2,1.8,0.2
					L37,16.6c0.4,0.3,0.7,0.8,0.7,1.4v48.6c0,0.7-0.4,1.3-1,1.6C36.5,68.2,36.3,68.3,36,68.3z M21.1,53.2L34.3,63V18.8L21.1,9V53.2z
					"/>
			</g>
		</g>
		<g>
			<g>
				<path d="M36,68.3c-0.3,0-0.5-0.1-0.8-0.2c-0.6-0.3-1-0.9-1-1.6V18c0-0.5,0.3-1.1,0.7-1.4L51.6,4.1c0.5-0.4,1.2-0.5,1.8-0.2
					c0.6,0.3,1,0.9,1,1.6V54c0,0.5-0.3,1.1-0.7,1.4L37,67.9C36.7,68.1,36.4,68.3,36,68.3z M37.7,18.8V63l13.2-9.9V9L37.7,18.8z"/>
			</g>
			<g>
				<path d="M69.3,68.3c-0.4,0-0.7-0.1-1-0.3L51.6,55.4c-0.4-0.3-0.7-0.8-0.7-1.4V5.5c0-0.7,0.4-1.3,1-1.6c0.6-0.3,1.3-0.2,1.8,0.2
					l16.6,12.5c0.4,0.3,0.7,0.8,0.7,1.4v48.6c0,0.7-0.4,1.3-1,1.6C69.8,68.2,69.6,68.3,69.3,68.3z M54.4,53.2L67.6,63V18.8L54.4,9
					V53.2z"/>
			</g>
		</g>
	</g>
	<g>
		<path d="M2.7,42.8c-0.2,0-0.3-0.1-0.5-0.2C2,42.3,2.1,42,2.4,41.8l1.9-1.4c0.3-0.2,0.6-0.1,0.8,0.1c0.2,0.3,0.1,0.6-0.1,0.8
			l-1.9,1.4C2.9,42.8,2.8,42.8,2.7,42.8z M36.8,42.2c-0.2,0-0.3-0.1-0.5-0.2c-0.2-0.3-0.1-0.6,0.1-0.8l1.9-1.4
			c0.3-0.2,0.6-0.1,0.8,0.1c0.2,0.3,0.1,0.6-0.1,0.8l-1.9,1.4C37,42.2,36.9,42.2,36.8,42.2z M67,41.1c-0.1,0-0.2,0-0.3-0.1l-1.9-1.4
			c-0.3-0.2-0.3-0.6-0.1-0.8c0.2-0.3,0.6-0.3,0.8-0.1l1.9,1.4c0.3,0.2,0.3,0.6,0.1,0.8C67.3,41,67.2,41.1,67,41.1z M32.9,40.5
			c-0.1,0-0.2,0-0.3-0.1L30.7,39c-0.3-0.2-0.3-0.6-0.1-0.8c0.2-0.3,0.6-0.3,0.8-0.1l1.9,1.4c0.3,0.2,0.3,0.6,0.1,0.8
			C33.3,40.4,33.1,40.5,32.9,40.5z M8.3,38.7c-0.2,0-0.3-0.1-0.5-0.2c-0.2-0.3-0.1-0.6,0.1-0.8l1.9-1.4c0.3-0.2,0.6-0.1,0.8,0.1
			c0.2,0.3,0.1,0.6-0.1,0.8l-1.9,1.4C8.5,38.6,8.4,38.7,8.3,38.7z M42.4,38.1c-0.2,0-0.4-0.1-0.5-0.2c-0.2-0.3-0.1-0.6,0.1-0.8
			l1.9-1.4c0.3-0.2,0.6-0.1,0.8,0.1c0.2,0.3,0.1,0.6-0.1,0.8l-1.9,1.4C42.6,38,42.5,38.1,42.4,38.1z M61.2,36.8
			c-0.1,0-0.2,0-0.3-0.1L59,35.3c-0.3-0.2-0.3-0.6-0.1-0.8c0.2-0.3,0.6-0.3,0.8-0.1l1.9,1.4c0.3,0.2,0.3,0.6,0.1,0.8
			C61.6,36.7,61.4,36.8,61.2,36.8z M27.2,36.2c-0.1,0-0.2,0-0.3-0.1L25,34.7c-0.3-0.2-0.3-0.6-0.1-0.8c0.2-0.3,0.6-0.3,0.8-0.1
			l1.9,1.4c0.3,0.2,0.3,0.6,0.1,0.8C27.5,36.1,27.3,36.2,27.2,36.2z M14,34.3c-0.2,0-0.3-0.1-0.5-0.2c-0.2-0.3-0.1-0.6,0.1-0.8
			l1.9-1.4c0.3-0.2,0.6-0.1,0.8,0.1c0.2,0.3,0.1,0.6-0.1,0.8l-1.9,1.4C14.2,34.3,14.1,34.3,14,34.3z M48.1,33.8
			c-0.2,0-0.3-0.1-0.5-0.2c-0.2-0.3-0.1-0.6,0.1-0.8l1.9-1.4c0.3-0.2,0.6-0.1,0.8,0.1c0.2,0.3,0.1,0.6-0.1,0.8l-1.9,1.4
			C48.3,33.7,48.2,33.8,48.1,33.8z M55.7,32.6c-0.1,0-0.2,0-0.3-0.1l-1.9-1.4c-0.3-0.2-0.3-0.6-0.1-0.8c0.2-0.3,0.6-0.3,0.8-0.1
			l1.9,1.4c0.3,0.2,0.3,0.6,0.1,0.8C56,32.5,55.9,32.6,55.7,32.6z M21.6,32c-0.1,0-0.2,0-0.3-0.1l-1.9-1.4c-0.3-0.2-0.3-0.6-0.1-0.8
			c0.2-0.3,0.6-0.3,0.8-0.1l1.9,1.4c0.3,0.2,0.3,0.6,0.1,0.8C22,31.9,21.8,32,21.6,32z"/>
	</g>
</g>
</svg>
