<?xml version="1.0" encoding="utf-8"?>
<!-- Generator: Adobe Illustrator 18.1.1, SVG Export Plug-In . SVG Version: 6.00 Build 0)  -->
<svg version="1.1" id="Layer_1" xmlns="http://www.w3.org/2000/svg" xmlns:xlink="http://www.w3.org/1999/xlink" x="0px" y="0px"
	 viewBox="0 0 72 72" enable-background="new 0 0 72 72" xml:space="preserve">
<g>
	<path d="M56.6,69.7L56.6,69.7c-0.5,0-1-0.2-1.6-0.6L36,55.3c0,0,0,0,0,0l0,0c0,0-0.1,0-0.1,0L17,69.1c-1.2,0.8-2.5,0.7-3.2-0.3
		c-0.3-0.4-0.6-1.1-0.2-2.2l7.2-22.3c0,0,0-0.1-0.1-0.1L1.8,30.5c-1.4-1-1.1-2.2-1-2.6c0.1-0.3,0.6-1.5,2.3-1.5h23.4
		c0,0,0.1-0.1,0.1-0.1l7.2-22.3c0.5-1.6,1.8-1.8,2.1-1.8c0.4,0,1.6,0.1,2.1,1.8l7.2,22.3c0,0,0.1,0,0.1,0l23.4,0
		c1.7,0,2.2,1.1,2.3,1.5c0.1,0.3,0.4,1.5-1,2.6l-19,13.8l0,0c0,0,0,0.1,0,0.1l7.2,22.3c0.4,1.1,0.1,1.8-0.2,2.2
		C57.8,69.4,57.2,69.7,56.6,69.7z M36,51.8c0.8,0,1.5,0.2,2.1,0.7l15.6,11.3l-6-18.3c-0.5-1.4,0.1-3.2,1.3-4.1L64.7,30H45.4
		c-1.5,0-3-1.1-3.5-2.5L36,9.2l-6,18.3c-0.5,1.4-1.9,2.5-3.5,2.5H7.3l15.6,11.3c1.2,0.9,1.8,2.6,1.3,4.1l-6,18.3l15.6-11.3
		C34.5,52,35.2,51.8,36,51.8z"/>
</g>
</svg>
