<?xml version="1.0" encoding="utf-8"?>
<!-- Generator: Adobe Illustrator 18.1.1, SVG Export Plug-In . SVG Version: 6.00 Build 0)  -->
<svg version="1.1" id="Layer_1" xmlns="http://www.w3.org/2000/svg" xmlns:xlink="http://www.w3.org/1999/xlink" x="0px" y="0px"
	 viewBox="0 0 72 72" enable-background="new 0 0 72 72" xml:space="preserve">
<path d="M41.6,0.6c-16.4,0-29.8,13.1-29.8,29.3c0,7.6,2.9,14.4,7.7,19.6l-18.3,18c-0.9,0.9-0.9,2.3,0,3.2c0.9,0.9,2.3,0.9,3.2,0
	l18.3-18.1c5.1,4.1,11.6,6.5,18.7,6.5c16.4,0,29.8-13.1,29.8-29.3C71.4,13.7,58.1,0.6,41.6,0.6z M41.6,54.7
	c-13.9,0-25.2-11.1-25.2-24.8c0-13.7,11.3-24.8,25.2-24.8c13.9,0,25.2,11.1,25.2,24.8C66.8,43.6,55.5,54.7,41.6,54.7z"/>
</svg>
