<?xml version="1.0" encoding="utf-8"?>
<!-- Generator: Adobe Illustrator 18.1.1, SVG Export Plug-In . SVG Version: 6.00 Build 0)  -->
<svg version="1.1" id="Layer_1" xmlns="http://www.w3.org/2000/svg" xmlns:xlink="http://www.w3.org/1999/xlink" x="0px" y="0px"
	 viewBox="0 0 72 72" enable-background="new 0 0 72 72" xml:space="preserve">
<g>
	<g>
		<path d="M39.6,32.4c0.3,0.3,0.7,0.8,1.1,1.3c0.4,0.5,0.9,0.8,1.6,0.8c0.4,0,0.8-0.1,1.2-0.4c0.4-0.3,0.7-0.8,0.8-1.3
			c0.1-0.5-0.1-1-0.4-1.4c-0.4-0.6-0.9-1.1-1.5-1.7c-3-3-6.9-4.6-11.1-4.6c-4.2,0-8.1,1.6-11.1,4.6L5.6,44.3c-3,3-4.6,6.9-4.6,11.1
			c0,4.2,1.6,8.1,4.6,11.1c2.9,3,6.9,4.6,11.1,4.6c4.2,0,8.1-1.6,11.1-4.6l10.9-10.9c0.4-0.4,0.6-0.9,0.6-1.4c0-0.5-0.2-1-0.6-1.4
			c-0.4-0.4-0.9-0.6-1.4-0.6c-0.5,0-1,0.2-1.4,0.6L25,63.6c-2.2,2.2-5.2,3.4-8.3,3.4c-3.1,0-6.1-1.2-8.3-3.4c-4.6-4.6-4.6-12,0-16.6
			L23,32.4c2.2-2.2,5.2-3.4,8.3-3.4C34.5,29,37.4,30.2,39.6,32.4z"/>
		<path d="M66.4,27.7c6.1-6.1,6.1-16,0-22.2c-3-3-6.9-4.6-11.1-4.6c-4.2,0-8.1,1.6-11.1,4.6l-11,11c-0.4,0.4-0.6,0.9-0.6,1.4
			c0,0.5,0.2,1,0.6,1.4c0.4,0.4,0.9,0.6,1.4,0.6c0.5,0,1-0.2,1.4-0.6l11-11c2.2-2.2,5.1-3.4,8.3-3.4c3.1,0,6.1,1.2,8.3,3.4
			c4.6,4.6,4.6,12,0,16.6C62.4,26.2,49.1,39.5,49,39.6c-2.2,2.2-5.2,3.4-8.3,3.4c-3.1,0-6.1-1.2-8.3-3.4c-0.5-0.6-1-1.1-1.4-1.7
			c-0.4-0.5-1-0.8-1.6-0.8c-0.4,0-0.8,0.1-1.1,0.3c-0.5,0.4-0.8,0.9-0.9,1.6c0,0.4,0.1,0.8,0.4,1.1c0.5,0.8,1.2,1.6,1.9,2.3
			c3,2.9,6.9,4.6,11.1,4.6c4.2,0,8.1-1.6,11.1-4.6C53.6,40.5,64.7,29.5,66.4,27.7z"/>
	</g>
</g>
</svg>
