<?xml version="1.0" encoding="utf-8"?>
<!-- Generator: Adobe Illustrator 18.1.1, SVG Export Plug-In . SVG Version: 6.00 Build 0)  -->
<svg version="1.1" id="Layer_1" xmlns="http://www.w3.org/2000/svg" xmlns:xlink="http://www.w3.org/1999/xlink" x="0px" y="0px"
	 viewBox="0 0 72 72" enable-background="new 0 0 72 72" xml:space="preserve">
<g>
	<path fill="#010101" d="M61.2,30.5c-1.2,0-2.2,1-2.2,2.2v34H4.7V12.4h34c1.2,0,2.2-1,2.2-2.2c0-1.2-1-2.2-2.2-2.2H2.4
		c-1.2,0-2.2,1-2.2,2.2v58.8c0,1.2,1,2.2,2.2,2.2h58.8c1.2,0,2.2-1,2.2-2.2V32.8C63.5,31.5,62.5,30.5,61.2,30.5z"/>
	<path fill="#010101" d="M69.6,0.8H45.4c-1.2,0-2.2,1-2.2,2.2s1,2.2,2.2,2.2h18.2L37.4,31.5c-0.9,0.9-0.9,2.3,0,3.2
		c0.4,0.4,1,0.7,1.6,0.7s1.1-0.2,1.6-0.7L67.3,7.8v19.5c0,1.2,1,2.2,2.2,2.2c1.2,0,2.2-1,2.2-2.2V3.1C71.8,1.8,70.8,0.8,69.6,0.8z"
		/>
</g>
</svg>
