<?xml version="1.0" encoding="utf-8"?>
<!-- Generator: Adobe Illustrator 18.1.1, SVG Export Plug-In . SVG Version: 6.00 Build 0)  -->
<svg version="1.1" id="Layer_1" xmlns="http://www.w3.org/2000/svg" xmlns:xlink="http://www.w3.org/1999/xlink" x="0px" y="0px"
	 viewBox="0 0 72 72" enable-background="new 0 0 72 72" xml:space="preserve">
<path d="M58.1,45.6c-4.1,0-7.7,1.9-10.1,5L26.1,39.4c0.3-1,0.5-2.1,0.5-3.4c0-1.2-0.2-2.5-0.6-3.6l21.8-11.2
	c2.4,3.2,6.1,5.2,10.3,5.2c7.1,0,12.9-5.8,12.9-12.9S65.2,0.6,58.1,0.6S45.2,6.4,45.2,13.5c0,1.1,0.2,2.3,0.5,3.4L23.9,28.1
	c-2.4-2.9-6-5-10.1-5C6.7,23.1,0.9,28.9,0.9,36s5.8,12.9,12.9,12.9c4.2,0,7.9-2,10.3-5.2l21.8,11.2c-0.3,1.1-0.6,2.4-0.6,3.6
	c0,7.1,5.8,12.9,12.9,12.9s12.9-5.8,12.9-12.9C71,51.4,65.2,45.6,58.1,45.6z M58.1,5.8c4.3,0,7.8,3.5,7.8,7.8s-3.5,7.8-7.8,7.8
	s-7.8-3.5-7.8-7.8C50.3,9.2,53.8,5.8,58.1,5.8z M13.7,43.8c-4.3,0-7.8-3.5-7.8-7.8c0-4.3,3.5-7.8,7.8-7.8s7.8,3.5,7.8,7.8
	C21.5,40.3,18,43.8,13.7,43.8z M58.1,66.2c-4.3,0-7.8-3.5-7.8-7.8s3.5-7.8,7.8-7.8s7.8,3.5,7.8,7.8S62.4,66.2,58.1,66.2z"/>
</svg>
