<?xml version="1.0" encoding="utf-8"?>
<!-- Generator: Adobe Illustrator 18.1.1, SVG Export Plug-In . SVG Version: 6.00 Build 0)  -->
<svg version="1.1" id="Layer_1" xmlns="http://www.w3.org/2000/svg" xmlns:xlink="http://www.w3.org/1999/xlink" x="0px" y="0px"
	 viewBox="0 0 72 72" enable-background="new 0 0 72 72" xml:space="preserve">
<g>
	<g>
		<g>
			<path d="M60,12C46.6-1.4,24.7-1.4,11.3,12c-13.4,13.4-13.4,35.3,0,48.7c13.4,13.4,35.3,13.4,48.7,0C73.4,47.3,73.4,25.4,60,12z
				 M57.2,58C45.3,69.9,26,69.9,14.1,58c-11.9-11.9-11.9-31.3,0-43.2C26,2.9,45.3,2.9,57.2,14.8C69.1,26.7,69.1,46.1,57.2,58z"/>
		</g>
		<path d="M21.7,45.3c-0.4-1,0-2.1,1-2.6c1-0.4,2.1,0,2.6,1c1.9,4.3,6.3,7.1,11.3,7.1c5.1,0,9.6-2.8,11.4-7.1c0.3-0.7,1-1.2,1.8-1.2
			c0.2,0,0.5,0,0.7,0.2c1,0.4,1.5,1.5,1.1,2.5c-2.4,5.8-8.3,9.5-15,9.5C30.1,54.8,24.2,51.1,21.7,45.3L21.7,45.3z"/>
		<path d="M23.2,26.7c0-2.2,1.8-4,4-4c2.2,0,4,1.8,4,4c0,2.2-1.8,4-4,4C25,30.7,23.2,28.9,23.2,26.7L23.2,26.7z"/>
		<path d="M41.4,26.7c0-2.2,1.8-4,4-4c2.2,0,4,1.8,4,4c0,2.2-1.8,4-4,4C43.2,30.7,41.4,28.9,41.4,26.7L41.4,26.7z"/>
		<path d="M41.4,26.7"/>
	</g>
</g>
</svg>
