<?xml version="1.0" encoding="utf-8"?>
<!-- Generator: Adobe Illustrator 18.1.1, SVG Export Plug-In . SVG Version: 6.00 Build 0)  -->
<svg version="1.1" id="Layer_1" xmlns="http://www.w3.org/2000/svg" xmlns:xlink="http://www.w3.org/1999/xlink" x="0px" y="0px"
	 viewBox="0 0 72 72" enable-background="new 0 0 72 72" xml:space="preserve">
<g>
	<path d="M36,0.9c-2.3,0-4.2,1.9-4.2,4.2v5.3c0,2.3,1.9,4.2,4.2,4.2c2.3,0,4.2-1.9,4.2-4.2V5C40.2,2.7,38.3,0.9,36,0.9z"/>
	<path d="M36,57.5c-2.3,0-4.2,1.9-4.2,4.2v5.3c0,2.3,1.9,4.2,4.2,4.2c2.3,0,4.2-1.9,4.2-4.2v-5.3C40.2,59.4,38.3,57.5,36,57.5z"/>
	<path d="M54.2,22c1.1,0,2.2-0.4,2.9-1.2l3.7-3.7c1.6-1.6,1.6-4.3,0-5.9c-0.8-0.8-1.8-1.2-3-1.2c-1.1,0-2.2,0.4-3,1.2l-3.7,3.7
		c-0.8,0.8-1.2,1.8-1.2,2.9c0,1.1,0.4,2.2,1.2,3C52,21.6,53.1,22,54.2,22z"/>
	<path d="M17.8,50c-1.1,0-2.2,0.4-3,1.2l-3.7,3.7c-1.6,1.6-1.6,4.3,0,5.9c0.8,0.8,1.8,1.2,2.9,1.2c1.1,0,2.2-0.4,2.9-1.2l3.7-3.7
		c1.6-1.6,1.6-4.3,0-5.9C20,50.4,18.9,50,17.8,50z"/>
	<path d="M67,31.8h-5.3c-2.3,0-4.2,1.9-4.2,4.2c0,2.3,1.9,4.2,4.2,4.2H67c2.3,0,4.2-1.9,4.2-4.2C71.1,33.7,69.3,31.8,67,31.8z"/>
	<path d="M14.5,36c0-2.3-1.9-4.2-4.2-4.2H5c-2.3,0-4.2,1.9-4.2,4.2c0,2.3,1.9,4.2,4.2,4.2h5.3C12.6,40.2,14.5,38.3,14.5,36z"/>
	<path d="M57.1,51.2c-0.8-0.8-1.8-1.2-2.9-1.2c-1.1,0-2.2,0.4-2.9,1.2c-1.6,1.6-1.6,4.3,0,5.9l3.7,3.7c0.8,0.8,1.8,1.2,2.9,1.2
		c1.1,0,2.2-0.4,3-1.2c1.6-1.6,1.6-4.3,0-5.9L57.1,51.2z"/>
	<path d="M14.9,20.8c0.8,0.8,1.8,1.2,3,1.2c1.1,0,2.1-0.4,2.9-1.2c0.8-0.8,1.2-1.8,1.2-2.9c0-1.1-0.4-2.2-1.2-2.9l-3.7-3.7
		c-0.8-0.8-1.8-1.2-2.9-1.2c-1.1,0-2.2,0.4-2.9,1.2c-0.8,0.8-1.2,1.8-1.2,2.9c0,1.1,0.4,2.2,1.2,2.9L14.9,20.8z"/>
	<path d="M36,25.7c1.3,0,2.3-1,2.3-2.3v-2.6c0-1.3-1-2.3-2.3-2.3c-1.3,0-2.3,1-2.3,2.3v2.6C33.7,24.7,34.7,25.7,36,25.7z"/>
	<path d="M36,46.3c-1.3,0-2.3,1-2.3,2.3v2.6c0,1.3,1,2.3,2.3,2.3c1.3,0,2.3-1,2.3-2.3v-2.6C38.3,47.3,37.3,46.3,36,46.3z"/>
	<path d="M44.9,29.4c0.6,0,1.2-0.2,1.6-0.7l1.8-1.8c0.9-0.9,0.9-2.4,0-3.3c-0.4-0.4-1-0.7-1.6-0.7c-0.6,0-1.2,0.2-1.6,0.7l-1.8,1.8
		c-0.4,0.4-0.7,1-0.7,1.6c0,0.6,0.2,1.2,0.7,1.6C43.7,29.2,44.3,29.4,44.9,29.4z"/>
	<path d="M27.1,42.6c-0.6,0-1.2,0.2-1.6,0.7l-1.8,1.8c-0.9,0.9-0.9,2.4,0,3.3c0.4,0.4,1,0.7,1.6,0.7c0.6,0,1.2-0.2,1.6-0.7l1.8-1.8
		c0.9-0.9,0.9-2.4,0-3.3C28.3,42.8,27.7,42.6,27.1,42.6z"/>
	<path d="M48.6,33.7c-1.3,0-2.3,1-2.3,2.3c0,1.3,1,2.3,2.3,2.3h2.6c1.3,0,2.3-1,2.3-2.3c0-1.3-1-2.3-2.3-2.3H48.6z"/>
	<path d="M35.6,38.3h0.7c1.3,0,2.3-1,2.3-2.3c0-1.3-1-2.3-2.3-2.3h-0.7c-1.3,0-2.3,1-2.3,2.3C33.3,37.3,34.4,38.3,35.6,38.3z"/>
	<path d="M18.5,36c0,1.3,1,2.3,2.3,2.3h2.6c1.3,0,2.3-1,2.3-2.3c0-1.3-1-2.3-2.3-2.3h-2.6C19.6,33.7,18.5,34.7,18.5,36z"/>
	<path d="M46.5,43.3c-0.4-0.4-1-0.7-1.6-0.7c-0.6,0-1.2,0.2-1.6,0.7c-0.4,0.4-0.7,1-0.7,1.6c0,0.6,0.2,1.2,0.7,1.6l1.8,1.8
		c0.4,0.4,1,0.7,1.6,0.7c0.6,0,1.2-0.2,1.6-0.7c0.9-0.9,0.9-2.4,0-3.3L46.5,43.3z"/>
	<path d="M26.9,23.6c-0.4-0.4-1-0.7-1.6-0.7c-0.6,0-1.2,0.2-1.6,0.7c-0.9,0.9-0.9,2.4,0,3.3l1.8,1.8c0.4,0.4,1,0.7,1.6,0.7
		c0.6,0,1.2-0.2,1.6-0.7c0.4-0.4,0.7-1,0.7-1.6c0-0.6-0.2-1.2-0.7-1.6L26.9,23.6z"/>
</g>
</svg>
