<?xml version="1.0" encoding="utf-8"?>
<!-- Generator: Adobe Illustrator 16.0.0, SVG Export Plug-In . SVG Version: 6.00 Build 0)  -->
<!DOCTYPE svg PUBLIC "-//W3C//DTD SVG 1.1//EN" "http://www.w3.org/Graphics/SVG/1.1/DTD/svg11.dtd">
<svg version="1.1" id="Layer_1" xmlns="http://www.w3.org/2000/svg" xmlns:xlink="http://www.w3.org/1999/xlink" x="0px" y="0px"
	 width="72px" height="72px" viewBox="0 0 72 72" enable-background="new 0 0 72 72" xml:space="preserve">
<g>
	<g>
		<g>
			<path fill="#EC1164" d="M36.289,53.771c-0.064,0-0.131-0.004-0.197-0.008c-1.135-0.076-2.113-0.822-2.49-1.895l-8.016-22.787
				l-5.803,14.096c-0.439,1.068-1.48,1.766-2.635,1.766H3.566c-1.572,0-2.85-1.275-2.85-2.85s1.277-2.85,2.85-2.85H15.24l7.92-19.24
				c0.447-1.094,1.492-1.859,2.709-1.766c1.182,0.033,2.223,0.791,2.615,1.904l8.305,23.609l8.184-15.832
				c0.473-0.912,1.396-1.5,2.424-1.537c1.102-0.066,1.992,0.479,2.535,1.352l7.092,11.51h11.41c1.574,0,2.85,1.275,2.85,2.85
				s-1.275,2.85-2.85,2.85H55.432c-0.988,0-1.908-0.512-2.428-1.354l-5.285-8.574L38.82,52.231
				C38.33,53.181,37.35,53.771,36.289,53.771z"/>
		</g>
	</g>
</g>
</svg>
