<?xml version="1.0" encoding="utf-8"?>
<!-- Generator: Adobe Illustrator 16.0.0, SVG Export Plug-In . SVG Version: 6.00 Build 0)  -->
<!DOCTYPE svg PUBLIC "-//W3C//DTD SVG 1.1//EN" "http://www.w3.org/Graphics/SVG/1.1/DTD/svg11.dtd">
<svg version="1.1" id="Layer_1" xmlns="http://www.w3.org/2000/svg" xmlns:xlink="http://www.w3.org/1999/xlink" x="0px" y="0px"
	 width="72px" height="72px" viewBox="0 0 72 72" enable-background="new 0 0 72 72" xml:space="preserve">
<g>
	<path fill="#C0C0C0" d="M36,0C16.149,0,0,16.149,0,36c0,19.85,16.149,36,36,36c19.85,0,36-16.15,36-36C72,16.149,55.85,0,36,0z
		 M36,69.467C17.547,69.467,2.533,54.453,2.533,36S17.547,2.533,36,2.533S69.467,17.547,69.467,36S54.453,69.467,36,69.467z"/>
	<path fill="#C0C0C0" d="M36.896,21.594c-0.117-0.118-0.257-0.21-0.413-0.275c-0.309-0.128-0.658-0.128-0.967,0
		c-0.156,0.064-0.296,0.157-0.413,0.275l-13.511,13.51c-0.495,0.495-0.495,1.296,0,1.791s1.296,0.495,1.791,0l11.35-11.349v23.965
		c0,0.7,0.566,1.267,1.267,1.267s1.267-0.566,1.267-1.267V25.546l11.35,11.349c0.247,0.247,0.571,0.371,0.896,0.371
		s0.648-0.124,0.896-0.371c0.495-0.495,0.495-1.296,0-1.791L36.896,21.594z"/>
</g>
</svg>
