<?xml version="1.0" encoding="utf-8"?>
<!-- Generator: Adobe Illustrator 16.0.0, SVG Export Plug-In . SVG Version: 6.00 Build 0)  -->
<!DOCTYPE svg PUBLIC "-//W3C//DTD SVG 1.1//EN" "http://www.w3.org/Graphics/SVG/1.1/DTD/svg11.dtd">
<svg version="1.1" id="Layer_1" xmlns="http://www.w3.org/2000/svg" xmlns:xlink="http://www.w3.org/1999/xlink" x="0px" y="0px"
	 width="72px" height="72px" viewBox="0 0 72 72" enable-background="new 0 0 72 72" xml:space="preserve">
<g>
	<path fill="#ADAFAF" d="M10.224,23.805h-0.177c-2.329,0-4.218,1.902-4.218,4.219v18.368c0,2.318,1.889,4.221,4.218,4.221h0.177
		c2.331,0,4.22-1.902,4.22-4.221V28.024C14.443,25.708,12.539,23.805,10.224,23.805z"/>
	<path fill="#ADAFAF" d="M16.463,53.473c0,2.14,1.741,3.865,3.88,3.865h4.146v9.926c0,2.331,1.887,4.22,4.218,4.22h0.177
		c2.332,0,4.22-1.903,4.22-4.22v-9.926h5.795v9.926c0,2.331,1.904,4.22,4.221,4.22h0.177c2.329,0,4.217-1.903,4.217-4.22v-9.926
		h4.145c2.127,0,3.881-1.726,3.881-3.865V24.485H16.463V53.473z"/>
	<g>
		<path fill="#ADAFAF" d="M45.928,7.013l3.277-5.073c0.134-0.197,0.181-0.447,0.128-0.688c-0.05-0.242-0.189-0.453-0.394-0.58
			c-0.417-0.285-1.017-0.157-1.276,0.271L44.247,6.18c-0.009,0.014-0.024,0.038-0.038,0.057c-2.497-0.993-5.277-1.557-8.201-1.557
			c-2.939,0-5.72,0.563-8.22,1.557c-0.011-0.014-0.017-0.035-0.026-0.046l-3.403-5.244c-0.266-0.433-0.886-0.563-1.291-0.279
			c-0.209,0.131-0.35,0.342-0.401,0.584c-0.051,0.241-0.004,0.491,0.125,0.688l3.268,5.036C26.062,6.99,26.069,7,26.072,7.013
			c-5.813,2.935-9.743,8.355-9.743,14.565c0,0.383,0.031,0.768,0.061,1.149h39.22c0.029-0.382,0.062-0.767,0.062-1.149
			C55.672,15.369,51.743,9.948,45.928,7.013z M26.906,15.989c-1.047,0-1.889-0.843-1.889-1.889s0.842-1.868,1.889-1.868
			s1.888,0.822,1.888,1.868S27.953,15.989,26.906,15.989z M45.095,15.989c-1.048,0-1.889-0.843-1.889-1.889s0.841-1.868,1.889-1.868
			c1.046,0,1.887,0.822,1.887,1.868S46.141,15.989,45.095,15.989z"/>
	</g>
	<path fill="#ADAFAF" d="M61.953,23.805h-0.178c-2.33,0-4.219,1.902-4.219,4.219v18.368c0,2.318,1.904,4.221,4.219,4.221h0.178
		c2.329,0,4.218-1.902,4.218-4.221V28.024C66.171,25.708,64.269,23.805,61.953,23.805z"/>
</g>
</svg>
