<?xml version="1.0" encoding="utf-8"?>
<!-- Generator: Adobe Illustrator 16.0.0, SVG Export Plug-In . SVG Version: 6.00 Build 0)  -->
<!DOCTYPE svg PUBLIC "-//W3C//DTD SVG 1.1//EN" "http://www.w3.org/Graphics/SVG/1.1/DTD/svg11.dtd">
<svg version="1.1" id="Layer_1" xmlns="http://www.w3.org/2000/svg" xmlns:xlink="http://www.w3.org/1999/xlink" x="0px" y="0px"
	 width="72px" height="72px" viewBox="0 0 72 72" enable-background="new 0 0 72 72" xml:space="preserve">
<g>
	<path fill-rule="evenodd" clip-rule="evenodd" fill="#C0C0C0" d="M63.745,24.618c-3.57-4.461-8.58-7.035-13.305-7.035
		c-6.26,0-8.906,2.975-13.242,2.975c-4.472,0-7.871-2.969-13.287-2.969c-5.316,0-10.959,3.232-14.545,8.748
		c-5.043,7.758-4.191,22.36,3.984,34.795c2.916,4.451,6.832,9.455,11.938,9.496c4.529,0.049,5.82-2.895,11.972-2.92
		c6.156-0.043,7.326,2.957,11.861,2.916c5.105-0.053,9.219-5.59,12.139-10.041c2.1-3.18,2.881-4.793,4.504-8.4
		C53.942,47.716,52.048,31.02,63.745,24.618 M45.694,12.616C47.968,9.7,49.692,5.575,49.06,1.372
		c-3.709,0.26-8.053,2.615-10.59,5.695c-2.292,2.791-4.197,6.939-3.462,10.975C39.065,18.163,43.259,15.743,45.694,12.616"/>
</g>
</svg>
