<?xml version="1.0" encoding="utf-8"?>
<!-- Generator: Adobe Illustrator 18.1.1, SVG Export Plug-In . SVG Version: 6.00 Build 0)  -->
<svg version="1.1" id="Layer_1" xmlns="http://www.w3.org/2000/svg" xmlns:xlink="http://www.w3.org/1999/xlink" x="0px" y="0px"
	 viewBox="0 0 42.5 42.5" enable-background="new 0 0 42.5 42.5" xml:space="preserve">
<g>
	<g>
		<path fill="#ADAFAF" d="M30.5,26.6c-0.5,0.5-1.4,0.5-1.9,0l-0.8-0.8c-3.9,3.6-8.9,4.7-11.9,2.7l-3.3,3.3c-0.5,0.5-1.4,0.5-1.9,0
			c-0.5-0.5-0.5-1.4,0-1.9l3.4-3.4c-1.5-3-0.3-7.6,3-11.2l-0.8-0.8c-0.5-0.5-0.5-1.4,0-1.9c0.5-0.5,1.4-0.5,1.9,0l2.2,2.2l3.7-3.7
			c0.5-0.5,1.4-0.5,1.9,0c0.5,0.5,0.5,1.4,0,1.9l-3.7,3.7l3.9,3.9l3.7-3.7c0.5-0.5,1.4-0.5,1.9,0c0.5,0.5,0.5,1.4,0,1.9l-3.7,3.7
			l2.4,2.4C31,25.2,31,26.1,30.5,26.6z"/>
	</g>
</g>
</svg>
