<?xml version="1.0" encoding="utf-8"?>
<!-- Generator: Adobe Illustrator 18.1.1, SVG Export Plug-In . SVG Version: 6.00 Build 0)  -->
<svg version="1.1" id="Layer_1" xmlns="http://www.w3.org/2000/svg" xmlns:xlink="http://www.w3.org/1999/xlink" x="0px" y="0px"
	 viewBox="0 0 72 72" enable-background="new 0 0 72 72" xml:space="preserve">
<path fill="none" d="M2.5,36.4C2.5,36.4,2.5,36.4,2.5,36.4c0.1-0.2,0-0.2,0-0.2V36.4z"/>
<g>
	
		<path fill-rule="evenodd" clip-rule="evenodd" fill="#C1C3C4" stroke="#FFFFFF" stroke-width="1.0536" stroke-linecap="round" stroke-linejoin="round" stroke-miterlimit="10" d="
		M72.1-31.8"/>
</g>
<g>
	<path fill="#ADAFAF" d="M54.1,56.6l-7.1-7.1c1-9.3,1.6-16,1.7-20.5c0-3.1-0.5-6.5-1.6-10.2c-2.9-8.2-8.3-13.3-9.9-14.7
		c-0.6-0.6-1.5-0.6-2.2,0.1c-1.6,1.4-6.9,6.5-9.7,14.8c-1.2,3.1-1.8,6.7-1.8,10c0,5.3,0.7,13.1,1.5,20.8l-6.9,6.9
		c-0.4,0.4-0.5,0.9-0.4,1.4l1.7,8.5c0.1,0.5,0.4,0.9,0.9,1.1c0.5,0.2,1,0.2,1.4-0.1l6.4-3.7l0.8,2.1c0.5,1.4,2.7,2.1,7.1,2.3h0
		c4.4,0,6.8-0.7,7.4-2.2l0.8-2.2l6.4,3.7c0.4,0.3,1,0.3,1.5,0.1c0.5-0.2,0.8-0.6,0.9-1.1l1.7-8.5C54.6,57.6,54.5,57,54.1,56.6z
		 M41,32.8c-1.3,1.3-3.1,2-5,2c-1.9,0-3.6-0.7-5-2c-2.7-2.7-2.7-7.2,0-9.9c2.7-2.6,7.3-2.6,9.9,0c1.3,1.3,2.1,3.1,2.1,5
		C43,29.8,42.3,31.5,41,32.8z"/>
	<path fill="#ADAFAF" d="M36,24.2c-1,0-1.9,0.4-2.6,1.1c-1.4,1.4-1.4,3.8,0,5.2c0.7,0.7,1.6,1.1,2.6,1.1c1,0,1.9-0.4,2.6-1.1
		c0.7-0.7,1.1-1.6,1.1-2.6c0-1-0.4-1.9-1.1-2.6C37.9,24.6,37,24.2,36,24.2z"/>
</g>
</svg>
