<?xml version="1.0" encoding="utf-8"?>
<!-- Generator: Adobe Illustrator 18.1.1, SVG Export Plug-In . SVG Version: 6.00 Build 0)  -->
<svg version="1.1" id="Layer_1" xmlns="http://www.w3.org/2000/svg" xmlns:xlink="http://www.w3.org/1999/xlink" x="0px" y="0px"
	 viewBox="0 0 72 72" enable-background="new 0 0 72 72" xml:space="preserve">
<path fill="none" d="M2.5,36.4c0,0,0,0,0.1-0.1c0-0.1-0.1-0.1-0.1-0.1V36.4z"/>
<path fill="#ADAFAF" d="M61.8,29.6c0.1-0.8,0.2-1.5,0.2-2.3C62,17.8,54.2,10,44.7,10C39,10,34,12.8,30.9,17
	c-1.1-0.3-2.3-0.5-3.5-0.5c-8.4,0-15.2,6.8-15.2,15.2c0,0.2,0.1,0.4,0.1,0.7C6,34.2,1.3,39.9,1.3,46.8C1.3,55.2,8.1,62,16.5,62h36.8
	c9.6,0,17.3-7.8,17.3-17.3C70.7,38.2,67.1,32.6,61.8,29.6z M40.3,40.3v13h-8.7v-13H23l13-13l13,13H40.3z"/>
</svg>
