<?xml version="1.0" encoding="utf-8"?>
<!-- Generator: Adobe Illustrator 16.0.0, SVG Export Plug-In . SVG Version: 6.00 Build 0)  -->
<!DOCTYPE svg PUBLIC "-//W3C//DTD SVG 1.1//EN" "http://www.w3.org/Graphics/SVG/1.1/DTD/svg11.dtd">
<svg version="1.1" id="Layer_1" xmlns="http://www.w3.org/2000/svg" xmlns:xlink="http://www.w3.org/1999/xlink" x="0px" y="0px"
	 width="72px" height="72px" viewBox="0 0 72 72" enable-background="new 0 0 72 72" xml:space="preserve">
<g>
	<g>
		<g>
			<path fill="#ADAFAF" d="M70.895,34.896C69.2,31.337,60.083,14.931,35.952,14.931c-24.363,0-33.354,17.205-34.898,20.625
				C0.873,35.697,0.76,35.9,0.76,36.148v0.268c0,0.281,0.137,0.539,0.352,0.701c1.701,3.568,10.83,19.951,34.93,19.951
				c24.394,0,33.371-17.224,34.912-20.625c0.174-0.141,0.287-0.344,0.287-0.592V35.59C71.24,35.309,71.104,35.055,70.895,34.896z
				 M36,50.18c-7.83,0-14.176-6.354-14.176-14.176c0-7.832,6.346-14.17,14.176-14.17c7.824,0,14.17,6.338,14.17,14.17
				C50.17,43.826,43.824,50.18,36,50.18z"/>
		</g>
		<path fill="#ADAFAF" d="M45.645,36.004c0,5.328-4.315,9.645-9.645,9.645s-9.652-4.315-9.652-9.645s4.324-9.646,9.652-9.646
			S45.645,30.676,45.645,36.004z"/>
	</g>
</g>
</svg>
